{"glyphs":{"0":{"ha":781,"x_min":106,"x_max":858,"o":"m 275 -46 q 106 133 106 -46 q 269 508 106 311 q 611 714 440 714 q 617 708 617 714 q 611 703 617 703 q 568 688 583 696 q 244 308 429 621 q 185 114 185 210 q 207 19 185 56 q 286 -28 233 -28 q 489 57 382 -28 q 572 131 533 90 q 643 219 610 172 q 691 299 668 257 q 733 388 714 340 q 786 596 786 513 q 713 694 786 694 q 597 640 650 694 q 535 528 550 593 q 530 493 532 510 q 528 458 528 476 q 599 347 528 347 q 608 349 604 347 q 618 350 614 350 q 625 344 625 350 q 597 336 625 336 q 528 382 551 336 q 510 468 510 417 q 511 501 510 485 q 517 532 513 517 q 596 661 532 606 q 735 722 661 722 q 832 661 799 722 q 858 543 858 614 q 825 378 858 460 q 608 85 751 200 q 275 -46 453 -46 z "},"1":{"ha":499,"x_min":107,"x_max":588,"o":"m 122 -4 q 124 -3 122 -3 q 140 3 131 0 q 160 8 149 6 q 246 54 208 24 q 323 216 260 65 q 497 657 386 367 l 489 650 q 323 506 397 569 q 190 400 249 443 q 162 380 179 392 q 121 353 144 368 l 111 344 q 107 353 107 344 q 135 400 107 381 q 149 406 142 403 q 167 414 157 410 q 244 469 196 432 q 297 512 268 489 q 358 564 325 535 q 583 763 583 763 q 588 753 588 763 q 565 660 588 732 q 493 469 542 589 l 372 167 q 344 92 353 119 q 335 60 335 65 q 376 22 335 42 q 407 10 392 15 q 436 1 422 4 l 436 -3 q 329 1 393 1 q 285 1 311 1 q 225 -1 258 0 q 164 -3 190 -3 q 122 -4 138 -4 z "},"2":{"ha":768,"x_min":61,"x_max":885,"o":"m 72 -15 q 61 -3 61 -15 q 62 4 61 0 q 64 13 63 8 q 138 114 83 61 q 285 218 193 167 q 446 304 365 263 q 606 392 526 346 q 739 494 692 442 q 796 596 786 546 q 800 640 800 617 q 678 754 800 754 q 349 543 503 754 q 281 388 281 449 q 361 326 281 326 q 536 401 439 326 q 639 556 639 483 q 613 594 639 582 q 608 600 608 597 q 615 606 608 606 q 642 588 632 606 q 650 556 650 574 q 549 389 650 465 q 361 315 454 315 q 233 435 233 315 q 272 550 233 499 q 451 703 336 642 q 566 751 510 735 q 678 767 622 767 q 819 721 761 767 q 885 592 885 672 q 763 419 885 504 q 681 370 731 397 q 563 311 632 343 q 486 276 532 297 q 379 228 440 256 q 254 167 307 196 q 167 114 201 139 q 199 125 183 125 q 272 120 235 125 q 346 104 308 115 q 397 90 372 99 q 449 75 422 82 q 554 58 510 58 q 715 169 715 58 q 714 186 715 178 q 708 203 713 194 q 703 215 706 211 q 701 219 701 219 q 707 225 701 225 q 722 201 715 225 q 726 184 725 192 q 728 169 728 176 q 660 44 728 100 q 525 -10 597 -10 q 350 24 465 -10 q 248 47 292 39 q 174 56 204 56 q 104 21 125 56 q 72 -15 85 -15 z "},"3":{"ha":763,"x_min":86,"x_max":801,"o":"m 332 -14 q 174 25 243 -14 q 86 153 86 74 q 136 249 86 214 q 243 279 182 279 q 476 178 367 279 q 478 174 478 176 q 472 167 478 168 l 468 168 q 275 251 381 251 q 185 228 222 251 q 138 153 138 200 q 199 33 138 75 q 332 -3 251 -3 q 538 61 447 -3 q 658 238 638 128 q 661 258 661 249 q 661 276 661 267 q 611 385 661 346 q 603 390 607 388 q 453 364 531 364 q 363 394 363 364 q 471 433 363 433 q 600 418 543 433 q 650 453 626 432 q 736 629 736 525 q 703 721 736 688 q 611 754 669 754 q 379 606 488 754 q 331 496 331 538 q 389 453 331 453 q 511 506 442 453 q 583 614 583 561 q 565 642 583 633 q 563 646 563 644 q 567 650 563 650 q 592 614 592 650 q 521 496 592 553 q 389 444 450 444 q 299 529 299 444 q 325 611 299 572 q 380 669 349 643 q 453 718 411 696 q 611 763 535 763 q 740 732 688 763 q 801 622 801 694 q 744 485 801 550 q 638 406 699 433 q 657 396 647 401 q 749 246 749 349 l 749 240 q 597 40 749 111 q 332 -14 481 -14 m 411 397 q 464 383 411 383 q 575 406 522 383 q 493 421 539 421 q 411 397 411 421 z "},"4":{"ha":726,"x_min":63,"x_max":1064,"o":"m 253 -1 q 281 14 250 1 q 374 60 319 29 q 474 238 408 106 q 449 244 472 239 q 382 258 426 249 q 333 267 356 264 q 290 269 310 269 q 192 239 247 269 q 96 193 121 200 q 88 192 93 192 q 63 217 63 192 q 76 235 63 231 q 110 247 90 240 q 156 267 131 254 q 383 413 269 319 q 611 639 496 507 q 685 713 646 679 q 767 776 724 747 q 957 849 875 849 q 1026 832 996 849 q 1064 778 1064 811 q 1058 769 1064 769 q 1051 775 1053 769 q 957 836 1047 836 q 776 756 882 836 q 701 690 738 725 q 628 614 664 654 q 479 460 557 533 q 317 322 401 386 q 364 333 339 333 q 433 321 386 333 q 469 312 451 317 q 504 303 486 307 q 700 635 663 635 q 707 626 707 635 q 690 582 707 614 q 615 435 650 508 q 550 293 581 363 q 580 288 565 290 q 607 286 594 286 q 713 303 665 286 q 778 371 778 326 q 757 407 778 394 l 738 419 q 746 426 738 426 q 783 403 767 426 q 797 361 797 383 q 711 258 797 294 q 569 229 644 229 q 548 230 560 229 q 525 232 536 231 q 478 107 494 151 q 461 51 461 63 q 563 3 461 18 l 563 0 q 512 5 540 3 q 447 7 483 7 q 314 3 392 7 q 253 -1 296 1 z "},"5":{"ha":690,"x_min":42,"x_max":871,"o":"m 263 -28 q 42 125 42 -28 q 118 244 42 201 q 265 279 182 279 l 288 279 q 374 244 338 274 q 417 164 417 210 q 400 125 417 125 q 394 131 394 125 l 399 142 q 404 164 404 151 q 358 242 404 213 q 268 268 319 268 q 154 229 204 268 q 104 122 104 188 q 153 22 104 60 q 263 -10 197 -10 q 492 93 386 -10 q 594 321 594 194 q 556 418 594 385 q 453 451 518 451 q 338 428 389 451 q 247 338 276 338 q 233 354 233 338 q 244 381 233 363 q 304 426 265 407 q 349 486 324 450 q 390 550 372 521 q 419 606 407 579 q 463 688 453 671 q 536 733 496 733 q 581 726 554 733 q 642 703 607 718 q 747 672 711 672 q 821 692 790 672 q 857 756 857 714 q 844 792 857 779 l 832 806 q 838 811 832 811 q 863 785 853 811 q 871 747 871 764 q 825 651 871 689 q 724 615 783 615 q 673 622 701 615 q 610 643 644 629 q 519 671 542 671 q 440 596 478 671 q 401 526 422 563 q 353 450 381 490 l 350 446 q 474 465 413 465 q 555 457 518 465 q 621 429 592 449 q 692 303 692 386 q 685 246 692 276 q 386 -6 635 68 q 263 -28 318 -28 z "},"6":{"ha":661,"x_min":78,"x_max":864,"o":"m 254 -18 q 78 176 78 -18 q 82 238 78 211 q 264 533 106 376 q 546 750 386 656 q 803 832 686 832 q 864 808 864 832 q 851 800 864 800 q 819 804 840 800 q 789 810 801 810 q 551 729 679 810 q 283 454 411 644 q 149 100 149 253 q 225 6 149 6 q 468 144 331 6 q 606 389 606 285 q 579 471 606 439 q 503 504 553 504 q 375 450 429 504 q 321 321 321 396 q 328 290 321 311 q 333 274 332 281 q 335 265 335 268 q 329 260 335 261 l 325 263 q 307 331 307 286 q 367 471 307 415 q 510 526 424 526 q 629 474 581 526 q 676 349 676 422 q 532 94 676 214 q 254 -18 393 -18 z "},"7":{"ha":451,"x_min":144,"x_max":768,"o":"m 186 -6 q 144 14 144 -6 q 161 82 144 32 q 298 334 201 196 q 547 635 394 472 q 489 626 525 626 q 453 628 475 626 q 399 633 431 631 q 338 646 385 635 q 304 653 319 651 q 278 656 289 656 q 201 582 224 656 q 199 563 200 572 q 196 544 199 554 q 174 518 192 518 q 158 538 158 518 q 167 565 158 551 q 181 590 181 590 q 224 682 213 668 q 308 729 257 729 q 336 726 319 729 q 375 718 353 724 q 463 704 411 708 q 582 700 514 700 q 665 714 611 700 q 713 724 693 721 q 744 728 733 728 q 768 717 768 728 q 735 688 768 700 q 686 679 710 679 q 669 680 678 679 q 650 682 661 681 q 488 528 554 611 q 251 96 293 283 q 247 62 249 82 q 242 18 244 42 q 186 -6 239 -6 z "},"8":{"ha":661,"x_min":60,"x_max":808,"o":"m 271 -6 q 131 35 192 -6 q 60 154 60 81 q 200 333 60 256 q 292 376 236 353 q 426 426 349 400 q 356 579 356 493 q 417 689 356 640 q 532 747 464 728 q 589 759 560 756 q 649 763 618 763 q 757 733 711 763 q 808 639 808 700 q 788 581 808 608 q 533 450 749 528 q 629 232 629 354 q 597 149 629 197 q 454 32 547 74 q 271 -6 369 -6 m 522 461 q 756 672 756 561 q 649 746 756 746 q 435 599 435 746 q 463 521 435 556 q 481 501 465 515 q 522 461 496 486 m 271 8 q 519 147 457 8 q 538 229 538 188 q 508 333 538 286 q 436 417 486 368 q 232 321 299 369 q 126 132 126 244 q 271 8 126 8 z "},"9":{"ha":690,"x_min":-12,"x_max":774,"o":"m 49 -100 q -12 -78 -12 -100 q 0 -68 -12 -68 q 32 -74 14 -68 q 63 -78 53 -78 q 301 3 171 -78 q 568 278 442 86 q 703 632 703 479 q 626 726 703 726 q 383 588 521 726 q 246 342 246 449 q 272 261 246 292 q 349 228 301 228 q 476 282 425 228 q 531 410 531 336 q 528 424 531 417 q 524 442 526 432 q 515 467 515 461 q 522 471 515 471 l 526 469 q 544 401 544 446 q 485 261 544 317 q 342 206 428 206 q 222 258 269 206 q 175 382 175 310 q 319 638 175 518 q 597 749 460 749 q 774 556 774 749 q 769 493 774 522 q 588 199 746 356 q 456 83 526 138 q 306 -18 385 28 q 49 -100 168 -100 z "},"\r":{"ha":219,"x_min":0,"x_max":0,"o":""}," ":{"ha":219,"x_min":0,"x_max":0,"o":""}," ":{"ha":219,"x_min":0,"x_max":0,"o":""},"A":{"ha":1292,"x_min":33,"x_max":1600,"o":"m 344 -151 q 125 -76 213 -151 q 33 135 33 6 q 118 339 33 254 q 324 424 206 424 q 472 375 408 424 q 542 240 542 324 q 488 111 542 160 q 354 67 435 67 q 283 79 300 67 l 282 82 q 290 88 286 88 q 291 88 290 88 q 293 86 292 88 q 315 81 300 82 q 349 79 329 79 q 469 124 425 79 q 514 243 514 167 q 463 364 514 318 q 338 408 411 408 q 150 335 224 408 q 78 147 78 263 q 158 -50 78 22 q 364 -119 236 -119 q 943 290 639 -119 q 1311 681 1178 604 l 1019 779 q 958 794 989 790 q 894 799 926 799 q 696 742 786 799 q 594 572 594 675 q 617 481 594 525 q 797 382 664 382 q 818 382 808 382 q 838 383 828 382 q 947 439 899 392 q 1001 547 1001 492 q 967 610 1001 589 q 965 614 965 611 q 968 617 965 617 q 970 616 969 617 q 972 615 971 615 l 976 615 q 1021 539 1021 592 q 972 431 1021 482 q 867 371 928 386 q 786 361 829 361 q 621 422 689 361 q 551 585 551 488 q 650 779 551 706 q 863 847 739 847 q 878 847 871 847 q 893 846 886 847 q 1256 733 1058 832 q 1288 717 1269 728 q 1332 692 1307 707 q 1490 742 1397 742 q 1528 738 1510 742 q 1561 726 1547 735 q 1600 668 1600 706 q 1531 604 1600 604 q 1484 611 1510 604 q 1449 624 1458 618 q 1419 579 1435 603 q 1388 528 1404 556 q 1308 350 1365 490 q 1262 253 1286 294 q 1210 181 1238 211 q 951 1 1097 58 q 959 2 954 1 q 972 3 964 3 l 993 3 q 1047 0 1022 3 q 1092 -7 1071 -3 q 1188 -28 1174 -28 q 1213 -7 1213 -28 q 1210 7 1213 1 q 1208 16 1208 13 q 1208 21 1208 19 q 1209 23 1208 22 q 1210 24 1210 24 q 1213 22 1211 24 q 1225 -11 1225 10 q 1154 -64 1225 -64 q 1124 -61 1140 -64 q 1088 -50 1107 -58 l 1025 -25 q 974 -12 1000 -14 q 919 -10 947 -10 l 918 -6 q 1069 132 1000 53 q 1188 300 1119 188 q 1204 328 1192 307 l 994 328 q 849 135 917 217 q 724 6 781 54 q 344 -151 546 -151 m 1507 615 q 1578 667 1578 615 q 1553 714 1578 697 q 1499 731 1531 731 q 1343 686 1413 731 q 1388 665 1365 676 q 1432 642 1410 653 l 1492 703 q 1494 700 1494 703 q 1454 631 1494 692 q 1507 615 1481 615 m 1006 343 l 1214 343 q 1422 635 1301 488 l 1325 675 q 1247 615 1290 653 q 1153 524 1203 578 q 1006 343 1067 429 z "},"Æ":{"ha":1897,"x_min":33,"x_max":1925,"o":"m 344 -151 q 125 -76 213 -151 q 33 135 33 6 q 118 339 33 254 q 324 424 206 424 q 472 375 408 424 q 542 240 542 324 q 488 111 542 160 q 354 67 435 67 q 283 79 300 67 l 282 82 q 290 88 286 88 q 291 88 290 88 q 293 86 292 88 q 315 81 300 82 q 349 79 329 79 q 469 124 425 79 q 514 243 514 167 q 463 364 514 318 q 338 408 411 408 q 150 335 224 408 q 78 147 78 263 q 158 -50 78 22 q 364 -119 236 -119 q 943 290 639 -119 q 1311 681 1178 604 q 1180 730 1253 706 q 1019 779 1107 754 q 896 796 957 796 q 697 742 785 796 q 594 574 594 681 q 617 481 594 526 q 797 382 664 382 q 818 382 808 382 q 838 383 828 382 q 947 439 899 392 q 1001 547 1001 492 q 967 610 1001 589 q 965 614 965 611 q 968 617 965 617 q 970 616 969 617 q 972 615 971 615 l 976 615 q 1021 539 1021 592 q 972 431 1021 482 q 867 371 929 388 q 786 361 829 361 q 621 422 689 361 q 551 585 551 488 q 650 779 551 706 q 863 847 739 847 q 878 847 871 847 q 893 846 886 847 q 1256 733 1058 832 q 1288 717 1269 728 q 1332 692 1307 707 q 1533 751 1408 751 l 1556 751 q 1764 829 1622 829 q 1925 719 1925 829 q 1890 642 1925 676 q 1814 608 1857 608 q 1772 618 1790 608 q 1749 651 1749 631 q 1751 664 1749 656 q 1757 672 1751 672 q 1763 667 1763 672 q 1760 660 1763 665 q 1757 650 1757 651 q 1785 624 1757 624 q 1860 650 1828 624 q 1896 718 1896 678 q 1857 792 1896 765 q 1774 814 1821 814 q 1604 742 1665 814 q 1661 669 1661 714 q 1624 608 1661 632 q 1553 590 1593 590 q 1574 529 1553 558 q 1590 531 1582 531 q 1608 531 1599 531 q 1763 489 1763 531 q 1711 460 1763 460 q 1571 506 1633 460 q 1264 289 1342 467 q 1233 154 1233 222 q 1303 -19 1233 47 q 1478 -83 1368 -83 q 1721 3 1614 -83 q 1836 225 1836 93 q 1739 340 1836 340 q 1672 319 1701 340 q 1642 260 1642 297 q 1638 236 1642 236 q 1626 260 1626 236 q 1632 285 1626 269 q 1753 357 1657 357 q 1853 318 1818 357 q 1889 214 1889 278 q 1739 -24 1889 71 q 1456 -104 1607 -104 q 1244 -37 1328 -104 q 1153 158 1153 36 q 1204 328 1153 238 l 994 328 q 849 135 917 217 q 724 6 781 54 q 344 -151 546 -151 m 1564 618 q 1632 672 1632 618 q 1592 721 1632 701 q 1526 736 1561 736 q 1432 719 1490 736 q 1343 686 1372 706 q 1564 618 1496 618 m 1006 343 l 1214 343 l 1215 344 q 1319 489 1263 419 q 1449 622 1376 558 q 1406 640 1436 626 q 1325 675 1375 653 q 1247 615 1290 653 q 1153 524 1203 578 q 1006 343 1067 429 m 1344 465 q 1547 528 1435 515 q 1508 600 1513 563 q 1482 608 1494 604 q 1458 615 1469 611 q 1399 547 1428 585 q 1344 465 1371 508 m 1690 474 q 1733 492 1733 474 q 1671 515 1733 515 q 1631 514 1651 515 q 1592 510 1611 513 q 1690 474 1636 474 z "},"Ǽ":{"ha":1897,"x_min":33,"x_max":1925,"o":"m 344 -151 q 125 -76 213 -151 q 33 135 33 6 q 118 339 33 254 q 324 424 206 424 q 472 375 408 424 q 542 240 542 324 q 488 111 542 160 q 354 67 435 67 q 283 79 300 67 l 282 82 q 290 88 286 88 q 291 88 290 88 q 293 86 292 88 q 315 81 300 82 q 349 79 329 79 q 469 124 425 79 q 514 243 514 167 q 463 364 514 318 q 338 408 411 408 q 150 335 224 408 q 78 147 78 263 q 158 -50 78 22 q 364 -119 236 -119 q 943 290 639 -119 q 1311 681 1178 604 q 1180 730 1253 706 q 1019 779 1107 754 q 896 796 957 796 q 697 742 785 796 q 594 574 594 681 q 617 481 594 526 q 797 382 664 382 q 818 382 808 382 q 838 383 828 382 q 947 439 899 392 q 1001 547 1001 492 q 967 610 1001 589 q 965 614 965 611 q 968 617 965 617 q 970 616 969 617 q 972 615 971 615 l 976 615 q 1021 539 1021 592 q 972 431 1021 482 q 867 371 929 388 q 786 361 829 361 q 621 422 689 361 q 551 585 551 488 q 650 779 551 706 q 863 847 739 847 q 878 847 871 847 q 893 846 886 847 q 1256 733 1058 832 q 1288 717 1269 728 q 1332 692 1307 707 q 1533 751 1408 751 l 1556 751 q 1764 829 1622 829 q 1925 719 1925 829 q 1890 642 1925 676 q 1814 608 1857 608 q 1772 618 1790 608 q 1749 651 1749 631 q 1751 664 1749 656 q 1757 672 1751 672 q 1763 667 1763 672 q 1760 660 1763 665 q 1757 650 1757 651 q 1785 624 1757 624 q 1860 650 1828 624 q 1896 718 1896 678 q 1857 792 1896 765 q 1774 814 1821 814 q 1604 742 1665 814 q 1661 669 1661 714 q 1624 608 1661 632 q 1553 590 1593 590 q 1574 529 1553 558 q 1590 531 1582 531 q 1608 531 1599 531 q 1763 489 1763 531 q 1711 460 1763 460 q 1571 506 1633 460 q 1264 289 1342 467 q 1233 154 1233 222 q 1303 -19 1233 47 q 1478 -83 1368 -83 q 1721 3 1614 -83 q 1836 225 1836 93 q 1739 340 1836 340 q 1672 319 1701 340 q 1642 260 1642 297 q 1638 236 1642 236 q 1626 260 1626 236 q 1632 285 1626 269 q 1753 357 1657 357 q 1853 318 1818 357 q 1889 214 1889 278 q 1739 -24 1889 71 q 1456 -104 1607 -104 q 1244 -37 1328 -104 q 1153 158 1153 36 q 1204 328 1153 238 l 994 328 q 849 135 917 217 q 724 6 781 54 q 344 -151 546 -151 m 1564 618 q 1632 672 1632 618 q 1592 721 1632 701 q 1526 736 1561 736 q 1432 719 1490 736 q 1343 686 1372 706 q 1564 618 1496 618 m 1006 343 l 1214 343 l 1215 344 q 1319 489 1263 419 q 1449 622 1376 558 q 1406 640 1436 626 q 1325 675 1375 653 q 1247 615 1290 653 q 1153 524 1203 578 q 1006 343 1067 429 m 1344 465 q 1547 528 1435 515 q 1508 600 1513 563 q 1482 608 1494 604 q 1458 615 1469 611 q 1399 547 1428 585 q 1344 465 1371 508 m 1690 474 q 1733 492 1733 474 q 1671 515 1733 515 q 1631 514 1651 515 q 1592 510 1611 513 q 1690 474 1636 474 m 1619 915 q 1635 930 1619 918 q 1669 956 1650 942 q 1700 976 1689 969 q 1775 1027 1742 1004 q 1817 1050 1808 1050 q 1833 1038 1825 1050 q 1835 1022 1842 1026 q 1790 997 1826 1017 q 1710 956 1754 978 q 1633 918 1667 935 q 1619 915 1619 911 z "},"Á":{"ha":1292,"x_min":33,"x_max":1617,"o":"m 344 -151 q 125 -76 213 -151 q 33 135 33 6 q 118 339 33 254 q 324 424 206 424 q 472 375 408 424 q 542 240 542 324 q 488 111 542 160 q 354 67 435 67 q 283 79 300 67 l 282 82 q 290 88 286 88 q 291 88 290 88 q 293 86 292 88 q 315 81 300 82 q 349 79 329 79 q 469 124 425 79 q 514 243 514 167 q 463 364 514 318 q 338 408 411 408 q 150 335 224 408 q 78 147 78 263 q 158 -50 78 22 q 364 -119 236 -119 q 943 290 639 -119 q 1311 681 1178 604 l 1019 779 q 958 794 989 790 q 894 799 926 799 q 696 742 786 799 q 594 572 594 675 q 617 481 594 525 q 797 382 664 382 q 818 382 808 382 q 838 383 828 382 q 947 439 899 392 q 1001 547 1001 492 q 967 610 1001 589 q 965 614 965 611 q 968 617 965 617 q 970 616 969 617 q 972 615 971 615 l 976 615 q 1021 539 1021 592 q 972 431 1021 482 q 867 371 928 386 q 786 361 829 361 q 621 422 689 361 q 551 585 551 488 q 650 779 551 706 q 863 847 739 847 q 878 847 871 847 q 893 846 886 847 q 1256 733 1058 832 q 1288 717 1269 728 q 1332 692 1307 707 q 1490 742 1397 742 q 1528 738 1510 742 q 1561 726 1547 735 q 1600 668 1600 706 q 1531 604 1600 604 q 1484 611 1510 604 q 1449 624 1458 618 q 1419 579 1435 603 q 1388 528 1404 556 q 1308 350 1365 490 q 1262 253 1286 294 q 1210 181 1238 211 q 951 1 1097 58 q 959 2 954 1 q 972 3 964 3 l 993 3 q 1047 0 1022 3 q 1092 -7 1071 -3 q 1188 -28 1174 -28 q 1213 -7 1213 -28 q 1210 7 1213 1 q 1208 16 1208 13 q 1208 21 1208 19 q 1209 23 1208 22 q 1210 24 1210 24 q 1213 22 1211 24 q 1225 -11 1225 10 q 1154 -64 1225 -64 q 1124 -61 1140 -64 q 1088 -50 1107 -58 l 1025 -25 q 974 -12 1000 -14 q 919 -10 947 -10 l 918 -6 q 1069 132 1000 53 q 1188 300 1119 188 q 1204 328 1192 307 l 994 328 q 849 135 917 217 q 724 6 781 54 q 344 -151 546 -151 m 1507 615 q 1578 667 1578 615 q 1553 714 1578 697 q 1499 731 1531 731 q 1343 686 1413 731 q 1388 665 1365 676 q 1432 642 1410 653 l 1492 703 q 1494 700 1494 703 q 1454 631 1494 692 q 1507 615 1481 615 m 1006 343 l 1214 343 q 1422 635 1301 488 l 1325 675 q 1247 615 1290 653 q 1153 524 1203 578 q 1006 343 1067 429 m 1394 828 q 1410 842 1394 831 q 1444 868 1425 854 q 1475 889 1464 882 q 1550 940 1517 917 q 1592 963 1583 963 q 1608 951 1600 963 q 1610 935 1617 939 q 1565 910 1601 929 q 1485 869 1529 890 q 1408 831 1442 847 q 1394 828 1394 824 z "},"Ă":{"ha":1292,"x_min":33,"x_max":1672,"o":"m 344 -151 q 125 -76 213 -151 q 33 135 33 6 q 118 339 33 254 q 324 424 206 424 q 472 375 408 424 q 542 240 542 324 q 488 111 542 160 q 354 67 435 67 q 283 79 300 67 l 282 82 q 290 88 286 88 q 291 88 290 88 q 293 86 292 88 q 315 81 300 82 q 349 79 329 79 q 469 124 425 79 q 514 243 514 167 q 463 364 514 318 q 338 408 411 408 q 150 335 224 408 q 78 147 78 263 q 158 -50 78 22 q 364 -119 236 -119 q 943 290 639 -119 q 1311 681 1178 604 l 1019 779 q 958 794 989 790 q 894 799 926 799 q 696 742 786 799 q 594 572 594 675 q 617 481 594 525 q 797 382 664 382 q 818 382 808 382 q 838 383 828 382 q 947 439 899 392 q 1001 547 1001 492 q 967 610 1001 589 q 965 614 965 611 q 968 617 965 617 q 970 616 969 617 q 972 615 971 615 l 976 615 q 1021 539 1021 592 q 972 431 1021 482 q 867 371 928 386 q 786 361 829 361 q 621 422 689 361 q 551 585 551 488 q 650 779 551 706 q 863 847 739 847 q 878 847 871 847 q 893 846 886 847 q 1256 733 1058 832 q 1288 717 1269 728 q 1332 692 1307 707 q 1490 742 1397 742 q 1528 738 1510 742 q 1561 726 1547 735 q 1600 668 1600 706 q 1531 604 1600 604 q 1484 611 1510 604 q 1449 624 1458 618 q 1419 579 1435 603 q 1388 528 1404 556 q 1308 350 1365 490 q 1262 253 1286 294 q 1210 181 1238 211 q 951 1 1097 58 q 959 2 954 1 q 972 3 964 3 l 993 3 q 1047 0 1022 3 q 1092 -7 1071 -3 q 1188 -28 1174 -28 q 1213 -7 1213 -28 q 1210 7 1213 1 q 1208 16 1208 13 q 1208 21 1208 19 q 1209 23 1208 22 q 1210 24 1210 24 q 1213 22 1211 24 q 1225 -11 1225 10 q 1154 -64 1225 -64 q 1124 -61 1140 -64 q 1088 -50 1107 -58 l 1025 -25 q 974 -12 1000 -14 q 919 -10 947 -10 l 918 -6 q 1069 132 1000 53 q 1188 300 1119 188 q 1204 328 1192 307 l 994 328 q 849 135 917 217 q 724 6 781 54 q 344 -151 546 -151 m 1507 615 q 1578 667 1578 615 q 1553 714 1578 697 q 1499 731 1531 731 q 1343 686 1413 731 q 1388 665 1365 676 q 1432 642 1410 653 l 1492 703 q 1494 700 1494 703 q 1454 631 1494 692 q 1507 615 1481 615 m 1006 343 l 1214 343 q 1422 635 1301 488 l 1325 675 q 1247 615 1290 653 q 1153 524 1203 578 q 1006 343 1067 429 m 1483 818 q 1403 837 1433 818 q 1374 907 1374 856 q 1375 919 1374 914 q 1383 931 1376 925 q 1399 932 1399 943 q 1406 895 1399 913 q 1435 867 1413 878 q 1504 857 1458 857 q 1577 871 1532 857 q 1653 919 1622 885 q 1662 930 1660 926 q 1671 933 1664 933 q 1672 929 1672 933 q 1664 915 1672 926 q 1589 849 1638 881 q 1483 818 1540 818 z "},"Ắ":{"ha":1292,"x_min":33,"x_max":1672,"o":"m 344 -151 q 125 -76 213 -151 q 33 135 33 6 q 118 339 33 254 q 324 424 206 424 q 472 375 408 424 q 542 240 542 324 q 488 111 542 160 q 354 67 435 67 q 283 79 300 67 l 282 82 q 290 88 286 88 q 291 88 290 88 q 293 86 292 88 q 315 81 300 82 q 349 79 329 79 q 469 124 425 79 q 514 243 514 167 q 463 364 514 318 q 338 408 411 408 q 150 335 224 408 q 78 147 78 263 q 158 -50 78 22 q 364 -119 236 -119 q 943 290 639 -119 q 1311 681 1178 604 l 1019 779 q 958 794 989 790 q 894 799 926 799 q 696 742 786 799 q 594 572 594 675 q 617 481 594 525 q 797 382 664 382 q 818 382 808 382 q 838 383 828 382 q 947 439 899 392 q 1001 547 1001 492 q 967 610 1001 589 q 965 614 965 611 q 968 617 965 617 q 970 616 969 617 q 972 615 971 615 l 976 615 q 1021 539 1021 592 q 972 431 1021 482 q 867 371 928 386 q 786 361 829 361 q 621 422 689 361 q 551 585 551 488 q 650 779 551 706 q 863 847 739 847 q 878 847 871 847 q 893 846 886 847 q 1256 733 1058 832 q 1288 717 1269 728 q 1332 692 1307 707 q 1490 742 1397 742 q 1528 738 1510 742 q 1561 726 1547 735 q 1600 668 1600 706 q 1531 604 1600 604 q 1484 611 1510 604 q 1449 624 1458 618 q 1419 579 1435 603 q 1388 528 1404 556 q 1308 350 1365 490 q 1262 253 1286 294 q 1210 181 1238 211 q 951 1 1097 58 q 959 2 954 1 q 972 3 964 3 l 993 3 q 1047 0 1022 3 q 1092 -7 1071 -3 q 1188 -28 1174 -28 q 1213 -7 1213 -28 q 1210 7 1213 1 q 1208 16 1208 13 q 1208 21 1208 19 q 1209 23 1208 22 q 1210 24 1210 24 q 1213 22 1211 24 q 1225 -11 1225 10 q 1154 -64 1225 -64 q 1124 -61 1140 -64 q 1088 -50 1107 -58 l 1025 -25 q 974 -12 1000 -14 q 919 -10 947 -10 l 918 -6 q 1069 132 1000 53 q 1188 300 1119 188 q 1204 328 1192 307 l 994 328 q 849 135 917 217 q 724 6 781 54 q 344 -151 546 -151 m 1507 615 q 1578 667 1578 615 q 1553 714 1578 697 q 1499 731 1531 731 q 1343 686 1413 731 q 1388 665 1365 676 q 1432 642 1410 653 l 1492 703 q 1494 700 1494 703 q 1454 631 1494 692 q 1507 615 1481 615 m 1006 343 l 1214 343 q 1422 635 1301 488 l 1325 675 q 1247 615 1290 653 q 1153 524 1203 578 q 1006 343 1067 429 m 1483 818 q 1403 837 1433 818 q 1374 907 1374 856 q 1375 919 1374 914 q 1383 931 1376 925 q 1399 932 1399 943 q 1406 895 1399 913 q 1435 867 1413 878 q 1504 857 1458 857 q 1577 871 1532 857 q 1653 919 1622 885 q 1662 930 1660 926 q 1671 933 1664 933 q 1672 929 1672 933 q 1664 915 1672 926 q 1589 849 1638 881 q 1483 818 1540 818 m 1442 975 q 1457 990 1442 978 q 1492 1015 1472 1001 q 1522 1036 1511 1029 q 1597 1087 1564 1064 q 1639 1110 1631 1110 q 1656 1098 1647 1110 q 1657 1082 1664 1086 q 1613 1057 1649 1076 q 1533 1016 1576 1038 q 1456 978 1489 994 q 1442 975 1442 971 z "},"Ặ":{"ha":1292,"x_min":33,"x_max":1672,"o":"m 344 -151 q 125 -76 213 -151 q 33 135 33 6 q 118 339 33 254 q 324 424 206 424 q 472 375 408 424 q 542 240 542 324 q 488 111 542 160 q 354 67 435 67 q 283 79 300 67 l 282 82 q 290 88 286 88 q 291 88 290 88 q 293 86 292 88 q 315 81 300 82 q 349 79 329 79 q 469 124 425 79 q 514 243 514 167 q 463 364 514 318 q 338 408 411 408 q 150 335 224 408 q 78 147 78 263 q 158 -50 78 22 q 364 -119 236 -119 q 943 290 639 -119 q 1311 681 1178 604 l 1019 779 q 958 794 989 790 q 894 799 926 799 q 696 742 786 799 q 594 572 594 675 q 617 481 594 525 q 797 382 664 382 q 818 382 808 382 q 838 383 828 382 q 947 439 899 392 q 1001 547 1001 492 q 967 610 1001 589 q 965 614 965 611 q 968 617 965 617 q 970 616 969 617 q 972 615 971 615 l 976 615 q 1021 539 1021 592 q 972 431 1021 482 q 867 371 928 386 q 786 361 829 361 q 621 422 689 361 q 551 585 551 488 q 650 779 551 706 q 863 847 739 847 q 878 847 871 847 q 893 846 886 847 q 1256 733 1058 832 q 1288 717 1269 728 q 1332 692 1307 707 q 1490 742 1397 742 q 1528 738 1510 742 q 1561 726 1547 735 q 1600 668 1600 706 q 1531 604 1600 604 q 1484 611 1510 604 q 1449 624 1458 618 q 1419 579 1435 603 q 1388 528 1404 556 q 1308 350 1365 490 q 1262 253 1286 294 q 1210 181 1238 211 q 951 1 1097 58 q 959 2 954 1 q 972 3 964 3 l 993 3 q 1047 0 1022 3 q 1092 -7 1071 -3 q 1188 -28 1174 -28 q 1213 -7 1213 -28 q 1210 7 1213 1 q 1208 16 1208 13 q 1208 21 1208 19 q 1209 23 1208 22 q 1210 24 1210 24 q 1213 22 1211 24 q 1225 -11 1225 10 q 1154 -64 1225 -64 q 1124 -61 1140 -64 q 1088 -50 1107 -58 l 1025 -25 q 974 -12 1000 -14 q 919 -10 947 -10 l 918 -6 q 1069 132 1000 53 q 1188 300 1119 188 q 1204 328 1192 307 l 994 328 q 849 135 917 217 q 724 6 781 54 q 344 -151 546 -151 m 1507 615 q 1578 667 1578 615 q 1553 714 1578 697 q 1499 731 1531 731 q 1343 686 1413 731 q 1388 665 1365 676 q 1432 642 1410 653 l 1492 703 q 1494 700 1494 703 q 1454 631 1494 692 q 1507 615 1481 615 m 1006 343 l 1214 343 q 1422 635 1301 488 l 1325 675 q 1247 615 1290 653 q 1153 524 1203 578 q 1006 343 1067 429 m 789 -171 q 757 -142 757 -171 q 769 -112 757 -125 q 799 -99 782 -99 q 831 -128 831 -99 q 817 -158 831 -144 q 789 -171 804 -171 m 1483 818 q 1403 837 1433 818 q 1374 907 1374 856 q 1375 919 1374 914 q 1383 931 1376 925 q 1399 932 1399 943 q 1406 895 1399 913 q 1435 867 1413 878 q 1504 857 1458 857 q 1577 871 1532 857 q 1653 919 1622 885 q 1662 930 1660 926 q 1671 933 1664 933 q 1672 929 1672 933 q 1664 915 1672 926 q 1589 849 1638 881 q 1483 818 1540 818 z "},"Ằ":{"ha":1292,"x_min":33,"x_max":1672,"o":"m 344 -151 q 125 -76 213 -151 q 33 135 33 6 q 118 339 33 254 q 324 424 206 424 q 472 375 408 424 q 542 240 542 324 q 488 111 542 160 q 354 67 435 67 q 283 79 300 67 l 282 82 q 290 88 286 88 q 291 88 290 88 q 293 86 292 88 q 315 81 300 82 q 349 79 329 79 q 469 124 425 79 q 514 243 514 167 q 463 364 514 318 q 338 408 411 408 q 150 335 224 408 q 78 147 78 263 q 158 -50 78 22 q 364 -119 236 -119 q 943 290 639 -119 q 1311 681 1178 604 l 1019 779 q 958 794 989 790 q 894 799 926 799 q 696 742 786 799 q 594 572 594 675 q 617 481 594 525 q 797 382 664 382 q 818 382 808 382 q 838 383 828 382 q 947 439 899 392 q 1001 547 1001 492 q 967 610 1001 589 q 965 614 965 611 q 968 617 965 617 q 970 616 969 617 q 972 615 971 615 l 976 615 q 1021 539 1021 592 q 972 431 1021 482 q 867 371 928 386 q 786 361 829 361 q 621 422 689 361 q 551 585 551 488 q 650 779 551 706 q 863 847 739 847 q 878 847 871 847 q 893 846 886 847 q 1256 733 1058 832 q 1288 717 1269 728 q 1332 692 1307 707 q 1490 742 1397 742 q 1528 738 1510 742 q 1561 726 1547 735 q 1600 668 1600 706 q 1531 604 1600 604 q 1484 611 1510 604 q 1449 624 1458 618 q 1419 579 1435 603 q 1388 528 1404 556 q 1308 350 1365 490 q 1262 253 1286 294 q 1210 181 1238 211 q 951 1 1097 58 q 959 2 954 1 q 972 3 964 3 l 993 3 q 1047 0 1022 3 q 1092 -7 1071 -3 q 1188 -28 1174 -28 q 1213 -7 1213 -28 q 1210 7 1213 1 q 1208 16 1208 13 q 1208 21 1208 19 q 1209 23 1208 22 q 1210 24 1210 24 q 1213 22 1211 24 q 1225 -11 1225 10 q 1154 -64 1225 -64 q 1124 -61 1140 -64 q 1088 -50 1107 -58 l 1025 -25 q 974 -12 1000 -14 q 919 -10 947 -10 l 918 -6 q 1069 132 1000 53 q 1188 300 1119 188 q 1204 328 1192 307 l 994 328 q 849 135 917 217 q 724 6 781 54 q 344 -151 546 -151 m 1507 615 q 1578 667 1578 615 q 1553 714 1578 697 q 1499 731 1531 731 q 1343 686 1413 731 q 1388 665 1365 676 q 1432 642 1410 653 l 1492 703 q 1494 700 1494 703 q 1454 631 1494 692 q 1507 615 1481 615 m 1006 343 l 1214 343 q 1422 635 1301 488 l 1325 675 q 1247 615 1290 653 q 1153 524 1203 578 q 1006 343 1067 429 m 1483 818 q 1403 837 1433 818 q 1374 907 1374 856 q 1375 919 1374 914 q 1383 931 1376 925 q 1399 932 1399 943 q 1406 895 1399 913 q 1435 867 1413 878 q 1504 857 1458 857 q 1577 871 1532 857 q 1653 919 1622 885 q 1662 930 1660 926 q 1671 933 1664 933 q 1672 929 1672 933 q 1664 915 1672 926 q 1589 849 1638 881 q 1483 818 1540 818 m 1597 975 q 1583 978 1597 971 q 1506 1016 1550 994 q 1427 1057 1463 1038 q 1382 1082 1392 1076 q 1384 1098 1376 1086 q 1400 1110 1392 1110 q 1442 1087 1408 1110 q 1517 1036 1475 1064 q 1547 1015 1528 1029 q 1582 990 1567 1001 q 1597 975 1597 978 z "},"Ẳ":{"ha":1292,"x_min":33,"x_max":1672,"o":"m 344 -151 q 125 -76 213 -151 q 33 135 33 6 q 118 339 33 254 q 324 424 206 424 q 472 375 408 424 q 542 240 542 324 q 488 111 542 160 q 354 67 435 67 q 283 79 300 67 l 282 82 q 290 88 286 88 q 291 88 290 88 q 293 86 292 88 q 315 81 300 82 q 349 79 329 79 q 469 124 425 79 q 514 243 514 167 q 463 364 514 318 q 338 408 411 408 q 150 335 224 408 q 78 147 78 263 q 158 -50 78 22 q 364 -119 236 -119 q 943 290 639 -119 q 1311 681 1178 604 l 1019 779 q 958 794 989 790 q 894 799 926 799 q 696 742 786 799 q 594 572 594 675 q 617 481 594 525 q 797 382 664 382 q 818 382 808 382 q 838 383 828 382 q 947 439 899 392 q 1001 547 1001 492 q 967 610 1001 589 q 965 614 965 611 q 968 617 965 617 q 970 616 969 617 q 972 615 971 615 l 976 615 q 1021 539 1021 592 q 972 431 1021 482 q 867 371 928 386 q 786 361 829 361 q 621 422 689 361 q 551 585 551 488 q 650 779 551 706 q 863 847 739 847 q 878 847 871 847 q 893 846 886 847 q 1256 733 1058 832 q 1288 717 1269 728 q 1332 692 1307 707 q 1490 742 1397 742 q 1528 738 1510 742 q 1561 726 1547 735 q 1600 668 1600 706 q 1531 604 1600 604 q 1484 611 1510 604 q 1449 624 1458 618 q 1419 579 1435 603 q 1388 528 1404 556 q 1308 350 1365 490 q 1262 253 1286 294 q 1210 181 1238 211 q 951 1 1097 58 q 959 2 954 1 q 972 3 964 3 l 993 3 q 1047 0 1022 3 q 1092 -7 1071 -3 q 1188 -28 1174 -28 q 1213 -7 1213 -28 q 1210 7 1213 1 q 1208 16 1208 13 q 1208 21 1208 19 q 1209 23 1208 22 q 1210 24 1210 24 q 1213 22 1211 24 q 1225 -11 1225 10 q 1154 -64 1225 -64 q 1124 -61 1140 -64 q 1088 -50 1107 -58 l 1025 -25 q 974 -12 1000 -14 q 919 -10 947 -10 l 918 -6 q 1069 132 1000 53 q 1188 300 1119 188 q 1204 328 1192 307 l 994 328 q 849 135 917 217 q 724 6 781 54 q 344 -151 546 -151 m 1507 615 q 1578 667 1578 615 q 1553 714 1578 697 q 1499 731 1531 731 q 1343 686 1413 731 q 1388 665 1365 676 q 1432 642 1410 653 l 1492 703 q 1494 700 1494 703 q 1454 631 1494 692 q 1507 615 1481 615 m 1006 343 l 1214 343 q 1422 635 1301 488 l 1325 675 q 1247 615 1290 653 q 1153 524 1203 578 q 1006 343 1067 429 m 1483 818 q 1403 837 1433 818 q 1374 907 1374 856 q 1375 919 1374 914 q 1383 931 1376 925 q 1399 932 1399 943 q 1406 895 1399 913 q 1435 867 1413 878 q 1504 857 1458 857 q 1577 871 1532 857 q 1653 919 1622 885 q 1662 930 1660 926 q 1671 933 1664 933 q 1672 929 1672 933 q 1664 915 1672 926 q 1589 849 1638 881 q 1483 818 1540 818 m 1549 967 q 1547 971 1547 967 q 1554 981 1547 975 q 1582 1006 1571 997 q 1602 1026 1593 1015 q 1618 1058 1611 1038 q 1617 1079 1622 1069 q 1596 1089 1611 1089 q 1571 1081 1586 1089 q 1540 1064 1556 1072 q 1539 1063 1539 1064 q 1538 1063 1539 1063 q 1535 1069 1535 1063 q 1540 1078 1536 1075 q 1578 1107 1560 1096 q 1626 1118 1597 1118 q 1662 1102 1654 1118 q 1663 1064 1669 1086 q 1630 1026 1653 1039 q 1564 981 1607 1013 q 1556 972 1558 976 q 1549 967 1553 967 z "},"Ẵ":{"ha":1292,"x_min":33,"x_max":1694,"o":"m 344 -151 q 125 -76 213 -151 q 33 135 33 6 q 118 339 33 254 q 324 424 206 424 q 472 375 408 424 q 542 240 542 324 q 488 111 542 160 q 354 67 435 67 q 283 79 300 67 l 282 82 q 290 88 286 88 q 291 88 290 88 q 293 86 292 88 q 315 81 300 82 q 349 79 329 79 q 469 124 425 79 q 514 243 514 167 q 463 364 514 318 q 338 408 411 408 q 150 335 224 408 q 78 147 78 263 q 158 -50 78 22 q 364 -119 236 -119 q 943 290 639 -119 q 1311 681 1178 604 l 1019 779 q 958 794 989 790 q 894 799 926 799 q 696 742 786 799 q 594 572 594 675 q 617 481 594 525 q 797 382 664 382 q 818 382 808 382 q 838 383 828 382 q 947 439 899 392 q 1001 547 1001 492 q 967 610 1001 589 q 965 614 965 611 q 968 617 965 617 q 970 616 969 617 q 972 615 971 615 l 976 615 q 1021 539 1021 592 q 972 431 1021 482 q 867 371 928 386 q 786 361 829 361 q 621 422 689 361 q 551 585 551 488 q 650 779 551 706 q 863 847 739 847 q 878 847 871 847 q 893 846 886 847 q 1256 733 1058 832 q 1288 717 1269 728 q 1332 692 1307 707 q 1490 742 1397 742 q 1528 738 1510 742 q 1561 726 1547 735 q 1600 668 1600 706 q 1531 604 1600 604 q 1484 611 1510 604 q 1449 624 1458 618 q 1419 579 1435 603 q 1388 528 1404 556 q 1308 350 1365 490 q 1262 253 1286 294 q 1210 181 1238 211 q 951 1 1097 58 q 959 2 954 1 q 972 3 964 3 l 993 3 q 1047 0 1022 3 q 1092 -7 1071 -3 q 1188 -28 1174 -28 q 1213 -7 1213 -28 q 1210 7 1213 1 q 1208 16 1208 13 q 1208 21 1208 19 q 1209 23 1208 22 q 1210 24 1210 24 q 1213 22 1211 24 q 1225 -11 1225 10 q 1154 -64 1225 -64 q 1124 -61 1140 -64 q 1088 -50 1107 -58 l 1025 -25 q 974 -12 1000 -14 q 919 -10 947 -10 l 918 -6 q 1069 132 1000 53 q 1188 300 1119 188 q 1204 328 1192 307 l 994 328 q 849 135 917 217 q 724 6 781 54 q 344 -151 546 -151 m 1507 615 q 1578 667 1578 615 q 1553 714 1578 697 q 1499 731 1531 731 q 1343 686 1413 731 q 1388 665 1365 676 q 1432 642 1410 653 l 1492 703 q 1494 700 1494 703 q 1454 631 1494 692 q 1507 615 1481 615 m 1006 343 l 1214 343 q 1422 635 1301 488 l 1325 675 q 1247 615 1290 653 q 1153 524 1203 578 q 1006 343 1067 429 m 1483 818 q 1403 837 1433 818 q 1374 907 1374 856 q 1375 919 1374 914 q 1383 931 1376 925 q 1399 932 1399 943 q 1406 895 1399 913 q 1435 867 1413 878 q 1504 857 1458 857 q 1577 871 1532 857 q 1653 919 1622 885 q 1662 930 1660 926 q 1671 933 1664 933 q 1672 929 1672 933 q 1664 915 1672 926 q 1589 849 1638 881 q 1483 818 1540 818 m 1392 971 q 1390 981 1389 971 q 1412 1031 1397 1008 q 1457 1054 1426 1054 q 1522 1043 1489 1054 q 1584 1021 1554 1032 q 1636 1010 1614 1010 q 1669 1022 1660 1010 q 1683 1047 1679 1035 q 1692 1058 1688 1058 q 1694 1053 1694 1058 q 1692 1044 1693 1047 q 1663 992 1685 1014 q 1622 971 1642 971 q 1572 982 1601 971 q 1512 1004 1543 993 q 1449 1015 1481 1015 q 1415 1004 1425 1015 q 1400 982 1404 993 q 1392 971 1396 971 z "},"Ǎ":{"ha":1292,"x_min":33,"x_max":1675,"o":"m 1379 936 q 1430 911 1390 936 q 1515 856 1469 886 q 1568 887 1538 869 q 1626 917 1599 904 q 1665 933 1653 931 q 1674 932 1675 936 q 1657 919 1674 931 q 1620 896 1640 908 q 1588 875 1600 883 q 1535 838 1557 854 q 1503 819 1513 822 q 1492 819 1497 818 q 1468 836 1486 822 q 1419 875 1450 850 q 1399 896 1411 883 q 1377 919 1386 908 q 1368 932 1368 931 q 1379 936 1371 936 m 344 -151 q 125 -76 213 -151 q 33 135 33 6 q 118 339 33 254 q 324 424 206 424 q 472 375 408 424 q 542 240 542 324 q 488 111 542 160 q 354 67 435 67 q 283 79 300 67 l 282 82 q 290 88 286 88 q 291 88 290 88 q 293 86 292 88 q 315 81 300 82 q 349 79 329 79 q 469 124 425 79 q 514 243 514 167 q 463 364 514 318 q 338 408 411 408 q 150 335 224 408 q 78 147 78 263 q 158 -50 78 22 q 364 -119 236 -119 q 943 290 639 -119 q 1311 681 1178 604 l 1019 779 q 958 794 989 790 q 894 799 926 799 q 696 742 786 799 q 594 572 594 675 q 617 481 594 525 q 797 382 664 382 q 818 382 808 382 q 838 383 828 382 q 947 439 899 392 q 1001 547 1001 492 q 967 610 1001 589 q 965 614 965 611 q 968 617 965 617 q 970 616 969 617 q 972 615 971 615 l 976 615 q 1021 539 1021 592 q 972 431 1021 482 q 867 371 928 386 q 786 361 829 361 q 621 422 689 361 q 551 585 551 488 q 650 779 551 706 q 863 847 739 847 q 878 847 871 847 q 893 846 886 847 q 1256 733 1058 832 q 1288 717 1269 728 q 1332 692 1307 707 q 1490 742 1397 742 q 1528 738 1510 742 q 1561 726 1547 735 q 1600 668 1600 706 q 1531 604 1600 604 q 1484 611 1510 604 q 1449 624 1458 618 q 1419 579 1435 603 q 1388 528 1404 556 q 1308 350 1365 490 q 1262 253 1286 294 q 1210 181 1238 211 q 951 1 1097 58 q 959 2 954 1 q 972 3 964 3 l 993 3 q 1047 0 1022 3 q 1092 -7 1071 -3 q 1188 -28 1174 -28 q 1213 -7 1213 -28 q 1210 7 1213 1 q 1208 16 1208 13 q 1208 21 1208 19 q 1209 23 1208 22 q 1210 24 1210 24 q 1213 22 1211 24 q 1225 -11 1225 10 q 1154 -64 1225 -64 q 1124 -61 1140 -64 q 1088 -50 1107 -58 l 1025 -25 q 974 -12 1000 -14 q 919 -10 947 -10 l 918 -6 q 1069 132 1000 53 q 1188 300 1119 188 q 1204 328 1192 307 l 994 328 q 849 135 917 217 q 724 6 781 54 q 344 -151 546 -151 m 1507 615 q 1578 667 1578 615 q 1553 714 1578 697 q 1499 731 1531 731 q 1343 686 1413 731 q 1388 665 1365 676 q 1432 642 1410 653 l 1492 703 q 1494 700 1494 703 q 1454 631 1494 692 q 1507 615 1481 615 m 1006 343 l 1214 343 q 1422 635 1301 488 l 1325 675 q 1247 615 1290 653 q 1153 524 1203 578 q 1006 343 1067 429 z "},"Â":{"ha":1292,"x_min":33,"x_max":1658,"o":"m 344 -151 q 125 -76 213 -151 q 33 135 33 6 q 118 339 33 254 q 324 424 206 424 q 472 375 408 424 q 542 240 542 324 q 488 111 542 160 q 354 67 435 67 q 283 79 300 67 l 282 82 q 290 88 286 88 q 291 88 290 88 q 293 86 292 88 q 315 81 300 82 q 349 79 329 79 q 469 124 425 79 q 514 243 514 167 q 463 364 514 318 q 338 408 411 408 q 150 335 224 408 q 78 147 78 263 q 158 -50 78 22 q 364 -119 236 -119 q 943 290 639 -119 q 1311 681 1178 604 l 1019 779 q 958 794 989 790 q 894 799 926 799 q 696 742 786 799 q 594 572 594 675 q 617 481 594 525 q 797 382 664 382 q 818 382 808 382 q 838 383 828 382 q 947 439 899 392 q 1001 547 1001 492 q 967 610 1001 589 q 965 614 965 611 q 968 617 965 617 q 970 616 969 617 q 972 615 971 615 l 976 615 q 1021 539 1021 592 q 972 431 1021 482 q 867 371 928 386 q 786 361 829 361 q 621 422 689 361 q 551 585 551 488 q 650 779 551 706 q 863 847 739 847 q 878 847 871 847 q 893 846 886 847 q 1256 733 1058 832 q 1288 717 1269 728 q 1332 692 1307 707 q 1490 742 1397 742 q 1528 738 1510 742 q 1561 726 1547 735 q 1600 668 1600 706 q 1531 604 1600 604 q 1484 611 1510 604 q 1449 624 1458 618 q 1419 579 1435 603 q 1388 528 1404 556 q 1308 350 1365 490 q 1262 253 1286 294 q 1210 181 1238 211 q 951 1 1097 58 q 959 2 954 1 q 972 3 964 3 l 993 3 q 1047 0 1022 3 q 1092 -7 1071 -3 q 1188 -28 1174 -28 q 1213 -7 1213 -28 q 1210 7 1213 1 q 1208 16 1208 13 q 1208 21 1208 19 q 1209 23 1208 22 q 1210 24 1210 24 q 1213 22 1211 24 q 1225 -11 1225 10 q 1154 -64 1225 -64 q 1124 -61 1140 -64 q 1088 -50 1107 -58 l 1025 -25 q 974 -12 1000 -14 q 919 -10 947 -10 l 918 -6 q 1069 132 1000 53 q 1188 300 1119 188 q 1204 328 1192 307 l 994 328 q 849 135 917 217 q 724 6 781 54 q 344 -151 546 -151 m 1507 615 q 1578 667 1578 615 q 1553 714 1578 697 q 1499 731 1531 731 q 1343 686 1413 731 q 1388 665 1365 676 q 1432 642 1410 653 l 1492 703 q 1494 700 1494 703 q 1454 631 1494 692 q 1507 615 1481 615 m 1006 343 l 1214 343 q 1422 635 1301 488 l 1325 675 q 1247 615 1290 653 q 1153 524 1203 578 q 1006 343 1067 429 m 1646 819 q 1596 844 1636 819 q 1510 900 1556 869 q 1457 869 1488 886 q 1399 838 1426 851 q 1360 822 1372 825 q 1351 824 1350 819 q 1369 837 1353 826 q 1405 860 1385 847 q 1438 881 1425 872 q 1491 918 1469 901 q 1522 936 1513 935 q 1533 936 1528 938 q 1558 920 1540 935 q 1606 881 1575 906 q 1627 860 1615 874 q 1649 837 1639 847 q 1657 824 1658 826 q 1646 819 1656 819 z "},"Ấ":{"ha":1292,"x_min":33,"x_max":1883,"o":"m 344 -151 q 125 -76 213 -151 q 33 135 33 6 q 118 339 33 254 q 324 424 206 424 q 472 375 408 424 q 542 240 542 324 q 488 111 542 160 q 354 67 435 67 q 283 79 300 67 l 282 82 q 290 88 286 88 q 291 88 290 88 q 293 86 292 88 q 315 81 300 82 q 349 79 329 79 q 469 124 425 79 q 514 243 514 167 q 463 364 514 318 q 338 408 411 408 q 150 335 224 408 q 78 147 78 263 q 158 -50 78 22 q 364 -119 236 -119 q 943 290 639 -119 q 1311 681 1178 604 l 1019 779 q 958 794 989 790 q 894 799 926 799 q 696 742 786 799 q 594 572 594 675 q 617 481 594 525 q 797 382 664 382 q 818 382 808 382 q 838 383 828 382 q 947 439 899 392 q 1001 547 1001 492 q 967 610 1001 589 q 965 614 965 611 q 968 617 965 617 q 970 616 969 617 q 972 615 971 615 l 976 615 q 1021 539 1021 592 q 972 431 1021 482 q 867 371 928 386 q 786 361 829 361 q 621 422 689 361 q 551 585 551 488 q 650 779 551 706 q 863 847 739 847 q 878 847 871 847 q 893 846 886 847 q 1256 733 1058 832 q 1288 717 1269 728 q 1332 692 1307 707 q 1490 742 1397 742 q 1528 738 1510 742 q 1561 726 1547 735 q 1600 668 1600 706 q 1531 604 1600 604 q 1484 611 1510 604 q 1449 624 1458 618 q 1419 579 1435 603 q 1388 528 1404 556 q 1308 350 1365 490 q 1262 253 1286 294 q 1210 181 1238 211 q 951 1 1097 58 q 959 2 954 1 q 972 3 964 3 l 993 3 q 1047 0 1022 3 q 1092 -7 1071 -3 q 1188 -28 1174 -28 q 1213 -7 1213 -28 q 1210 7 1213 1 q 1208 16 1208 13 q 1208 21 1208 19 q 1209 23 1208 22 q 1210 24 1210 24 q 1213 22 1211 24 q 1225 -11 1225 10 q 1154 -64 1225 -64 q 1124 -61 1140 -64 q 1088 -50 1107 -58 l 1025 -25 q 974 -12 1000 -14 q 919 -10 947 -10 l 918 -6 q 1069 132 1000 53 q 1188 300 1119 188 q 1204 328 1192 307 l 994 328 q 849 135 917 217 q 724 6 781 54 q 344 -151 546 -151 m 1507 615 q 1578 667 1578 615 q 1553 714 1578 697 q 1499 731 1531 731 q 1343 686 1413 731 q 1388 665 1365 676 q 1432 642 1410 653 l 1492 703 q 1494 700 1494 703 q 1454 631 1494 692 q 1507 615 1481 615 m 1006 343 l 1214 343 q 1422 635 1301 488 l 1325 675 q 1247 615 1290 653 q 1153 524 1203 578 q 1006 343 1067 429 m 1646 819 q 1596 844 1636 819 q 1510 900 1556 869 q 1457 869 1488 886 q 1399 838 1426 851 q 1360 822 1372 825 q 1351 824 1350 819 q 1369 837 1353 826 q 1405 860 1385 847 q 1438 881 1425 872 q 1491 918 1469 901 q 1522 936 1513 935 q 1533 936 1528 938 q 1558 920 1540 935 q 1606 881 1575 906 q 1627 860 1615 874 q 1649 837 1639 847 q 1657 824 1658 826 q 1646 819 1656 819 m 1661 911 q 1676 926 1661 914 q 1711 951 1692 938 q 1742 972 1731 965 q 1817 1023 1783 1000 q 1858 1046 1850 1046 q 1875 1034 1867 1046 q 1876 1018 1883 1022 q 1832 993 1868 1013 q 1752 952 1796 974 q 1675 914 1708 931 q 1661 911 1661 907 z "},"Ậ":{"ha":1292,"x_min":33,"x_max":1658,"o":"m 344 -151 q 125 -76 213 -151 q 33 135 33 6 q 118 339 33 254 q 324 424 206 424 q 472 375 408 424 q 542 240 542 324 q 488 111 542 160 q 354 67 435 67 q 283 79 300 67 l 282 82 q 290 88 286 88 q 291 88 290 88 q 293 86 292 88 q 315 81 300 82 q 349 79 329 79 q 469 124 425 79 q 514 243 514 167 q 463 364 514 318 q 338 408 411 408 q 150 335 224 408 q 78 147 78 263 q 158 -50 78 22 q 364 -119 236 -119 q 943 290 639 -119 q 1311 681 1178 604 l 1019 779 q 958 794 989 790 q 894 799 926 799 q 696 742 786 799 q 594 572 594 675 q 617 481 594 525 q 797 382 664 382 q 818 382 808 382 q 838 383 828 382 q 947 439 899 392 q 1001 547 1001 492 q 967 610 1001 589 q 965 614 965 611 q 968 617 965 617 q 970 616 969 617 q 972 615 971 615 l 976 615 q 1021 539 1021 592 q 972 431 1021 482 q 867 371 928 386 q 786 361 829 361 q 621 422 689 361 q 551 585 551 488 q 650 779 551 706 q 863 847 739 847 q 878 847 871 847 q 893 846 886 847 q 1256 733 1058 832 q 1288 717 1269 728 q 1332 692 1307 707 q 1490 742 1397 742 q 1528 738 1510 742 q 1561 726 1547 735 q 1600 668 1600 706 q 1531 604 1600 604 q 1484 611 1510 604 q 1449 624 1458 618 q 1419 579 1435 603 q 1388 528 1404 556 q 1308 350 1365 490 q 1262 253 1286 294 q 1210 181 1238 211 q 951 1 1097 58 q 959 2 954 1 q 972 3 964 3 l 993 3 q 1047 0 1022 3 q 1092 -7 1071 -3 q 1188 -28 1174 -28 q 1213 -7 1213 -28 q 1210 7 1213 1 q 1208 16 1208 13 q 1208 21 1208 19 q 1209 23 1208 22 q 1210 24 1210 24 q 1213 22 1211 24 q 1225 -11 1225 10 q 1154 -64 1225 -64 q 1124 -61 1140 -64 q 1088 -50 1107 -58 l 1025 -25 q 974 -12 1000 -14 q 919 -10 947 -10 l 918 -6 q 1069 132 1000 53 q 1188 300 1119 188 q 1204 328 1192 307 l 994 328 q 849 135 917 217 q 724 6 781 54 q 344 -151 546 -151 m 1507 615 q 1578 667 1578 615 q 1553 714 1578 697 q 1499 731 1531 731 q 1343 686 1413 731 q 1388 665 1365 676 q 1432 642 1410 653 l 1492 703 q 1494 700 1494 703 q 1454 631 1494 692 q 1507 615 1481 615 m 1006 343 l 1214 343 q 1422 635 1301 488 l 1325 675 q 1247 615 1290 653 q 1153 524 1203 578 q 1006 343 1067 429 m 789 -171 q 757 -142 757 -171 q 769 -112 757 -125 q 799 -99 782 -99 q 831 -128 831 -99 q 817 -158 831 -144 q 789 -171 804 -171 m 1646 819 q 1596 844 1636 819 q 1510 900 1556 869 q 1457 869 1488 886 q 1399 838 1426 851 q 1360 822 1372 825 q 1351 824 1350 819 q 1369 837 1353 826 q 1405 860 1385 847 q 1438 881 1425 872 q 1491 918 1469 901 q 1522 936 1513 935 q 1533 936 1528 938 q 1558 920 1540 935 q 1606 881 1575 906 q 1627 860 1615 874 q 1649 837 1639 847 q 1657 824 1658 826 q 1646 819 1656 819 z "},"Ầ":{"ha":1292,"x_min":33,"x_max":1658,"o":"m 344 -151 q 125 -76 213 -151 q 33 135 33 6 q 118 339 33 254 q 324 424 206 424 q 472 375 408 424 q 542 240 542 324 q 488 111 542 160 q 354 67 435 67 q 283 79 300 67 l 282 82 q 290 88 286 88 q 291 88 290 88 q 293 86 292 88 q 315 81 300 82 q 349 79 329 79 q 469 124 425 79 q 514 243 514 167 q 463 364 514 318 q 338 408 411 408 q 150 335 224 408 q 78 147 78 263 q 158 -50 78 22 q 364 -119 236 -119 q 943 290 639 -119 q 1311 681 1178 604 l 1019 779 q 958 794 989 790 q 894 799 926 799 q 696 742 786 799 q 594 572 594 675 q 617 481 594 525 q 797 382 664 382 q 818 382 808 382 q 838 383 828 382 q 947 439 899 392 q 1001 547 1001 492 q 967 610 1001 589 q 965 614 965 611 q 968 617 965 617 q 970 616 969 617 q 972 615 971 615 l 976 615 q 1021 539 1021 592 q 972 431 1021 482 q 867 371 928 386 q 786 361 829 361 q 621 422 689 361 q 551 585 551 488 q 650 779 551 706 q 863 847 739 847 q 878 847 871 847 q 893 846 886 847 q 1256 733 1058 832 q 1288 717 1269 728 q 1332 692 1307 707 q 1490 742 1397 742 q 1528 738 1510 742 q 1561 726 1547 735 q 1600 668 1600 706 q 1531 604 1600 604 q 1484 611 1510 604 q 1449 624 1458 618 q 1419 579 1435 603 q 1388 528 1404 556 q 1308 350 1365 490 q 1262 253 1286 294 q 1210 181 1238 211 q 951 1 1097 58 q 959 2 954 1 q 972 3 964 3 l 993 3 q 1047 0 1022 3 q 1092 -7 1071 -3 q 1188 -28 1174 -28 q 1213 -7 1213 -28 q 1210 7 1213 1 q 1208 16 1208 13 q 1208 21 1208 19 q 1209 23 1208 22 q 1210 24 1210 24 q 1213 22 1211 24 q 1225 -11 1225 10 q 1154 -64 1225 -64 q 1124 -61 1140 -64 q 1088 -50 1107 -58 l 1025 -25 q 974 -12 1000 -14 q 919 -10 947 -10 l 918 -6 q 1069 132 1000 53 q 1188 300 1119 188 q 1204 328 1192 307 l 994 328 q 849 135 917 217 q 724 6 781 54 q 344 -151 546 -151 m 1507 615 q 1578 667 1578 615 q 1553 714 1578 697 q 1499 731 1531 731 q 1343 686 1413 731 q 1388 665 1365 676 q 1432 642 1410 653 l 1492 703 q 1494 700 1494 703 q 1454 631 1494 692 q 1507 615 1481 615 m 1006 343 l 1214 343 q 1422 635 1301 488 l 1325 675 q 1247 615 1290 653 q 1153 524 1203 578 q 1006 343 1067 429 m 1646 819 q 1596 844 1636 819 q 1510 900 1556 869 q 1457 869 1488 886 q 1399 838 1426 851 q 1360 822 1372 825 q 1351 824 1350 819 q 1369 837 1353 826 q 1405 860 1385 847 q 1438 881 1425 872 q 1491 918 1469 901 q 1522 936 1513 935 q 1533 936 1528 938 q 1558 920 1540 935 q 1606 881 1575 906 q 1627 860 1615 874 q 1649 837 1639 847 q 1657 824 1658 826 q 1646 819 1656 819 m 1658 958 q 1644 961 1658 954 q 1567 999 1611 978 q 1488 1040 1524 1021 q 1443 1065 1453 1060 q 1445 1081 1438 1069 q 1461 1093 1453 1093 q 1503 1070 1469 1093 q 1578 1019 1536 1047 q 1608 999 1589 1013 q 1643 973 1628 985 q 1658 958 1658 961 z "},"Ẩ":{"ha":1292,"x_min":33,"x_max":1754,"o":"m 344 -151 q 125 -76 213 -151 q 33 135 33 6 q 118 339 33 254 q 324 424 206 424 q 472 375 408 424 q 542 240 542 324 q 488 111 542 160 q 354 67 435 67 q 283 79 300 67 l 282 82 q 290 88 286 88 q 291 88 290 88 q 293 86 292 88 q 315 81 300 82 q 349 79 329 79 q 469 124 425 79 q 514 243 514 167 q 463 364 514 318 q 338 408 411 408 q 150 335 224 408 q 78 147 78 263 q 158 -50 78 22 q 364 -119 236 -119 q 943 290 639 -119 q 1311 681 1178 604 l 1019 779 q 958 794 989 790 q 894 799 926 799 q 696 742 786 799 q 594 572 594 675 q 617 481 594 525 q 797 382 664 382 q 818 382 808 382 q 838 383 828 382 q 947 439 899 392 q 1001 547 1001 492 q 967 610 1001 589 q 965 614 965 611 q 968 617 965 617 q 970 616 969 617 q 972 615 971 615 l 976 615 q 1021 539 1021 592 q 972 431 1021 482 q 867 371 928 386 q 786 361 829 361 q 621 422 689 361 q 551 585 551 488 q 650 779 551 706 q 863 847 739 847 q 878 847 871 847 q 893 846 886 847 q 1256 733 1058 832 q 1288 717 1269 728 q 1332 692 1307 707 q 1490 742 1397 742 q 1528 738 1510 742 q 1561 726 1547 735 q 1600 668 1600 706 q 1531 604 1600 604 q 1484 611 1510 604 q 1449 624 1458 618 q 1419 579 1435 603 q 1388 528 1404 556 q 1308 350 1365 490 q 1262 253 1286 294 q 1210 181 1238 211 q 951 1 1097 58 q 959 2 954 1 q 972 3 964 3 l 993 3 q 1047 0 1022 3 q 1092 -7 1071 -3 q 1188 -28 1174 -28 q 1213 -7 1213 -28 q 1210 7 1213 1 q 1208 16 1208 13 q 1208 21 1208 19 q 1209 23 1208 22 q 1210 24 1210 24 q 1213 22 1211 24 q 1225 -11 1225 10 q 1154 -64 1225 -64 q 1124 -61 1140 -64 q 1088 -50 1107 -58 l 1025 -25 q 974 -12 1000 -14 q 919 -10 947 -10 l 918 -6 q 1069 132 1000 53 q 1188 300 1119 188 q 1204 328 1192 307 l 994 328 q 849 135 917 217 q 724 6 781 54 q 344 -151 546 -151 m 1507 615 q 1578 667 1578 615 q 1553 714 1578 697 q 1499 731 1531 731 q 1343 686 1413 731 q 1388 665 1365 676 q 1432 642 1410 653 l 1492 703 q 1494 700 1494 703 q 1454 631 1494 692 q 1507 615 1481 615 m 1006 343 l 1214 343 q 1422 635 1301 488 l 1325 675 q 1247 615 1290 653 q 1153 524 1203 578 q 1006 343 1067 429 m 1646 819 q 1596 844 1636 819 q 1510 900 1556 869 q 1457 869 1488 886 q 1399 838 1426 851 q 1360 822 1372 825 q 1351 824 1350 819 q 1369 837 1353 826 q 1405 860 1385 847 q 1438 881 1425 872 q 1491 918 1469 901 q 1522 936 1513 935 q 1533 936 1528 938 q 1558 920 1540 935 q 1606 881 1575 906 q 1627 860 1615 874 q 1649 837 1639 847 q 1657 824 1658 826 q 1646 819 1656 819 m 1633 904 q 1632 908 1632 904 q 1639 918 1632 913 q 1667 944 1656 935 q 1687 964 1678 953 q 1703 996 1696 975 q 1701 1017 1707 1007 q 1681 1026 1696 1026 q 1656 1018 1671 1026 q 1625 1001 1640 1010 q 1624 1001 1624 1001 q 1622 1000 1624 1000 q 1620 1006 1619 1000 q 1625 1015 1621 1013 q 1663 1044 1644 1033 q 1711 1056 1682 1056 q 1747 1040 1739 1056 q 1747 1001 1754 1024 q 1715 963 1738 976 q 1649 918 1692 950 q 1640 909 1643 914 q 1633 904 1638 904 z "},"Ẫ":{"ha":1292,"x_min":33,"x_max":1722,"o":"m 344 -151 q 125 -76 213 -151 q 33 135 33 6 q 118 339 33 254 q 324 424 206 424 q 472 375 408 424 q 542 240 542 324 q 488 111 542 160 q 354 67 435 67 q 283 79 300 67 l 282 82 q 290 88 286 88 q 291 88 290 88 q 293 86 292 88 q 315 81 300 82 q 349 79 329 79 q 469 124 425 79 q 514 243 514 167 q 463 364 514 318 q 338 408 411 408 q 150 335 224 408 q 78 147 78 263 q 158 -50 78 22 q 364 -119 236 -119 q 943 290 639 -119 q 1311 681 1178 604 l 1019 779 q 958 794 989 790 q 894 799 926 799 q 696 742 786 799 q 594 572 594 675 q 617 481 594 525 q 797 382 664 382 q 818 382 808 382 q 838 383 828 382 q 947 439 899 392 q 1001 547 1001 492 q 967 610 1001 589 q 965 614 965 611 q 968 617 965 617 q 970 616 969 617 q 972 615 971 615 l 976 615 q 1021 539 1021 592 q 972 431 1021 482 q 867 371 928 386 q 786 361 829 361 q 621 422 689 361 q 551 585 551 488 q 650 779 551 706 q 863 847 739 847 q 878 847 871 847 q 893 846 886 847 q 1256 733 1058 832 q 1288 717 1269 728 q 1332 692 1307 707 q 1490 742 1397 742 q 1528 738 1510 742 q 1561 726 1547 735 q 1600 668 1600 706 q 1531 604 1600 604 q 1484 611 1510 604 q 1449 624 1458 618 q 1419 579 1435 603 q 1388 528 1404 556 q 1308 350 1365 490 q 1262 253 1286 294 q 1210 181 1238 211 q 951 1 1097 58 q 959 2 954 1 q 972 3 964 3 l 993 3 q 1047 0 1022 3 q 1092 -7 1071 -3 q 1188 -28 1174 -28 q 1213 -7 1213 -28 q 1210 7 1213 1 q 1208 16 1208 13 q 1208 21 1208 19 q 1209 23 1208 22 q 1210 24 1210 24 q 1213 22 1211 24 q 1225 -11 1225 10 q 1154 -64 1225 -64 q 1124 -61 1140 -64 q 1088 -50 1107 -58 l 1025 -25 q 974 -12 1000 -14 q 919 -10 947 -10 l 918 -6 q 1069 132 1000 53 q 1188 300 1119 188 q 1204 328 1192 307 l 994 328 q 849 135 917 217 q 724 6 781 54 q 344 -151 546 -151 m 1507 615 q 1578 667 1578 615 q 1553 714 1578 697 q 1499 731 1531 731 q 1343 686 1413 731 q 1388 665 1365 676 q 1432 642 1410 653 l 1492 703 q 1494 700 1494 703 q 1454 631 1494 692 q 1507 615 1481 615 m 1006 343 l 1214 343 q 1422 635 1301 488 l 1325 675 q 1247 615 1290 653 q 1153 524 1203 578 q 1006 343 1067 429 m 1646 819 q 1596 844 1636 819 q 1510 900 1556 869 q 1457 869 1488 886 q 1399 838 1426 851 q 1360 822 1372 825 q 1351 824 1350 819 q 1369 837 1353 826 q 1405 860 1385 847 q 1438 881 1425 872 q 1491 918 1469 901 q 1522 936 1513 935 q 1533 936 1528 938 q 1558 920 1540 935 q 1606 881 1575 906 q 1627 860 1615 874 q 1649 837 1639 847 q 1657 824 1658 826 q 1646 819 1656 819 m 1419 969 q 1418 979 1417 969 q 1440 1030 1425 1007 q 1485 1053 1454 1053 q 1549 1042 1517 1053 q 1612 1019 1582 1031 q 1664 1008 1642 1008 q 1697 1021 1688 1008 q 1711 1045 1707 1033 q 1719 1057 1715 1057 q 1722 1051 1722 1057 q 1719 1043 1721 1046 q 1691 991 1713 1013 q 1650 969 1669 969 q 1600 981 1629 969 q 1540 1003 1571 992 q 1476 1014 1508 1014 q 1442 1003 1453 1014 q 1428 981 1432 992 q 1419 969 1424 969 z "},"Ȁ":{"ha":1292,"x_min":33,"x_max":1600,"o":"m 1558 824 q 1544 829 1557 819 q 1478 874 1514 849 q 1413 919 1442 899 q 1378 946 1385 939 q 1381 962 1372 951 q 1399 971 1390 972 q 1435 944 1407 969 q 1486 896 1463 918 q 1513 870 1496 886 q 1544 840 1531 854 q 1558 824 1558 826 m 1464 828 q 1450 831 1464 824 q 1378 866 1417 847 q 1308 901 1339 885 q 1268 924 1278 918 q 1270 940 1263 928 q 1286 951 1278 951 q 1326 930 1294 951 q 1383 889 1357 908 q 1413 868 1394 882 q 1448 842 1432 854 q 1464 828 1464 831 m 344 -151 q 125 -76 213 -151 q 33 135 33 6 q 118 339 33 254 q 324 424 206 424 q 472 375 408 424 q 542 240 542 324 q 488 111 542 160 q 354 67 435 67 q 283 79 300 67 l 282 82 q 290 88 286 88 q 291 88 290 88 q 293 86 292 88 q 315 81 300 82 q 349 79 329 79 q 469 124 425 79 q 514 243 514 167 q 463 364 514 318 q 338 408 411 408 q 150 335 224 408 q 78 147 78 263 q 158 -50 78 22 q 364 -119 236 -119 q 943 290 639 -119 q 1311 681 1178 604 l 1019 779 q 958 794 989 790 q 894 799 926 799 q 696 742 786 799 q 594 572 594 675 q 617 481 594 525 q 797 382 664 382 q 818 382 808 382 q 838 383 828 382 q 947 439 899 392 q 1001 547 1001 492 q 967 610 1001 589 q 965 614 965 611 q 968 617 965 617 q 970 616 969 617 q 972 615 971 615 l 976 615 q 1021 539 1021 592 q 972 431 1021 482 q 867 371 928 386 q 786 361 829 361 q 621 422 689 361 q 551 585 551 488 q 650 779 551 706 q 863 847 739 847 q 878 847 871 847 q 893 846 886 847 q 1256 733 1058 832 q 1288 717 1269 728 q 1332 692 1307 707 q 1490 742 1397 742 q 1528 738 1510 742 q 1561 726 1547 735 q 1600 668 1600 706 q 1531 604 1600 604 q 1484 611 1510 604 q 1449 624 1458 618 q 1419 579 1435 603 q 1388 528 1404 556 q 1308 350 1365 490 q 1262 253 1286 294 q 1210 181 1238 211 q 951 1 1097 58 q 959 2 954 1 q 972 3 964 3 l 993 3 q 1047 0 1022 3 q 1092 -7 1071 -3 q 1188 -28 1174 -28 q 1213 -7 1213 -28 q 1210 7 1213 1 q 1208 16 1208 13 q 1208 21 1208 19 q 1209 23 1208 22 q 1210 24 1210 24 q 1213 22 1211 24 q 1225 -11 1225 10 q 1154 -64 1225 -64 q 1124 -61 1140 -64 q 1088 -50 1107 -58 l 1025 -25 q 974 -12 1000 -14 q 919 -10 947 -10 l 918 -6 q 1069 132 1000 53 q 1188 300 1119 188 q 1204 328 1192 307 l 994 328 q 849 135 917 217 q 724 6 781 54 q 344 -151 546 -151 m 1507 615 q 1578 667 1578 615 q 1553 714 1578 697 q 1499 731 1531 731 q 1343 686 1413 731 q 1388 665 1365 676 q 1432 642 1410 653 l 1492 703 q 1494 700 1494 703 q 1454 631 1494 692 q 1507 615 1481 615 m 1006 343 l 1214 343 q 1422 635 1301 488 l 1325 675 q 1247 615 1290 653 q 1153 524 1203 578 q 1006 343 1067 429 z "},"Ä":{"ha":1292,"x_min":33,"x_max":1600,"o":"m 344 -151 q 125 -76 213 -151 q 33 135 33 6 q 118 339 33 254 q 324 424 206 424 q 472 375 408 424 q 542 240 542 324 q 488 111 542 160 q 354 67 435 67 q 283 79 300 67 l 282 82 q 290 88 286 88 q 291 88 290 88 q 293 86 292 88 q 315 81 300 82 q 349 79 329 79 q 469 124 425 79 q 514 243 514 167 q 463 364 514 318 q 338 408 411 408 q 150 335 224 408 q 78 147 78 263 q 158 -50 78 22 q 364 -119 236 -119 q 943 290 639 -119 q 1311 681 1178 604 l 1019 779 q 958 794 989 790 q 894 799 926 799 q 696 742 786 799 q 594 572 594 675 q 617 481 594 525 q 797 382 664 382 q 818 382 808 382 q 838 383 828 382 q 947 439 899 392 q 1001 547 1001 492 q 967 610 1001 589 q 965 614 965 611 q 968 617 965 617 q 970 616 969 617 q 972 615 971 615 l 976 615 q 1021 539 1021 592 q 972 431 1021 482 q 867 371 928 386 q 786 361 829 361 q 621 422 689 361 q 551 585 551 488 q 650 779 551 706 q 863 847 739 847 q 878 847 871 847 q 893 846 886 847 q 1256 733 1058 832 q 1288 717 1269 728 q 1332 692 1307 707 q 1490 742 1397 742 q 1528 738 1510 742 q 1561 726 1547 735 q 1600 668 1600 706 q 1531 604 1600 604 q 1484 611 1510 604 q 1449 624 1458 618 q 1419 579 1435 603 q 1388 528 1404 556 q 1308 350 1365 490 q 1262 253 1286 294 q 1210 181 1238 211 q 951 1 1097 58 q 959 2 954 1 q 972 3 964 3 l 993 3 q 1047 0 1022 3 q 1092 -7 1071 -3 q 1188 -28 1174 -28 q 1213 -7 1213 -28 q 1210 7 1213 1 q 1208 16 1208 13 q 1208 21 1208 19 q 1209 23 1208 22 q 1210 24 1210 24 q 1213 22 1211 24 q 1225 -11 1225 10 q 1154 -64 1225 -64 q 1124 -61 1140 -64 q 1088 -50 1107 -58 l 1025 -25 q 974 -12 1000 -14 q 919 -10 947 -10 l 918 -6 q 1069 132 1000 53 q 1188 300 1119 188 q 1204 328 1192 307 l 994 328 q 849 135 917 217 q 724 6 781 54 q 344 -151 546 -151 m 1507 615 q 1578 667 1578 615 q 1553 714 1578 697 q 1499 731 1531 731 q 1343 686 1413 731 q 1388 665 1365 676 q 1432 642 1410 653 l 1492 703 q 1494 700 1494 703 q 1454 631 1494 692 q 1507 615 1481 615 m 1006 343 l 1214 343 q 1422 635 1301 488 l 1325 675 q 1247 615 1290 653 q 1153 524 1203 578 q 1006 343 1067 429 m 1556 824 q 1522 854 1522 824 q 1535 885 1522 872 q 1567 899 1549 899 q 1600 868 1600 899 q 1585 837 1600 850 q 1556 824 1571 824 m 1406 824 q 1372 854 1372 824 q 1385 885 1372 872 q 1417 899 1399 899 q 1450 868 1450 899 q 1435 837 1450 850 q 1406 824 1421 824 z "},"Ạ":{"ha":1292,"x_min":33,"x_max":1600,"o":"m 344 -151 q 125 -76 213 -151 q 33 135 33 6 q 118 339 33 254 q 324 424 206 424 q 472 375 408 424 q 542 240 542 324 q 488 111 542 160 q 354 67 435 67 q 283 79 300 67 l 282 82 q 290 88 286 88 q 291 88 290 88 q 293 86 292 88 q 315 81 300 82 q 349 79 329 79 q 469 124 425 79 q 514 243 514 167 q 463 364 514 318 q 338 408 411 408 q 150 335 224 408 q 78 147 78 263 q 158 -50 78 22 q 364 -119 236 -119 q 943 290 639 -119 q 1311 681 1178 604 l 1019 779 q 958 794 989 790 q 894 799 926 799 q 696 742 786 799 q 594 572 594 675 q 617 481 594 525 q 797 382 664 382 q 818 382 808 382 q 838 383 828 382 q 947 439 899 392 q 1001 547 1001 492 q 967 610 1001 589 q 965 614 965 611 q 968 617 965 617 q 970 616 969 617 q 972 615 971 615 l 976 615 q 1021 539 1021 592 q 972 431 1021 482 q 867 371 928 386 q 786 361 829 361 q 621 422 689 361 q 551 585 551 488 q 650 779 551 706 q 863 847 739 847 q 878 847 871 847 q 893 846 886 847 q 1256 733 1058 832 q 1288 717 1269 728 q 1332 692 1307 707 q 1490 742 1397 742 q 1528 738 1510 742 q 1561 726 1547 735 q 1600 668 1600 706 q 1531 604 1600 604 q 1484 611 1510 604 q 1449 624 1458 618 q 1419 579 1435 603 q 1388 528 1404 556 q 1308 350 1365 490 q 1262 253 1286 294 q 1210 181 1238 211 q 951 1 1097 58 q 959 2 954 1 q 972 3 964 3 l 993 3 q 1047 0 1022 3 q 1092 -7 1071 -3 q 1188 -28 1174 -28 q 1213 -7 1213 -28 q 1210 7 1213 1 q 1208 16 1208 13 q 1208 21 1208 19 q 1209 23 1208 22 q 1210 24 1210 24 q 1213 22 1211 24 q 1225 -11 1225 10 q 1154 -64 1225 -64 q 1124 -61 1140 -64 q 1088 -50 1107 -58 l 1025 -25 q 974 -12 1000 -14 q 919 -10 947 -10 l 918 -6 q 1069 132 1000 53 q 1188 300 1119 188 q 1204 328 1192 307 l 994 328 q 849 135 917 217 q 724 6 781 54 q 344 -151 546 -151 m 1507 615 q 1578 667 1578 615 q 1553 714 1578 697 q 1499 731 1531 731 q 1343 686 1413 731 q 1388 665 1365 676 q 1432 642 1410 653 l 1492 703 q 1494 700 1494 703 q 1454 631 1494 692 q 1507 615 1481 615 m 1006 343 l 1214 343 q 1422 635 1301 488 l 1325 675 q 1247 615 1290 653 q 1153 524 1203 578 q 1006 343 1067 429 m 789 -171 q 757 -142 757 -171 q 769 -112 757 -125 q 799 -99 782 -99 q 831 -128 831 -99 q 817 -158 831 -144 q 789 -171 804 -171 z "},"À":{"ha":1292,"x_min":33,"x_max":1600,"o":"m 344 -151 q 125 -76 213 -151 q 33 135 33 6 q 118 339 33 254 q 324 424 206 424 q 472 375 408 424 q 542 240 542 324 q 488 111 542 160 q 354 67 435 67 q 283 79 300 67 l 282 82 q 290 88 286 88 q 291 88 290 88 q 293 86 292 88 q 315 81 300 82 q 349 79 329 79 q 469 124 425 79 q 514 243 514 167 q 463 364 514 318 q 338 408 411 408 q 150 335 224 408 q 78 147 78 263 q 158 -50 78 22 q 364 -119 236 -119 q 943 290 639 -119 q 1311 681 1178 604 l 1019 779 q 958 794 989 790 q 894 799 926 799 q 696 742 786 799 q 594 572 594 675 q 617 481 594 525 q 797 382 664 382 q 818 382 808 382 q 838 383 828 382 q 947 439 899 392 q 1001 547 1001 492 q 967 610 1001 589 q 965 614 965 611 q 968 617 965 617 q 970 616 969 617 q 972 615 971 615 l 976 615 q 1021 539 1021 592 q 972 431 1021 482 q 867 371 928 386 q 786 361 829 361 q 621 422 689 361 q 551 585 551 488 q 650 779 551 706 q 863 847 739 847 q 878 847 871 847 q 893 846 886 847 q 1256 733 1058 832 q 1288 717 1269 728 q 1332 692 1307 707 q 1490 742 1397 742 q 1528 738 1510 742 q 1561 726 1547 735 q 1600 668 1600 706 q 1531 604 1600 604 q 1484 611 1510 604 q 1449 624 1458 618 q 1419 579 1435 603 q 1388 528 1404 556 q 1308 350 1365 490 q 1262 253 1286 294 q 1210 181 1238 211 q 951 1 1097 58 q 959 2 954 1 q 972 3 964 3 l 993 3 q 1047 0 1022 3 q 1092 -7 1071 -3 q 1188 -28 1174 -28 q 1213 -7 1213 -28 q 1210 7 1213 1 q 1208 16 1208 13 q 1208 21 1208 19 q 1209 23 1208 22 q 1210 24 1210 24 q 1213 22 1211 24 q 1225 -11 1225 10 q 1154 -64 1225 -64 q 1124 -61 1140 -64 q 1088 -50 1107 -58 l 1025 -25 q 974 -12 1000 -14 q 919 -10 947 -10 l 918 -6 q 1069 132 1000 53 q 1188 300 1119 188 q 1204 328 1192 307 l 994 328 q 849 135 917 217 q 724 6 781 54 q 344 -151 546 -151 m 1507 615 q 1578 667 1578 615 q 1553 714 1578 697 q 1499 731 1531 731 q 1343 686 1413 731 q 1388 665 1365 676 q 1432 642 1410 653 l 1492 703 q 1494 700 1494 703 q 1454 631 1494 692 q 1507 615 1481 615 m 1006 343 l 1214 343 q 1422 635 1301 488 l 1325 675 q 1247 615 1290 653 q 1153 524 1203 578 q 1006 343 1067 429 m 1550 828 q 1536 831 1550 824 q 1459 869 1503 847 q 1380 910 1415 890 q 1335 935 1344 929 q 1337 951 1329 939 q 1353 963 1344 963 q 1394 940 1361 963 q 1469 889 1428 917 q 1500 868 1481 882 q 1535 842 1519 854 q 1550 828 1550 831 z "},"Ả":{"ha":1292,"x_min":33,"x_max":1622,"o":"m 344 -151 q 125 -76 213 -151 q 33 135 33 6 q 118 339 33 254 q 324 424 206 424 q 472 375 408 424 q 542 240 542 324 q 488 111 542 160 q 354 67 435 67 q 283 79 300 67 l 282 82 q 290 88 286 88 q 291 88 290 88 q 293 86 292 88 q 315 81 300 82 q 349 79 329 79 q 469 124 425 79 q 514 243 514 167 q 463 364 514 318 q 338 408 411 408 q 150 335 224 408 q 78 147 78 263 q 158 -50 78 22 q 364 -119 236 -119 q 943 290 639 -119 q 1311 681 1178 604 l 1019 779 q 958 794 989 790 q 894 799 926 799 q 696 742 786 799 q 594 572 594 675 q 617 481 594 525 q 797 382 664 382 q 818 382 808 382 q 838 383 828 382 q 947 439 899 392 q 1001 547 1001 492 q 967 610 1001 589 q 965 614 965 611 q 968 617 965 617 q 970 616 969 617 q 972 615 971 615 l 976 615 q 1021 539 1021 592 q 972 431 1021 482 q 867 371 928 386 q 786 361 829 361 q 621 422 689 361 q 551 585 551 488 q 650 779 551 706 q 863 847 739 847 q 878 847 871 847 q 893 846 886 847 q 1256 733 1058 832 q 1288 717 1269 728 q 1332 692 1307 707 q 1490 742 1397 742 q 1528 738 1510 742 q 1561 726 1547 735 q 1600 668 1600 706 q 1531 604 1600 604 q 1484 611 1510 604 q 1449 624 1458 618 q 1419 579 1435 603 q 1388 528 1404 556 q 1308 350 1365 490 q 1262 253 1286 294 q 1210 181 1238 211 q 951 1 1097 58 q 959 2 954 1 q 972 3 964 3 l 993 3 q 1047 0 1022 3 q 1092 -7 1071 -3 q 1188 -28 1174 -28 q 1213 -7 1213 -28 q 1210 7 1213 1 q 1208 16 1208 13 q 1208 21 1208 19 q 1209 23 1208 22 q 1210 24 1210 24 q 1213 22 1211 24 q 1225 -11 1225 10 q 1154 -64 1225 -64 q 1124 -61 1140 -64 q 1088 -50 1107 -58 l 1025 -25 q 974 -12 1000 -14 q 919 -10 947 -10 l 918 -6 q 1069 132 1000 53 q 1188 300 1119 188 q 1204 328 1192 307 l 994 328 q 849 135 917 217 q 724 6 781 54 q 344 -151 546 -151 m 1507 615 q 1578 667 1578 615 q 1553 714 1578 697 q 1499 731 1531 731 q 1343 686 1413 731 q 1388 665 1365 676 q 1432 642 1410 653 l 1492 703 q 1494 700 1494 703 q 1454 631 1494 692 q 1507 615 1481 615 m 1006 343 l 1214 343 q 1422 635 1301 488 l 1325 675 q 1247 615 1290 653 q 1153 524 1203 578 q 1006 343 1067 429 m 1501 819 q 1500 824 1500 819 q 1507 833 1500 828 q 1535 859 1524 850 q 1555 879 1546 868 q 1571 911 1564 890 q 1569 932 1575 922 q 1549 942 1564 942 q 1524 933 1539 942 q 1493 917 1508 925 q 1492 916 1492 917 q 1490 915 1492 915 q 1488 922 1488 915 q 1493 931 1489 928 q 1531 960 1513 949 q 1579 971 1550 971 q 1615 955 1607 971 q 1615 917 1622 939 q 1583 878 1606 892 q 1517 833 1560 865 q 1508 824 1511 829 q 1501 819 1506 819 z "},"Ȃ":{"ha":1292,"x_min":33,"x_max":1642,"o":"m 1554 942 q 1615 922 1588 942 q 1642 863 1642 901 q 1640 842 1642 847 q 1632 829 1639 836 q 1617 828 1617 817 q 1602 878 1617 854 q 1536 903 1588 903 q 1471 896 1503 903 q 1401 840 1439 889 q 1392 828 1394 831 q 1385 826 1389 826 q 1382 832 1379 826 q 1385 837 1383 835 q 1390 844 1386 839 q 1420 880 1399 857 q 1475 922 1442 903 q 1554 942 1508 942 m 344 -151 q 125 -76 213 -151 q 33 135 33 6 q 118 339 33 254 q 324 424 206 424 q 472 375 408 424 q 542 240 542 324 q 488 111 542 160 q 354 67 435 67 q 283 79 300 67 l 282 82 q 290 88 286 88 q 291 88 290 88 q 293 86 292 88 q 315 81 300 82 q 349 79 329 79 q 469 124 425 79 q 514 243 514 167 q 463 364 514 318 q 338 408 411 408 q 150 335 224 408 q 78 147 78 263 q 158 -50 78 22 q 364 -119 236 -119 q 943 290 639 -119 q 1311 681 1178 604 l 1019 779 q 958 794 989 790 q 894 799 926 799 q 696 742 786 799 q 594 572 594 675 q 617 481 594 525 q 797 382 664 382 q 818 382 808 382 q 838 383 828 382 q 947 439 899 392 q 1001 547 1001 492 q 967 610 1001 589 q 965 614 965 611 q 968 617 965 617 q 970 616 969 617 q 972 615 971 615 l 976 615 q 1021 539 1021 592 q 972 431 1021 482 q 867 371 928 386 q 786 361 829 361 q 621 422 689 361 q 551 585 551 488 q 650 779 551 706 q 863 847 739 847 q 878 847 871 847 q 893 846 886 847 q 1256 733 1058 832 q 1288 717 1269 728 q 1332 692 1307 707 q 1490 742 1397 742 q 1528 738 1510 742 q 1561 726 1547 735 q 1600 668 1600 706 q 1531 604 1600 604 q 1484 611 1510 604 q 1449 624 1458 618 q 1419 579 1435 603 q 1388 528 1404 556 q 1308 350 1365 490 q 1262 253 1286 294 q 1210 181 1238 211 q 951 1 1097 58 q 959 2 954 1 q 972 3 964 3 l 993 3 q 1047 0 1022 3 q 1092 -7 1071 -3 q 1188 -28 1174 -28 q 1213 -7 1213 -28 q 1210 7 1213 1 q 1208 16 1208 13 q 1208 21 1208 19 q 1209 23 1208 22 q 1210 24 1210 24 q 1213 22 1211 24 q 1225 -11 1225 10 q 1154 -64 1225 -64 q 1124 -61 1140 -64 q 1088 -50 1107 -58 l 1025 -25 q 974 -12 1000 -14 q 919 -10 947 -10 l 918 -6 q 1069 132 1000 53 q 1188 300 1119 188 q 1204 328 1192 307 l 994 328 q 849 135 917 217 q 724 6 781 54 q 344 -151 546 -151 m 1507 615 q 1578 667 1578 615 q 1553 714 1578 697 q 1499 731 1531 731 q 1343 686 1413 731 q 1388 665 1365 676 q 1432 642 1410 653 l 1492 703 q 1494 700 1494 703 q 1454 631 1494 692 q 1507 615 1481 615 m 1006 343 l 1214 343 q 1422 635 1301 488 l 1325 675 q 1247 615 1290 653 q 1153 524 1203 578 q 1006 343 1067 429 z "},"Ā":{"ha":1292,"x_min":33,"x_max":1656,"o":"m 344 -151 q 125 -76 213 -151 q 33 135 33 6 q 118 339 33 254 q 324 424 206 424 q 472 375 408 424 q 542 240 542 324 q 488 111 542 160 q 354 67 435 67 q 283 79 300 67 l 282 82 q 290 88 286 88 q 291 88 290 88 q 293 86 292 88 q 315 81 300 82 q 349 79 329 79 q 469 124 425 79 q 514 243 514 167 q 463 364 514 318 q 338 408 411 408 q 150 335 224 408 q 78 147 78 263 q 158 -50 78 22 q 364 -119 236 -119 q 943 290 639 -119 q 1311 681 1178 604 l 1019 779 q 958 794 989 790 q 894 799 926 799 q 696 742 786 799 q 594 572 594 675 q 617 481 594 525 q 797 382 664 382 q 818 382 808 382 q 838 383 828 382 q 947 439 899 392 q 1001 547 1001 492 q 967 610 1001 589 q 965 614 965 611 q 968 617 965 617 q 970 616 969 617 q 972 615 971 615 l 976 615 q 1021 539 1021 592 q 972 431 1021 482 q 867 371 928 386 q 786 361 829 361 q 621 422 689 361 q 551 585 551 488 q 650 779 551 706 q 863 847 739 847 q 878 847 871 847 q 893 846 886 847 q 1256 733 1058 832 q 1288 717 1269 728 q 1332 692 1307 707 q 1490 742 1397 742 q 1528 738 1510 742 q 1561 726 1547 735 q 1600 668 1600 706 q 1531 604 1600 604 q 1484 611 1510 604 q 1449 624 1458 618 q 1419 579 1435 603 q 1388 528 1404 556 q 1308 350 1365 490 q 1262 253 1286 294 q 1210 181 1238 211 q 951 1 1097 58 q 959 2 954 1 q 972 3 964 3 l 993 3 q 1047 0 1022 3 q 1092 -7 1071 -3 q 1188 -28 1174 -28 q 1213 -7 1213 -28 q 1210 7 1213 1 q 1208 16 1208 13 q 1208 21 1208 19 q 1209 23 1208 22 q 1210 24 1210 24 q 1213 22 1211 24 q 1225 -11 1225 10 q 1154 -64 1225 -64 q 1124 -61 1140 -64 q 1088 -50 1107 -58 l 1025 -25 q 974 -12 1000 -14 q 919 -10 947 -10 l 918 -6 q 1069 132 1000 53 q 1188 300 1119 188 q 1204 328 1192 307 l 994 328 q 849 135 917 217 q 724 6 781 54 q 344 -151 546 -151 m 1507 615 q 1578 667 1578 615 q 1553 714 1578 697 q 1499 731 1531 731 q 1343 686 1413 731 q 1388 665 1365 676 q 1432 642 1410 653 l 1492 703 q 1494 700 1494 703 q 1454 631 1494 692 q 1507 615 1481 615 m 1006 343 l 1214 343 q 1422 635 1301 488 l 1325 675 q 1247 615 1290 653 q 1153 524 1203 578 q 1006 343 1067 429 m 1351 825 q 1347 831 1347 825 q 1355 846 1347 838 q 1372 854 1363 854 l 1653 854 q 1656 850 1656 854 q 1651 833 1656 842 q 1635 825 1646 825 l 1351 825 z "},"Ą":{"ha":1292,"x_min":33,"x_max":1600,"o":"m 344 -151 q 125 -76 213 -151 q 33 135 33 6 q 118 339 33 254 q 324 424 206 424 q 472 375 408 424 q 542 240 542 324 q 488 111 542 160 q 354 67 435 67 q 283 79 300 67 l 282 82 q 290 88 286 88 q 291 88 290 88 q 293 86 292 88 q 315 81 300 82 q 349 79 329 79 q 469 124 425 79 q 514 243 514 167 q 463 364 514 318 q 338 408 411 408 q 150 335 224 408 q 78 147 78 263 q 158 -50 78 22 q 364 -119 236 -119 q 943 290 639 -119 q 1311 681 1178 604 l 1019 779 q 958 794 989 790 q 894 799 926 799 q 696 742 786 799 q 594 572 594 675 q 617 481 594 525 q 797 382 664 382 q 818 382 808 382 q 838 383 828 382 q 947 439 899 392 q 1001 547 1001 492 q 967 610 1001 589 q 965 614 965 611 q 968 617 965 617 q 970 616 969 617 q 972 615 971 615 l 976 615 q 1021 539 1021 592 q 972 431 1021 482 q 867 371 928 386 q 786 361 829 361 q 621 422 689 361 q 551 585 551 488 q 650 779 551 706 q 863 847 739 847 q 878 847 871 847 q 893 846 886 847 q 1256 733 1058 832 q 1288 717 1269 728 q 1332 692 1307 707 q 1490 742 1397 742 q 1528 738 1510 742 q 1561 726 1547 735 q 1600 668 1600 706 q 1531 604 1600 604 q 1484 611 1510 604 q 1449 624 1458 618 q 1419 579 1435 603 q 1388 528 1404 556 q 1308 350 1365 490 q 1262 253 1286 294 q 1210 181 1238 211 q 951 1 1097 58 q 959 2 954 1 q 972 3 964 3 l 993 3 q 1047 0 1022 3 q 1092 -7 1071 -3 q 1188 -28 1174 -28 q 1213 -7 1213 -28 q 1210 7 1213 1 q 1208 16 1208 13 q 1208 21 1208 19 q 1209 23 1208 22 q 1210 24 1210 24 q 1213 22 1211 24 q 1225 -11 1225 10 q 1154 -64 1225 -64 q 1124 -61 1140 -64 q 1088 -50 1107 -58 l 1025 -25 q 974 -12 1000 -14 q 919 -10 947 -10 l 918 -6 q 1069 132 1000 53 q 1188 300 1119 188 q 1204 328 1192 307 l 994 328 q 849 135 917 217 q 724 6 781 54 q 344 -151 546 -151 m 1507 615 q 1578 667 1578 615 q 1553 714 1578 697 q 1499 731 1531 731 q 1343 686 1413 731 q 1388 665 1365 676 q 1432 642 1410 653 l 1492 703 q 1494 700 1494 703 q 1454 631 1494 692 q 1507 615 1481 615 m 1006 343 l 1214 343 q 1422 635 1301 488 l 1325 675 q 1247 615 1290 653 q 1153 524 1203 578 q 1006 343 1067 429 m 1047 -244 q 992 -228 1014 -244 q 971 -182 971 -212 q 997 -117 971 -154 q 1064 -43 1024 -79 q 1074 -35 1068 -40 q 1085 -31 1081 -31 q 1092 -31 1088 -31 q 1096 -33 1096 -31 q 1047 -100 1067 -61 q 1026 -171 1026 -139 q 1039 -203 1026 -194 q 1069 -212 1051 -212 q 1113 -204 1090 -212 q 1147 -186 1135 -196 q 1156 -182 1151 -182 q 1163 -192 1163 -182 q 1151 -208 1163 -201 q 1098 -235 1125 -226 q 1047 -244 1071 -244 z "},"Å":{"ha":1292,"x_min":33,"x_max":1600,"o":"m 344 -151 q 125 -76 213 -151 q 33 135 33 6 q 118 339 33 254 q 324 424 206 424 q 472 375 408 424 q 542 240 542 324 q 488 111 542 160 q 354 67 435 67 q 283 79 300 67 l 282 82 q 290 88 286 88 q 291 88 290 88 q 293 86 292 88 q 315 81 300 82 q 349 79 329 79 q 469 124 425 79 q 514 243 514 167 q 463 364 514 318 q 338 408 411 408 q 150 335 224 408 q 78 147 78 263 q 158 -50 78 22 q 364 -119 236 -119 q 943 290 639 -119 q 1311 681 1178 604 l 1019 779 q 958 794 989 790 q 894 799 926 799 q 696 742 786 799 q 594 572 594 675 q 617 481 594 525 q 797 382 664 382 q 818 382 808 382 q 838 383 828 382 q 947 439 899 392 q 1001 547 1001 492 q 967 610 1001 589 q 965 614 965 611 q 968 617 965 617 q 970 616 969 617 q 972 615 971 615 l 976 615 q 1021 539 1021 592 q 972 431 1021 482 q 867 371 928 386 q 786 361 829 361 q 621 422 689 361 q 551 585 551 488 q 650 779 551 706 q 863 847 739 847 q 878 847 871 847 q 893 846 886 847 q 1256 733 1058 832 q 1288 717 1269 728 q 1332 692 1307 707 q 1490 742 1397 742 q 1528 738 1510 742 q 1561 726 1547 735 q 1600 668 1600 706 q 1531 604 1600 604 q 1484 611 1510 604 q 1449 624 1458 618 q 1419 579 1435 603 q 1388 528 1404 556 q 1308 350 1365 490 q 1262 253 1286 294 q 1210 181 1238 211 q 951 1 1097 58 q 959 2 954 1 q 972 3 964 3 l 993 3 q 1047 0 1022 3 q 1092 -7 1071 -3 q 1188 -28 1174 -28 q 1213 -7 1213 -28 q 1210 7 1213 1 q 1208 16 1208 13 q 1208 21 1208 19 q 1209 23 1208 22 q 1210 24 1210 24 q 1213 22 1211 24 q 1225 -11 1225 10 q 1154 -64 1225 -64 q 1124 -61 1140 -64 q 1088 -50 1107 -58 l 1025 -25 q 974 -12 1000 -14 q 919 -10 947 -10 l 918 -6 q 1069 132 1000 53 q 1188 300 1119 188 q 1204 328 1192 307 l 994 328 q 849 135 917 217 q 724 6 781 54 q 344 -151 546 -151 m 1507 615 q 1578 667 1578 615 q 1553 714 1578 697 q 1499 731 1531 731 q 1343 686 1413 731 q 1388 665 1365 676 q 1432 642 1410 653 l 1492 703 q 1494 700 1494 703 q 1454 631 1494 692 q 1507 615 1481 615 m 1006 343 l 1214 343 q 1422 635 1301 488 l 1325 675 q 1247 615 1290 653 q 1153 524 1203 578 q 1006 343 1067 429 m 1456 824 q 1406 836 1425 824 q 1386 876 1386 849 q 1421 940 1386 917 q 1494 964 1456 964 q 1545 951 1526 964 q 1564 911 1564 939 q 1531 847 1564 869 q 1456 824 1499 824 m 1456 832 q 1502 858 1479 832 q 1525 911 1525 883 q 1517 940 1525 926 q 1492 953 1508 953 q 1447 928 1469 953 q 1424 875 1424 903 q 1432 845 1424 858 q 1456 832 1440 832 z "},"Ǻ":{"ha":1292,"x_min":33,"x_max":1636,"o":"m 344 -151 q 125 -76 213 -151 q 33 135 33 6 q 118 339 33 254 q 324 424 206 424 q 472 375 408 424 q 542 240 542 324 q 488 111 542 160 q 354 67 435 67 q 283 79 300 67 l 282 82 q 290 88 286 88 q 291 88 290 88 q 293 86 292 88 q 315 81 300 82 q 349 79 329 79 q 469 124 425 79 q 514 243 514 167 q 463 364 514 318 q 338 408 411 408 q 150 335 224 408 q 78 147 78 263 q 158 -50 78 22 q 364 -119 236 -119 q 943 290 639 -119 q 1311 681 1178 604 l 1019 779 q 958 794 989 790 q 894 799 926 799 q 696 742 786 799 q 594 572 594 675 q 617 481 594 525 q 797 382 664 382 q 818 382 808 382 q 838 383 828 382 q 947 439 899 392 q 1001 547 1001 492 q 967 610 1001 589 q 965 614 965 611 q 968 617 965 617 q 970 616 969 617 q 972 615 971 615 l 976 615 q 1021 539 1021 592 q 972 431 1021 482 q 867 371 928 386 q 786 361 829 361 q 621 422 689 361 q 551 585 551 488 q 650 779 551 706 q 863 847 739 847 q 878 847 871 847 q 893 846 886 847 q 1256 733 1058 832 q 1288 717 1269 728 q 1332 692 1307 707 q 1490 742 1397 742 q 1528 738 1510 742 q 1561 726 1547 735 q 1600 668 1600 706 q 1531 604 1600 604 q 1484 611 1510 604 q 1449 624 1458 618 q 1419 579 1435 603 q 1388 528 1404 556 q 1308 350 1365 490 q 1262 253 1286 294 q 1210 181 1238 211 q 951 1 1097 58 q 959 2 954 1 q 972 3 964 3 l 993 3 q 1047 0 1022 3 q 1092 -7 1071 -3 q 1188 -28 1174 -28 q 1213 -7 1213 -28 q 1210 7 1213 1 q 1208 16 1208 13 q 1208 21 1208 19 q 1209 23 1208 22 q 1210 24 1210 24 q 1213 22 1211 24 q 1225 -11 1225 10 q 1154 -64 1225 -64 q 1124 -61 1140 -64 q 1088 -50 1107 -58 l 1025 -25 q 974 -12 1000 -14 q 919 -10 947 -10 l 918 -6 q 1069 132 1000 53 q 1188 300 1119 188 q 1204 328 1192 307 l 994 328 q 849 135 917 217 q 724 6 781 54 q 344 -151 546 -151 m 1507 615 q 1578 667 1578 615 q 1553 714 1578 697 q 1499 731 1531 731 q 1343 686 1413 731 q 1388 665 1365 676 q 1432 642 1410 653 l 1492 703 q 1494 700 1494 703 q 1454 631 1494 692 q 1507 615 1481 615 m 1006 343 l 1214 343 q 1422 635 1301 488 l 1325 675 q 1247 615 1290 653 q 1153 524 1203 578 q 1006 343 1067 429 m 1456 824 q 1406 836 1425 824 q 1386 876 1386 849 q 1421 940 1386 917 q 1494 964 1456 964 q 1545 951 1526 964 q 1564 911 1564 939 q 1531 847 1564 869 q 1456 824 1499 824 m 1456 832 q 1502 858 1479 832 q 1525 911 1525 883 q 1517 940 1525 926 q 1492 953 1508 953 q 1447 928 1469 953 q 1424 875 1424 903 q 1432 845 1424 858 q 1456 832 1440 832 m 1414 1010 q 1429 1024 1414 1013 q 1464 1050 1444 1036 q 1494 1071 1483 1064 q 1569 1122 1536 1099 q 1611 1144 1603 1144 q 1628 1133 1619 1144 q 1629 1117 1636 1121 q 1585 1092 1621 1111 q 1505 1051 1549 1072 q 1428 1013 1461 1029 q 1414 1010 1414 1006 z "},"Ã":{"ha":1292,"x_min":33,"x_max":1647,"o":"m 344 -151 q 125 -76 213 -151 q 33 135 33 6 q 118 339 33 254 q 324 424 206 424 q 472 375 408 424 q 542 240 542 324 q 488 111 542 160 q 354 67 435 67 q 283 79 300 67 l 282 82 q 290 88 286 88 q 291 88 290 88 q 293 86 292 88 q 315 81 300 82 q 349 79 329 79 q 469 124 425 79 q 514 243 514 167 q 463 364 514 318 q 338 408 411 408 q 150 335 224 408 q 78 147 78 263 q 158 -50 78 22 q 364 -119 236 -119 q 943 290 639 -119 q 1311 681 1178 604 l 1019 779 q 958 794 989 790 q 894 799 926 799 q 696 742 786 799 q 594 572 594 675 q 617 481 594 525 q 797 382 664 382 q 818 382 808 382 q 838 383 828 382 q 947 439 899 392 q 1001 547 1001 492 q 967 610 1001 589 q 965 614 965 611 q 968 617 965 617 q 970 616 969 617 q 972 615 971 615 l 976 615 q 1021 539 1021 592 q 972 431 1021 482 q 867 371 928 386 q 786 361 829 361 q 621 422 689 361 q 551 585 551 488 q 650 779 551 706 q 863 847 739 847 q 878 847 871 847 q 893 846 886 847 q 1256 733 1058 832 q 1288 717 1269 728 q 1332 692 1307 707 q 1490 742 1397 742 q 1528 738 1510 742 q 1561 726 1547 735 q 1600 668 1600 706 q 1531 604 1600 604 q 1484 611 1510 604 q 1449 624 1458 618 q 1419 579 1435 603 q 1388 528 1404 556 q 1308 350 1365 490 q 1262 253 1286 294 q 1210 181 1238 211 q 951 1 1097 58 q 959 2 954 1 q 972 3 964 3 l 993 3 q 1047 0 1022 3 q 1092 -7 1071 -3 q 1188 -28 1174 -28 q 1213 -7 1213 -28 q 1210 7 1213 1 q 1208 16 1208 13 q 1208 21 1208 19 q 1209 23 1208 22 q 1210 24 1210 24 q 1213 22 1211 24 q 1225 -11 1225 10 q 1154 -64 1225 -64 q 1124 -61 1140 -64 q 1088 -50 1107 -58 l 1025 -25 q 974 -12 1000 -14 q 919 -10 947 -10 l 918 -6 q 1069 132 1000 53 q 1188 300 1119 188 q 1204 328 1192 307 l 994 328 q 849 135 917 217 q 724 6 781 54 q 344 -151 546 -151 m 1507 615 q 1578 667 1578 615 q 1553 714 1578 697 q 1499 731 1531 731 q 1343 686 1413 731 q 1388 665 1365 676 q 1432 642 1410 653 l 1492 703 q 1494 700 1494 703 q 1454 631 1494 692 q 1507 615 1481 615 m 1006 343 l 1214 343 q 1422 635 1301 488 l 1325 675 q 1247 615 1290 653 q 1153 524 1203 578 q 1006 343 1067 429 m 1344 824 q 1343 833 1342 824 q 1365 884 1350 861 q 1410 907 1379 907 q 1474 896 1442 907 q 1537 874 1507 885 q 1589 863 1567 863 q 1622 875 1613 863 q 1636 899 1632 888 q 1644 911 1640 911 q 1647 906 1647 911 q 1644 897 1646 900 q 1616 845 1638 867 q 1575 824 1594 824 q 1525 835 1554 824 q 1465 857 1496 846 q 1401 868 1433 868 q 1367 857 1378 868 q 1353 835 1357 846 q 1344 824 1349 824 z "},"B":{"ha":1093,"x_min":111,"x_max":1118,"o":"m 218 -39 q 111 21 111 -39 q 200 88 111 88 q 399 39 242 88 q 473 117 436 71 q 543 228 510 164 q 596 335 571 281 q 647 444 621 390 q 918 792 765 688 q 820 811 875 804 q 700 818 765 818 q 564 806 628 818 q 443 771 500 794 q 243 608 308 717 q 203 474 203 540 q 247 356 203 403 q 363 307 292 307 q 503 364 442 307 q 564 500 564 422 q 535 589 564 554 q 450 625 504 625 q 378 600 410 625 q 346 531 346 572 q 382 497 346 497 q 386 501 385 497 q 393 506 390 506 q 396 501 396 504 q 381 488 396 488 q 333 532 333 488 q 374 610 333 576 q 457 642 413 642 q 554 603 517 642 q 593 504 593 564 q 521 350 593 413 q 360 292 453 292 q 217 343 272 292 q 157 481 157 399 q 186 594 157 539 q 411 783 250 721 q 711 835 543 835 q 943 807 843 835 q 1028 845 988 832 q 1107 858 1068 858 q 1118 856 1118 858 q 1114 851 1118 851 q 1099 851 1108 851 q 1079 849 1090 850 q 960 801 1018 843 q 1106 642 1106 754 q 1103 617 1106 629 q 1099 594 1101 606 q 965 479 1082 524 q 778 442 882 450 l 821 442 q 1067 274 1067 442 q 993 104 1067 178 q 829 8 929 40 q 744 -12 789 -6 q 653 -18 700 -18 q 535 -8 596 -18 q 413 22 475 1 q 218 -39 301 -39 m 717 446 q 1038 596 1011 474 q 1043 649 1043 622 q 939 785 1043 746 q 717 446 818 683 m 603 1 q 857 69 746 1 q 992 279 992 149 q 763 436 992 436 q 736 435 749 436 q 713 433 724 435 q 604 207 644 274 q 426 31 535 96 q 603 1 522 1 m 228 -28 q 388 29 311 -28 q 283 60 328 50 q 210 69 238 69 q 125 19 125 69 q 228 -28 125 -28 z "},"C":{"ha":774,"x_min":57,"x_max":965,"o":"m 363 -67 q 139 17 221 -67 q 57 243 57 101 q 243 649 57 467 q 172 782 172 710 q 328 913 172 913 q 406 901 368 913 q 481 865 444 889 l 482 864 q 484 860 485 863 q 483 856 483 858 q 481 851 483 851 q 472 856 479 851 q 346 893 410 893 q 244 864 285 893 q 199 772 199 833 q 257 660 199 714 q 711 828 438 828 q 869 801 803 828 q 965 690 965 767 q 889 589 965 632 q 831 560 863 572 q 763 542 799 549 q 628 529 700 529 q 301 608 438 529 q 144 226 144 432 q 196 38 144 114 q 363 -51 254 -51 q 701 147 569 -51 q 746 271 746 215 q 713 350 746 319 q 632 382 681 382 q 544 354 585 382 q 485 282 503 328 q 475 271 481 271 q 469 278 469 271 q 470 281 469 279 q 471 285 471 283 q 538 365 489 336 q 639 394 583 394 q 739 358 699 394 q 776 263 776 321 q 736 135 776 196 q 574 -11 681 46 q 363 -67 471 -67 m 594 547 q 696 556 646 547 q 796 578 746 564 q 935 700 935 622 q 722 811 935 811 q 313 619 496 811 q 594 547 438 547 z "},"Ć":{"ha":774,"x_min":57,"x_max":965,"o":"m 363 -67 q 139 17 221 -67 q 57 243 57 101 q 243 649 57 467 q 172 782 172 710 q 328 913 172 913 q 406 901 368 913 q 481 865 444 889 l 482 864 q 484 860 485 863 q 483 856 483 858 q 481 851 483 851 q 472 856 479 851 q 346 893 410 893 q 244 864 285 893 q 199 772 199 833 q 257 660 199 714 q 711 828 438 828 q 869 801 803 828 q 965 690 965 767 q 889 589 965 632 q 831 560 863 572 q 763 542 799 549 q 628 529 700 529 q 301 608 438 529 q 144 226 144 432 q 196 38 144 114 q 363 -51 254 -51 q 701 147 569 -51 q 746 271 746 215 q 713 350 746 319 q 632 382 681 382 q 544 354 585 382 q 485 282 503 328 q 475 271 481 271 q 469 278 469 271 q 470 281 469 279 q 471 285 471 283 q 538 365 489 336 q 639 394 583 394 q 739 358 699 394 q 776 263 776 321 q 736 135 776 196 q 574 -11 681 46 q 363 -67 471 -67 m 594 547 q 696 556 646 547 q 796 578 746 564 q 935 700 935 622 q 722 811 935 811 q 313 619 496 811 q 594 547 438 547 m 631 915 q 646 930 631 918 q 681 956 661 942 q 711 976 700 969 q 786 1027 753 1004 q 828 1050 819 1050 q 844 1038 836 1050 q 846 1022 853 1026 q 801 997 838 1017 q 722 956 765 978 q 644 918 678 935 q 631 915 631 911 z "},"Č":{"ha":774,"x_min":57,"x_max":965,"o":"m 615 1024 q 666 999 626 1024 q 751 943 706 974 q 804 974 774 957 q 862 1005 835 992 q 901 1021 889 1018 q 910 1019 911 1024 q 893 1007 910 1018 q 856 983 876 996 q 824 963 836 971 q 771 926 793 942 q 739 907 749 910 q 728 907 733 906 q 704 924 722 910 q 656 963 686 938 q 635 983 647 971 q 613 1007 622 996 q 604 1019 604 1018 q 615 1024 607 1024 m 363 -67 q 139 17 221 -67 q 57 243 57 101 q 243 649 57 467 q 172 782 172 710 q 328 913 172 913 q 406 901 368 913 q 481 865 444 889 l 482 864 q 484 860 485 863 q 483 856 483 858 q 481 851 483 851 q 472 856 479 851 q 346 893 410 893 q 244 864 285 893 q 199 772 199 833 q 257 660 199 714 q 711 828 438 828 q 869 801 803 828 q 965 690 965 767 q 889 589 965 632 q 831 560 863 572 q 763 542 799 549 q 628 529 700 529 q 301 608 438 529 q 144 226 144 432 q 196 38 144 114 q 363 -51 254 -51 q 701 147 569 -51 q 746 271 746 215 q 713 350 746 319 q 632 382 681 382 q 544 354 585 382 q 485 282 503 328 q 475 271 481 271 q 469 278 469 271 q 470 281 469 279 q 471 285 471 283 q 538 365 489 336 q 639 394 583 394 q 739 358 699 394 q 776 263 776 321 q 736 135 776 196 q 574 -11 681 46 q 363 -67 471 -67 m 594 547 q 696 556 646 547 q 796 578 746 564 q 935 700 935 622 q 722 811 935 811 q 313 619 496 811 q 594 547 438 547 z "},"Ç":{"ha":774,"x_min":57,"x_max":965,"o":"m 363 -67 q 139 17 221 -67 q 57 243 57 101 q 243 649 57 467 q 172 782 172 710 q 328 913 172 913 q 406 901 368 913 q 481 865 444 889 l 482 864 q 484 860 485 863 q 483 856 483 858 q 481 851 483 851 q 472 856 479 851 q 346 893 410 893 q 244 864 285 893 q 199 772 199 833 q 257 660 199 714 q 711 828 438 828 q 869 801 803 828 q 965 690 965 767 q 889 589 965 632 q 831 560 863 572 q 763 542 799 549 q 628 529 700 529 q 301 608 438 529 q 144 226 144 432 q 196 38 144 114 q 363 -51 254 -51 q 701 147 569 -51 q 746 271 746 215 q 713 350 746 319 q 632 382 681 382 q 544 354 585 382 q 485 282 503 328 q 475 271 481 271 q 469 278 469 271 q 470 281 469 279 q 471 285 471 283 q 538 365 489 336 q 639 394 583 394 q 739 358 699 394 q 776 263 776 321 q 736 135 776 196 q 574 -11 681 46 q 363 -67 471 -67 m 594 547 q 696 556 646 547 q 796 578 746 564 q 935 700 935 622 q 722 811 935 811 q 313 619 496 811 q 594 547 438 547 m 286 -303 q 240 -291 260 -303 q 214 -254 219 -279 q 221 -247 214 -247 q 232 -256 229 -247 q 255 -274 240 -269 q 283 -279 269 -279 q 338 -256 319 -279 q 357 -210 357 -233 q 347 -180 357 -192 q 317 -168 336 -168 q 288 -172 299 -168 q 271 -176 278 -176 q 257 -165 257 -176 q 261 -154 257 -158 q 278 -136 264 -151 q 310 -101 293 -121 q 342 -68 328 -82 q 357 -54 356 -54 q 367 -55 360 -54 q 374 -57 375 -56 q 360 -71 372 -58 q 336 -98 349 -83 q 316 -124 324 -112 q 313 -139 308 -136 q 322 -137 318 -137 q 332 -137 326 -137 q 383 -153 358 -137 q 407 -199 407 -169 q 388 -255 407 -232 q 342 -290 369 -278 q 286 -303 314 -303 z "},"Ĉ":{"ha":774,"x_min":57,"x_max":965,"o":"m 363 -67 q 139 17 221 -67 q 57 243 57 101 q 243 649 57 467 q 172 782 172 710 q 328 913 172 913 q 406 901 368 913 q 481 865 444 889 l 482 864 q 484 860 485 863 q 483 856 483 858 q 481 851 483 851 q 472 856 479 851 q 346 893 410 893 q 244 864 285 893 q 199 772 199 833 q 257 660 199 714 q 711 828 438 828 q 869 801 803 828 q 965 690 965 767 q 889 589 965 632 q 831 560 863 572 q 763 542 799 549 q 628 529 700 529 q 301 608 438 529 q 144 226 144 432 q 196 38 144 114 q 363 -51 254 -51 q 701 147 569 -51 q 746 271 746 215 q 713 350 746 319 q 632 382 681 382 q 544 354 585 382 q 485 282 503 328 q 475 271 481 271 q 469 278 469 271 q 470 281 469 279 q 471 285 471 283 q 538 365 489 336 q 639 394 583 394 q 739 358 699 394 q 776 263 776 321 q 736 135 776 196 q 574 -11 681 46 q 363 -67 471 -67 m 594 547 q 696 556 646 547 q 796 578 746 564 q 935 700 935 622 q 722 811 935 811 q 313 619 496 811 q 594 547 438 547 m 882 907 q 832 932 872 907 q 746 988 792 957 q 693 956 724 974 q 635 926 663 939 q 596 910 608 913 q 588 911 586 907 q 605 924 589 914 q 641 947 621 935 q 674 968 661 960 q 727 1006 706 989 q 758 1024 749 1022 q 769 1024 764 1025 q 794 1008 776 1022 q 842 968 811 993 q 863 948 851 961 q 885 924 875 935 q 893 911 894 914 q 882 907 892 907 z "},"Ċ":{"ha":774,"x_min":57,"x_max":965,"o":"m 363 -67 q 139 17 221 -67 q 57 243 57 101 q 243 649 57 467 q 172 782 172 710 q 328 913 172 913 q 406 901 368 913 q 481 865 444 889 l 482 864 q 484 860 485 863 q 483 856 483 858 q 481 851 483 851 q 472 856 479 851 q 346 893 410 893 q 244 864 285 893 q 199 772 199 833 q 257 660 199 714 q 711 828 438 828 q 869 801 803 828 q 965 690 965 767 q 889 589 965 632 q 831 560 863 572 q 763 542 799 549 q 628 529 700 529 q 301 608 438 529 q 144 226 144 432 q 196 38 144 114 q 363 -51 254 -51 q 701 147 569 -51 q 746 271 746 215 q 713 350 746 319 q 632 382 681 382 q 544 354 585 382 q 485 282 503 328 q 475 271 481 271 q 469 278 469 271 q 470 281 469 279 q 471 285 471 283 q 538 365 489 336 q 639 394 583 394 q 739 358 699 394 q 776 263 776 321 q 736 135 776 196 q 574 -11 681 46 q 363 -67 471 -67 m 594 547 q 696 556 646 547 q 796 578 746 564 q 935 700 935 622 q 722 811 935 811 q 313 619 496 811 q 594 547 438 547 m 731 911 q 697 942 697 911 q 710 973 697 960 q 742 986 724 986 q 775 956 775 986 q 760 924 775 938 q 731 911 746 911 z "},"D":{"ha":1081,"x_min":19,"x_max":1135,"o":"m 142 -44 q 19 24 19 -44 q 54 72 19 56 q 118 86 82 86 q 311 28 168 86 q 389 107 351 60 q 460 218 426 154 q 514 328 488 272 q 567 439 540 383 q 821 774 678 668 q 575 826 700 826 q 315 779 426 826 q 117 608 181 722 q 78 464 78 539 q 119 342 78 390 q 238 292 164 292 q 401 353 328 292 q 481 506 481 415 q 443 590 481 553 q 356 626 406 626 q 275 597 311 626 q 239 522 239 565 q 275 488 239 488 q 288 483 288 488 q 274 476 288 476 q 224 522 224 476 q 264 607 224 575 q 354 640 304 640 q 460 594 418 640 q 501 489 501 551 q 419 332 501 394 q 249 275 346 275 q 89 332 154 275 q 21 485 21 392 q 26 533 21 508 q 39 583 31 558 q 240 792 92 725 q 533 846 364 846 q 844 789 697 846 q 1029 853 939 853 q 1044 847 1043 853 q 1035 844 1044 847 q 973 833 996 838 q 943 826 950 829 q 899 810 921 821 q 858 783 878 799 q 1135 435 1135 667 q 1132 391 1135 413 q 1124 347 1129 369 q 914 54 1078 153 q 556 -32 769 -32 q 333 3 424 -32 q 142 -44 244 -44 m 533 -21 q 897 94 749 -21 q 1058 429 1058 218 l 1060 429 q 838 765 1060 657 q 661 453 743 676 q 350 13 542 125 q 533 -21 440 -21 m 146 -33 q 296 17 225 -33 q 121 63 178 63 q 44 13 44 63 q 146 -33 44 -33 z "},"Ǆ":{"ha":2113,"x_min":19,"x_max":2161,"o":"m 1522 1171 q 1551 1157 1529 1171 q 1597 1124 1572 1143 q 1640 1090 1622 1106 q 1715 1139 1676 1114 q 1771 1168 1753 1164 q 1779 1167 1781 1171 q 1764 1155 1779 1165 q 1730 1132 1749 1144 q 1699 1110 1711 1119 q 1648 1072 1668 1088 q 1618 1054 1628 1057 q 1607 1054 1613 1053 q 1590 1072 1601 1057 q 1558 1110 1578 1088 q 1540 1131 1551 1118 q 1519 1154 1528 1143 q 1511 1167 1511 1165 q 1522 1171 1514 1171 m 1375 -436 q 1222 -351 1222 -436 q 1274 -253 1222 -299 q 1460 -181 1325 -207 q 1664 -151 1504 -172 q 1842 -126 1775 -139 q 1953 150 1953 17 q 1839 271 1953 271 q 1764 254 1804 271 q 1717 188 1742 219 q 1665 126 1693 156 q 1538 43 1586 43 q 1511 69 1511 43 q 1604 197 1511 128 q 1751 276 1682 256 q 1810 451 1785 329 q 1826 553 1821 506 q 1832 639 1832 600 q 1718 899 1832 831 q 1569 940 1650 940 q 1211 707 1364 940 q 1167 563 1167 639 q 1207 440 1167 488 q 1325 392 1251 392 q 1451 428 1392 392 q 1539 525 1510 461 q 1557 553 1547 553 q 1560 543 1560 553 q 1551 517 1560 533 q 1329 379 1479 379 q 1192 435 1243 379 q 1139 575 1139 492 q 1292 856 1139 735 q 1597 971 1439 971 q 1756 939 1679 971 q 1901 646 1901 875 q 1783 285 1901 483 q 1808 289 1796 288 q 1833 290 1821 290 q 1960 239 1914 290 q 2004 110 2004 190 q 1924 -110 2004 4 q 2117 -43 2051 -81 q 2149 1 2149 -24 q 2147 6 2149 4 l 2147 10 q 2153 15 2147 15 q 2161 4 2161 15 l 2161 3 q 2121 -53 2161 -28 q 2032 -93 2085 -74 q 1910 -131 1979 -112 q 1674 -343 1811 -260 q 1375 -436 1522 -436 m 142 -44 q 19 24 19 -44 q 54 72 19 56 q 118 86 82 86 q 311 28 168 86 q 389 107 351 60 q 460 218 426 154 q 514 328 488 272 q 567 439 540 383 q 821 774 678 668 q 575 826 700 826 q 315 779 426 826 q 117 608 181 722 q 78 464 78 539 q 119 342 78 390 q 238 292 164 292 q 401 353 328 292 q 481 506 481 415 q 443 590 481 553 q 356 626 406 626 q 275 597 311 626 q 239 522 239 565 q 275 488 239 488 q 288 483 288 488 q 274 476 288 476 q 224 522 224 476 q 264 607 224 575 q 354 640 304 640 q 460 594 418 640 q 501 489 501 551 q 419 332 501 394 q 249 275 346 275 q 89 332 154 275 q 21 485 21 392 q 26 533 21 508 q 39 583 31 558 q 240 792 92 725 q 533 846 364 846 q 844 789 697 846 q 1029 853 939 853 q 1044 847 1043 853 q 1035 844 1044 847 q 973 833 996 838 q 943 826 950 829 q 899 810 921 821 q 858 783 878 799 q 1135 435 1135 667 q 1132 391 1135 413 q 1124 347 1129 369 q 914 54 1078 153 q 556 -32 769 -32 q 333 3 424 -32 q 142 -44 244 -44 m 533 -21 q 897 94 749 -21 q 1058 429 1058 218 l 1060 429 q 838 765 1060 657 q 661 453 743 676 q 350 13 542 125 q 533 -21 440 -21 m 146 -33 q 296 17 225 -33 q 121 63 178 63 q 44 13 44 63 q 146 -33 44 -33 m 1346 -415 q 1535 -360 1422 -415 q 1624 -312 1581 -337 q 1707 -257 1667 -287 q 1825 -149 1772 -210 q 1736 -162 1790 -154 q 1608 -179 1682 -171 q 1528 -190 1576 -183 q 1417 -210 1479 -196 q 1365 -228 1390 -215 q 1313 -260 1339 -242 q 1249 -347 1249 -303 q 1282 -399 1249 -379 q 1346 -415 1311 -415 z "},"Ď":{"ha":1081,"x_min":19,"x_max":1158,"o":"m 900 1057 q 928 1043 907 1057 q 975 1010 950 1029 q 1018 976 1000 992 q 1092 1025 1054 1000 q 1149 1054 1131 1050 q 1157 1053 1158 1057 q 1142 1041 1157 1051 q 1108 1018 1126 1031 q 1076 996 1089 1006 q 1026 958 1046 974 q 996 940 1006 943 q 985 940 990 939 q 967 958 979 943 q 936 996 956 974 q 917 1017 929 1004 q 897 1040 906 1029 q 889 1053 889 1051 q 900 1057 892 1057 m 142 -44 q 19 24 19 -44 q 54 72 19 56 q 118 86 82 86 q 311 28 168 86 q 389 107 351 60 q 460 218 426 154 q 514 328 488 272 q 567 439 540 383 q 821 774 678 668 q 575 826 700 826 q 315 779 426 826 q 117 608 181 722 q 78 464 78 539 q 119 342 78 390 q 238 292 164 292 q 401 353 328 292 q 481 506 481 415 q 443 590 481 553 q 356 626 406 626 q 275 597 311 626 q 239 522 239 565 q 275 488 239 488 q 288 483 288 488 q 274 476 288 476 q 224 522 224 476 q 264 607 224 575 q 354 640 304 640 q 460 594 418 640 q 501 489 501 551 q 419 332 501 394 q 249 275 346 275 q 89 332 154 275 q 21 485 21 392 q 26 533 21 508 q 39 583 31 558 q 240 792 92 725 q 533 846 364 846 q 844 789 697 846 q 1029 853 939 853 q 1044 847 1043 853 q 1035 844 1044 847 q 973 833 996 838 q 943 826 950 829 q 899 810 921 821 q 858 783 878 799 q 1135 435 1135 667 q 1132 391 1135 413 q 1124 347 1129 369 q 914 54 1078 153 q 556 -32 769 -32 q 333 3 424 -32 q 142 -44 244 -44 m 533 -21 q 897 94 749 -21 q 1058 429 1058 218 l 1060 429 q 838 765 1060 657 q 661 453 743 676 q 350 13 542 125 q 533 -21 440 -21 m 146 -33 q 296 17 225 -33 q 121 63 178 63 q 44 13 44 63 q 146 -33 44 -33 z "},"Đ":{"ha":1081,"x_min":19,"x_max":1135,"o":"m 142 -44 q 19 24 19 -44 q 54 72 19 56 q 118 86 82 86 q 311 28 168 86 q 439 181 381 82 q 478 253 456 208 q 531 361 501 299 q 385 303 381 303 q 369 318 369 303 q 385 339 369 331 q 452 367 411 351 q 549 399 493 382 q 821 774 675 664 q 575 826 700 826 q 315 779 426 826 q 117 608 181 722 q 78 464 78 539 q 217 293 78 318 q 231 286 231 290 q 211 278 231 278 q 190 282 201 278 q 68 353 114 300 q 21 485 21 411 q 26 533 21 508 q 39 583 31 558 q 240 792 92 725 q 533 846 364 846 q 844 789 697 846 q 1029 853 939 853 q 1044 847 1043 853 q 1035 844 1044 847 q 973 833 996 838 q 943 826 950 829 q 899 810 921 821 q 858 783 878 799 q 1135 435 1135 667 q 1132 391 1135 413 q 1124 347 1129 369 q 914 54 1078 153 q 556 -32 769 -32 q 333 3 424 -32 q 142 -44 244 -44 m 533 -21 q 897 94 749 -21 q 1058 429 1058 218 l 1060 429 q 838 765 1060 657 q 725 606 775 707 q 693 534 711 579 q 650 424 675 489 q 722 434 688 431 q 788 438 757 438 q 804 428 804 438 q 789 418 804 418 q 640 397 739 414 q 350 13 528 117 q 533 -21 440 -21 m 146 -33 q 296 17 225 -33 q 121 63 178 63 q 44 13 44 63 q 146 -33 44 -33 z "},"ǅ":{"ha":1525,"x_min":19,"x_max":1657,"o":"m 142 -44 q 19 24 19 -44 q 54 72 19 56 q 118 86 82 86 q 311 28 168 86 q 389 107 351 60 q 460 218 426 154 q 514 328 488 272 q 567 439 540 383 q 821 774 678 668 q 575 826 700 826 q 315 779 426 826 q 117 608 181 722 q 78 464 78 539 q 119 342 78 390 q 238 292 164 292 q 401 353 328 292 q 481 506 481 415 q 443 590 481 553 q 356 626 406 626 q 275 597 311 626 q 239 522 239 565 q 275 488 239 488 q 288 483 288 488 q 274 476 288 476 q 224 522 224 476 q 264 607 224 575 q 354 640 304 640 q 460 594 418 640 q 501 489 501 551 q 419 332 501 394 q 249 275 346 275 q 89 332 154 275 q 21 485 21 392 q 26 533 21 508 q 39 583 31 558 q 240 792 92 725 q 533 846 364 846 q 844 789 697 846 q 1029 853 939 853 q 1044 847 1043 853 q 1035 844 1044 847 q 973 833 996 838 q 943 826 950 829 q 899 810 921 821 q 858 783 878 799 q 1135 435 1135 667 q 1132 391 1135 413 q 1124 347 1129 369 q 914 54 1078 153 q 556 -32 769 -32 q 333 3 424 -32 q 142 -44 244 -44 m 533 -21 q 897 94 749 -21 q 1058 429 1058 218 l 1060 429 q 838 765 1060 657 q 661 453 743 676 q 350 13 542 125 q 533 -21 440 -21 m 1357 647 q 1385 633 1364 647 q 1432 601 1407 619 q 1475 567 1457 582 q 1549 615 1511 590 q 1606 644 1588 640 q 1614 643 1615 647 q 1599 631 1614 642 q 1565 608 1583 621 q 1533 586 1546 596 q 1483 549 1503 564 q 1453 531 1463 533 q 1442 531 1447 529 q 1424 549 1436 533 q 1393 586 1413 564 q 1374 607 1386 594 q 1354 631 1363 619 q 1346 643 1346 642 q 1357 647 1349 647 m 1132 -314 q 1047 -251 1047 -314 q 1192 -82 1047 -172 q 1277 -35 1222 -62 q 1411 28 1332 -7 l 1411 42 q 1324 118 1411 118 q 1247 100 1283 118 q 1218 93 1229 93 q 1194 110 1194 93 q 1242 136 1194 132 l 1306 140 q 1425 226 1379 153 q 1467 372 1467 293 q 1400 454 1467 454 q 1203 224 1313 454 l 1200 224 l 1194 225 l 1194 228 q 1224 292 1208 261 q 1257 351 1239 322 q 1411 467 1326 467 q 1522 340 1522 467 q 1315 131 1522 197 q 1340 133 1331 133 q 1356 133 1350 133 q 1399 124 1379 133 q 1433 90 1417 115 q 1450 44 1450 64 q 1501 72 1474 53 q 1555 115 1529 92 q 1594 158 1581 139 q 1643 242 1622 197 q 1650 249 1647 249 q 1653 238 1657 249 q 1631 194 1643 215 q 1604 153 1619 174 q 1538 83 1579 115 q 1451 35 1496 50 q 1288 -258 1453 -140 q 1132 -314 1207 -314 m 146 -33 q 296 17 225 -33 q 121 63 178 63 q 44 13 44 63 q 146 -33 44 -33 m 1107 -296 q 1264 -211 1175 -296 q 1378 -62 1339 -137 q 1407 17 1406 -12 q 1353 -6 1379 7 q 1303 -32 1326 -18 q 1197 -92 1235 -71 q 1151 -119 1158 -114 q 1058 -250 1058 -186 q 1107 -296 1058 -296 z "},"E":{"ha":768,"x_min":97,"x_max":868,"o":"m 400 -104 q 189 -37 272 -104 q 97 160 97 36 q 106 231 97 197 q 250 439 143 361 q 492 528 351 513 q 449 631 449 571 q 535 779 449 722 q 707 829 610 829 q 868 719 868 829 q 835 642 868 675 q 757 608 801 608 q 715 618 735 608 q 693 651 693 631 q 696 664 693 660 q 701 672 696 672 q 706 667 706 672 q 704 660 706 663 q 701 650 701 651 q 728 624 701 624 q 804 650 772 624 q 840 718 840 678 q 803 790 840 764 q 722 814 768 814 q 564 757 629 814 q 496 606 496 699 q 517 529 496 561 q 535 531 526 531 q 551 531 543 531 q 706 489 706 531 q 656 460 706 460 q 515 506 576 460 q 188 229 247 457 q 178 154 178 196 q 246 -18 178 46 q 422 -83 313 -83 q 665 3 557 -83 q 781 225 781 94 q 682 340 781 340 q 617 319 644 340 q 586 260 586 297 q 582 236 586 236 q 571 260 571 236 q 572 273 571 265 q 578 290 574 281 q 697 357 606 357 q 797 318 760 357 q 832 214 832 279 q 683 -24 832 71 q 400 -104 551 -104 m 635 474 q 678 492 678 474 q 615 515 678 515 q 576 514 596 515 q 536 510 556 513 q 635 474 579 474 z "},"É":{"ha":768,"x_min":97,"x_max":868,"o":"m 400 -104 q 189 -37 272 -104 q 97 160 97 36 q 106 231 97 197 q 250 439 143 361 q 492 528 351 513 q 449 631 449 571 q 535 779 449 722 q 707 829 610 829 q 868 719 868 829 q 835 642 868 675 q 757 608 801 608 q 715 618 735 608 q 693 651 693 631 q 696 664 693 660 q 701 672 696 672 q 706 667 706 672 q 704 660 706 663 q 701 650 701 651 q 728 624 701 624 q 804 650 772 624 q 840 718 840 678 q 803 790 840 764 q 722 814 768 814 q 564 757 629 814 q 496 606 496 699 q 517 529 496 561 q 535 531 526 531 q 551 531 543 531 q 706 489 706 531 q 656 460 706 460 q 515 506 576 460 q 188 229 247 457 q 178 154 178 196 q 246 -18 178 46 q 422 -83 313 -83 q 665 3 557 -83 q 781 225 781 94 q 682 340 781 340 q 617 319 644 340 q 586 260 586 297 q 582 236 586 236 q 571 260 571 236 q 572 273 571 265 q 578 290 574 281 q 697 357 606 357 q 797 318 760 357 q 832 214 832 279 q 683 -24 832 71 q 400 -104 551 -104 m 635 474 q 678 492 678 474 q 615 515 678 515 q 576 514 596 515 q 536 510 556 513 q 635 474 579 474 m 608 917 q 624 931 608 919 q 658 957 639 943 q 689 978 678 971 q 764 1028 731 1006 q 806 1051 797 1051 q 822 1040 814 1051 q 824 1024 831 1028 q 779 999 815 1018 q 699 958 743 979 q 622 919 656 936 q 608 917 608 913 z "},"Ĕ":{"ha":768,"x_min":97,"x_max":886,"o":"m 400 -104 q 189 -37 272 -104 q 97 160 97 36 q 106 231 97 197 q 250 439 143 361 q 492 528 351 513 q 449 631 449 571 q 535 779 449 722 q 707 829 610 829 q 868 719 868 829 q 835 642 868 675 q 757 608 801 608 q 715 618 735 608 q 693 651 693 631 q 696 664 693 660 q 701 672 696 672 q 706 667 706 672 q 704 660 706 663 q 701 650 701 651 q 728 624 701 624 q 804 650 772 624 q 840 718 840 678 q 803 790 840 764 q 722 814 768 814 q 564 757 629 814 q 496 606 496 699 q 517 529 496 561 q 535 531 526 531 q 551 531 543 531 q 706 489 706 531 q 656 460 706 460 q 515 506 576 460 q 188 229 247 457 q 178 154 178 196 q 246 -18 178 46 q 422 -83 313 -83 q 665 3 557 -83 q 781 225 781 94 q 682 340 781 340 q 617 319 644 340 q 586 260 586 297 q 582 236 586 236 q 571 260 571 236 q 572 273 571 265 q 578 290 574 281 q 697 357 606 357 q 797 318 760 357 q 832 214 832 279 q 683 -24 832 71 q 400 -104 551 -104 m 635 474 q 678 492 678 474 q 615 515 678 515 q 576 514 596 515 q 536 510 556 513 q 635 474 579 474 m 697 907 q 617 926 647 907 q 588 996 588 944 q 589 1008 588 1003 q 597 1019 590 1014 q 613 1021 613 1032 q 619 984 613 1001 q 649 956 626 967 q 718 946 672 946 q 791 960 746 946 q 867 1008 836 974 q 876 1019 874 1015 q 885 1022 878 1022 q 886 1018 886 1022 q 878 1004 886 1015 q 803 938 851 969 q 697 907 754 907 z "},"Ě":{"ha":768,"x_min":97,"x_max":889,"o":"m 593 1025 q 644 1000 604 1025 q 729 944 683 975 q 782 976 751 958 q 840 1006 813 993 q 879 1022 867 1019 q 888 1021 889 1025 q 871 1008 888 1019 q 834 985 854 997 q 801 964 814 972 q 749 927 771 943 q 717 908 726 911 q 706 908 711 907 q 682 925 700 911 q 633 964 664 939 q 613 985 625 972 q 591 1008 600 997 q 582 1021 582 1019 q 593 1025 585 1025 m 400 -104 q 189 -37 272 -104 q 97 160 97 36 q 106 231 97 197 q 250 439 143 361 q 492 528 351 513 q 449 631 449 571 q 535 779 449 722 q 707 829 610 829 q 868 719 868 829 q 835 642 868 675 q 757 608 801 608 q 715 618 735 608 q 693 651 693 631 q 696 664 693 660 q 701 672 696 672 q 706 667 706 672 q 704 660 706 663 q 701 650 701 651 q 728 624 701 624 q 804 650 772 624 q 840 718 840 678 q 803 790 840 764 q 722 814 768 814 q 564 757 629 814 q 496 606 496 699 q 517 529 496 561 q 535 531 526 531 q 551 531 543 531 q 706 489 706 531 q 656 460 706 460 q 515 506 576 460 q 188 229 247 457 q 178 154 178 196 q 246 -18 178 46 q 422 -83 313 -83 q 665 3 557 -83 q 781 225 781 94 q 682 340 781 340 q 617 319 644 340 q 586 260 586 297 q 582 236 586 236 q 571 260 571 236 q 572 273 571 265 q 578 290 574 281 q 697 357 606 357 q 797 318 760 357 q 832 214 832 279 q 683 -24 832 71 q 400 -104 551 -104 m 635 474 q 678 492 678 474 q 615 515 678 515 q 576 514 596 515 q 536 510 556 513 q 635 474 579 474 z "},"Ê":{"ha":768,"x_min":97,"x_max":872,"o":"m 400 -104 q 189 -37 272 -104 q 97 160 97 36 q 106 231 97 197 q 250 439 143 361 q 492 528 351 513 q 449 631 449 571 q 535 779 449 722 q 707 829 610 829 q 868 719 868 829 q 835 642 868 675 q 757 608 801 608 q 715 618 735 608 q 693 651 693 631 q 696 664 693 660 q 701 672 696 672 q 706 667 706 672 q 704 660 706 663 q 701 650 701 651 q 728 624 701 624 q 804 650 772 624 q 840 718 840 678 q 803 790 840 764 q 722 814 768 814 q 564 757 629 814 q 496 606 496 699 q 517 529 496 561 q 535 531 526 531 q 551 531 543 531 q 706 489 706 531 q 656 460 706 460 q 515 506 576 460 q 188 229 247 457 q 178 154 178 196 q 246 -18 178 46 q 422 -83 313 -83 q 665 3 557 -83 q 781 225 781 94 q 682 340 781 340 q 617 319 644 340 q 586 260 586 297 q 582 236 586 236 q 571 260 571 236 q 572 273 571 265 q 578 290 574 281 q 697 357 606 357 q 797 318 760 357 q 832 214 832 279 q 683 -24 832 71 q 400 -104 551 -104 m 635 474 q 678 492 678 474 q 615 515 678 515 q 576 514 596 515 q 536 510 556 513 q 635 474 579 474 m 860 908 q 810 933 850 908 q 724 989 769 958 q 671 958 701 975 q 613 927 640 940 q 574 911 586 914 q 565 913 564 908 q 583 926 567 915 q 619 949 599 936 q 651 969 639 961 q 705 1007 683 990 q 736 1025 726 1024 q 747 1025 742 1026 q 772 1009 754 1024 q 819 969 789 994 q 841 949 829 963 q 863 926 853 936 q 871 913 872 915 q 860 908 869 908 z "},"Ế":{"ha":768,"x_min":97,"x_max":1097,"o":"m 400 -104 q 189 -37 272 -104 q 97 160 97 36 q 106 231 97 197 q 250 439 143 361 q 492 528 351 513 q 449 631 449 571 q 535 779 449 722 q 707 829 610 829 q 868 719 868 829 q 835 642 868 675 q 757 608 801 608 q 715 618 735 608 q 693 651 693 631 q 696 664 693 660 q 701 672 696 672 q 706 667 706 672 q 704 660 706 663 q 701 650 701 651 q 728 624 701 624 q 804 650 772 624 q 840 718 840 678 q 803 790 840 764 q 722 814 768 814 q 564 757 629 814 q 496 606 496 699 q 517 529 496 561 q 535 531 526 531 q 551 531 543 531 q 706 489 706 531 q 656 460 706 460 q 515 506 576 460 q 188 229 247 457 q 178 154 178 196 q 246 -18 178 46 q 422 -83 313 -83 q 665 3 557 -83 q 781 225 781 94 q 682 340 781 340 q 617 319 644 340 q 586 260 586 297 q 582 236 586 236 q 571 260 571 236 q 572 273 571 265 q 578 290 574 281 q 697 357 606 357 q 797 318 760 357 q 832 214 832 279 q 683 -24 832 71 q 400 -104 551 -104 m 635 474 q 678 492 678 474 q 615 515 678 515 q 576 514 596 515 q 536 510 556 513 q 635 474 579 474 m 860 908 q 810 933 850 908 q 724 989 769 958 q 671 958 701 975 q 613 927 640 940 q 574 911 586 914 q 565 913 564 908 q 583 926 567 915 q 619 949 599 936 q 651 969 639 961 q 705 1007 683 990 q 736 1025 726 1024 q 747 1025 742 1026 q 772 1009 754 1024 q 819 969 789 994 q 841 949 829 963 q 863 926 853 936 q 871 913 872 915 q 860 908 869 908 m 875 1000 q 890 1015 875 1003 q 925 1040 906 1026 q 956 1061 944 1054 q 1031 1112 997 1089 q 1072 1135 1064 1135 q 1089 1123 1081 1135 q 1090 1107 1097 1111 q 1046 1082 1082 1101 q 966 1041 1010 1063 q 889 1003 922 1019 q 875 1000 875 996 z "},"Ệ":{"ha":768,"x_min":97,"x_max":872,"o":"m 400 -104 q 189 -37 272 -104 q 97 160 97 36 q 106 231 97 197 q 250 439 143 361 q 492 528 351 513 q 449 631 449 571 q 535 779 449 722 q 707 829 610 829 q 868 719 868 829 q 835 642 868 675 q 757 608 801 608 q 715 618 735 608 q 693 651 693 631 q 696 664 693 660 q 701 672 696 672 q 706 667 706 672 q 704 660 706 663 q 701 650 701 651 q 728 624 701 624 q 804 650 772 624 q 840 718 840 678 q 803 790 840 764 q 722 814 768 814 q 564 757 629 814 q 496 606 496 699 q 517 529 496 561 q 535 531 526 531 q 551 531 543 531 q 706 489 706 531 q 656 460 706 460 q 515 506 576 460 q 188 229 247 457 q 178 154 178 196 q 246 -18 178 46 q 422 -83 313 -83 q 665 3 557 -83 q 781 225 781 94 q 682 340 781 340 q 617 319 644 340 q 586 260 586 297 q 582 236 586 236 q 571 260 571 236 q 572 273 571 265 q 578 290 574 281 q 697 357 606 357 q 797 318 760 357 q 832 214 832 279 q 683 -24 832 71 q 400 -104 551 -104 m 635 474 q 678 492 678 474 q 615 515 678 515 q 576 514 596 515 q 536 510 556 513 q 635 474 579 474 m 331 -264 q 299 -235 299 -264 q 311 -205 299 -218 q 340 -192 324 -192 q 372 -221 372 -192 q 359 -251 372 -237 q 331 -264 346 -264 m 860 908 q 810 933 850 908 q 724 989 769 958 q 671 958 701 975 q 613 927 640 940 q 574 911 586 914 q 565 913 564 908 q 583 926 567 915 q 619 949 599 936 q 651 969 639 961 q 705 1007 683 990 q 736 1025 726 1024 q 747 1025 742 1026 q 772 1009 754 1024 q 819 969 789 994 q 841 949 829 963 q 863 926 853 936 q 871 913 872 915 q 860 908 869 908 z "},"Ề":{"ha":768,"x_min":97,"x_max":872,"o":"m 400 -104 q 189 -37 272 -104 q 97 160 97 36 q 106 231 97 197 q 250 439 143 361 q 492 528 351 513 q 449 631 449 571 q 535 779 449 722 q 707 829 610 829 q 868 719 868 829 q 835 642 868 675 q 757 608 801 608 q 715 618 735 608 q 693 651 693 631 q 696 664 693 660 q 701 672 696 672 q 706 667 706 672 q 704 660 706 663 q 701 650 701 651 q 728 624 701 624 q 804 650 772 624 q 840 718 840 678 q 803 790 840 764 q 722 814 768 814 q 564 757 629 814 q 496 606 496 699 q 517 529 496 561 q 535 531 526 531 q 551 531 543 531 q 706 489 706 531 q 656 460 706 460 q 515 506 576 460 q 188 229 247 457 q 178 154 178 196 q 246 -18 178 46 q 422 -83 313 -83 q 665 3 557 -83 q 781 225 781 94 q 682 340 781 340 q 617 319 644 340 q 586 260 586 297 q 582 236 586 236 q 571 260 571 236 q 572 273 571 265 q 578 290 574 281 q 697 357 606 357 q 797 318 760 357 q 832 214 832 279 q 683 -24 832 71 q 400 -104 551 -104 m 635 474 q 678 492 678 474 q 615 515 678 515 q 576 514 596 515 q 536 510 556 513 q 635 474 579 474 m 860 908 q 810 933 850 908 q 724 989 769 958 q 671 958 701 975 q 613 927 640 940 q 574 911 586 914 q 565 913 564 908 q 583 926 567 915 q 619 949 599 936 q 651 969 639 961 q 705 1007 683 990 q 736 1025 726 1024 q 747 1025 742 1026 q 772 1009 754 1024 q 819 969 789 994 q 841 949 829 963 q 863 926 853 936 q 871 913 872 915 q 860 908 869 908 m 872 1047 q 858 1050 872 1043 q 781 1088 825 1067 q 702 1129 738 1110 q 657 1154 667 1149 q 659 1170 651 1158 q 675 1182 667 1182 q 717 1159 683 1182 q 792 1108 750 1136 q 822 1088 803 1101 q 857 1062 842 1074 q 872 1047 872 1050 z "},"Ể":{"ha":768,"x_min":97,"x_max":968,"o":"m 400 -104 q 189 -37 272 -104 q 97 160 97 36 q 106 231 97 197 q 250 439 143 361 q 492 528 351 513 q 449 631 449 571 q 535 779 449 722 q 707 829 610 829 q 868 719 868 829 q 835 642 868 675 q 757 608 801 608 q 715 618 735 608 q 693 651 693 631 q 696 664 693 660 q 701 672 696 672 q 706 667 706 672 q 704 660 706 663 q 701 650 701 651 q 728 624 701 624 q 804 650 772 624 q 840 718 840 678 q 803 790 840 764 q 722 814 768 814 q 564 757 629 814 q 496 606 496 699 q 517 529 496 561 q 535 531 526 531 q 551 531 543 531 q 706 489 706 531 q 656 460 706 460 q 515 506 576 460 q 188 229 247 457 q 178 154 178 196 q 246 -18 178 46 q 422 -83 313 -83 q 665 3 557 -83 q 781 225 781 94 q 682 340 781 340 q 617 319 644 340 q 586 260 586 297 q 582 236 586 236 q 571 260 571 236 q 572 273 571 265 q 578 290 574 281 q 697 357 606 357 q 797 318 760 357 q 832 214 832 279 q 683 -24 832 71 q 400 -104 551 -104 m 635 474 q 678 492 678 474 q 615 515 678 515 q 576 514 596 515 q 536 510 556 513 q 635 474 579 474 m 860 908 q 810 933 850 908 q 724 989 769 958 q 671 958 701 975 q 613 927 640 940 q 574 911 586 914 q 565 913 564 908 q 583 926 567 915 q 619 949 599 936 q 651 969 639 961 q 705 1007 683 990 q 736 1025 726 1024 q 747 1025 742 1026 q 772 1009 754 1024 q 819 969 789 994 q 841 949 829 963 q 863 926 853 936 q 871 913 872 915 q 860 908 869 908 m 847 993 q 846 997 846 993 q 853 1007 846 1001 q 881 1033 869 1024 q 901 1053 892 1042 q 917 1085 910 1064 q 915 1106 921 1096 q 894 1115 910 1115 q 869 1107 885 1115 q 839 1090 854 1099 q 838 1090 838 1090 q 836 1089 838 1089 q 834 1095 833 1089 q 839 1104 835 1101 q 877 1133 858 1122 q 925 1144 896 1144 q 960 1128 953 1144 q 961 1090 968 1113 q 928 1052 951 1065 q 863 1007 906 1039 q 854 998 857 1003 q 847 993 851 993 z "},"Ễ":{"ha":768,"x_min":97,"x_max":936,"o":"m 400 -104 q 189 -37 272 -104 q 97 160 97 36 q 106 231 97 197 q 250 439 143 361 q 492 528 351 513 q 449 631 449 571 q 535 779 449 722 q 707 829 610 829 q 868 719 868 829 q 835 642 868 675 q 757 608 801 608 q 715 618 735 608 q 693 651 693 631 q 696 664 693 660 q 701 672 696 672 q 706 667 706 672 q 704 660 706 663 q 701 650 701 651 q 728 624 701 624 q 804 650 772 624 q 840 718 840 678 q 803 790 840 764 q 722 814 768 814 q 564 757 629 814 q 496 606 496 699 q 517 529 496 561 q 535 531 526 531 q 551 531 543 531 q 706 489 706 531 q 656 460 706 460 q 515 506 576 460 q 188 229 247 457 q 178 154 178 196 q 246 -18 178 46 q 422 -83 313 -83 q 665 3 557 -83 q 781 225 781 94 q 682 340 781 340 q 617 319 644 340 q 586 260 586 297 q 582 236 586 236 q 571 260 571 236 q 572 273 571 265 q 578 290 574 281 q 697 357 606 357 q 797 318 760 357 q 832 214 832 279 q 683 -24 832 71 q 400 -104 551 -104 m 635 474 q 678 492 678 474 q 615 515 678 515 q 576 514 596 515 q 536 510 556 513 q 635 474 579 474 m 860 908 q 810 933 850 908 q 724 989 769 958 q 671 958 701 975 q 613 927 640 940 q 574 911 586 914 q 565 913 564 908 q 583 926 567 915 q 619 949 599 936 q 651 969 639 961 q 705 1007 683 990 q 736 1025 726 1024 q 747 1025 742 1026 q 772 1009 754 1024 q 819 969 789 994 q 841 949 829 963 q 863 926 853 936 q 871 913 872 915 q 860 908 869 908 m 633 1058 q 632 1068 631 1058 q 653 1119 639 1096 q 699 1142 668 1142 q 763 1131 731 1142 q 826 1108 796 1119 q 878 1097 856 1097 q 911 1110 901 1097 q 925 1134 921 1122 q 933 1146 929 1146 q 935 1140 936 1146 q 933 1132 935 1135 q 905 1080 926 1101 q 864 1058 883 1058 q 814 1069 843 1058 q 753 1092 785 1081 q 690 1103 722 1103 q 656 1092 667 1103 q 642 1069 646 1081 q 633 1058 638 1058 z "},"Ȅ":{"ha":768,"x_min":97,"x_max":868,"o":"m 772 913 q 758 918 771 908 q 692 963 728 938 q 627 1008 656 988 q 592 1035 599 1028 q 595 1051 586 1040 q 613 1060 604 1061 q 649 1033 621 1058 q 700 985 676 1007 q 727 959 710 975 q 758 929 744 943 q 772 913 772 915 m 678 917 q 664 919 678 913 q 592 955 631 936 q 522 990 553 974 q 482 1013 492 1007 q 484 1028 476 1017 q 500 1040 492 1040 q 540 1019 508 1040 q 597 978 571 997 q 627 957 608 971 q 662 931 646 943 q 678 917 678 919 m 400 -104 q 189 -37 272 -104 q 97 160 97 36 q 106 231 97 197 q 250 439 143 361 q 492 528 351 513 q 449 631 449 571 q 535 779 449 722 q 707 829 610 829 q 868 719 868 829 q 835 642 868 675 q 757 608 801 608 q 715 618 735 608 q 693 651 693 631 q 696 664 693 660 q 701 672 696 672 q 706 667 706 672 q 704 660 706 663 q 701 650 701 651 q 728 624 701 624 q 804 650 772 624 q 840 718 840 678 q 803 790 840 764 q 722 814 768 814 q 564 757 629 814 q 496 606 496 699 q 517 529 496 561 q 535 531 526 531 q 551 531 543 531 q 706 489 706 531 q 656 460 706 460 q 515 506 576 460 q 188 229 247 457 q 178 154 178 196 q 246 -18 178 46 q 422 -83 313 -83 q 665 3 557 -83 q 781 225 781 94 q 682 340 781 340 q 617 319 644 340 q 586 260 586 297 q 582 236 586 236 q 571 260 571 236 q 572 273 571 265 q 578 290 574 281 q 697 357 606 357 q 797 318 760 357 q 832 214 832 279 q 683 -24 832 71 q 400 -104 551 -104 m 635 474 q 678 492 678 474 q 615 515 678 515 q 576 514 596 515 q 536 510 556 513 q 635 474 579 474 z "},"Ë":{"ha":768,"x_min":97,"x_max":868,"o":"m 400 -104 q 189 -37 272 -104 q 97 160 97 36 q 106 231 97 197 q 250 439 143 361 q 492 528 351 513 q 449 631 449 571 q 535 779 449 722 q 707 829 610 829 q 868 719 868 829 q 835 642 868 675 q 757 608 801 608 q 715 618 735 608 q 693 651 693 631 q 696 664 693 660 q 701 672 696 672 q 706 667 706 672 q 704 660 706 663 q 701 650 701 651 q 728 624 701 624 q 804 650 772 624 q 840 718 840 678 q 803 790 840 764 q 722 814 768 814 q 564 757 629 814 q 496 606 496 699 q 517 529 496 561 q 535 531 526 531 q 551 531 543 531 q 706 489 706 531 q 656 460 706 460 q 515 506 576 460 q 188 229 247 457 q 178 154 178 196 q 246 -18 178 46 q 422 -83 313 -83 q 665 3 557 -83 q 781 225 781 94 q 682 340 781 340 q 617 319 644 340 q 586 260 586 297 q 582 236 586 236 q 571 260 571 236 q 572 273 571 265 q 578 290 574 281 q 697 357 606 357 q 797 318 760 357 q 832 214 832 279 q 683 -24 832 71 q 400 -104 551 -104 m 635 474 q 678 492 678 474 q 615 515 678 515 q 576 514 596 515 q 536 510 556 513 q 635 474 579 474 m 769 913 q 736 943 736 913 q 749 974 736 961 q 781 988 763 988 q 814 957 814 988 q 799 926 814 939 q 769 913 785 913 m 619 913 q 586 943 586 913 q 599 974 586 961 q 631 988 613 988 q 664 957 664 988 q 649 926 664 939 q 619 913 635 913 z "},"Ė":{"ha":768,"x_min":97,"x_max":868,"o":"m 400 -104 q 189 -37 272 -104 q 97 160 97 36 q 106 231 97 197 q 250 439 143 361 q 492 528 351 513 q 449 631 449 571 q 535 779 449 722 q 707 829 610 829 q 868 719 868 829 q 835 642 868 675 q 757 608 801 608 q 715 618 735 608 q 693 651 693 631 q 696 664 693 660 q 701 672 696 672 q 706 667 706 672 q 704 660 706 663 q 701 650 701 651 q 728 624 701 624 q 804 650 772 624 q 840 718 840 678 q 803 790 840 764 q 722 814 768 814 q 564 757 629 814 q 496 606 496 699 q 517 529 496 561 q 535 531 526 531 q 551 531 543 531 q 706 489 706 531 q 656 460 706 460 q 515 506 576 460 q 188 229 247 457 q 178 154 178 196 q 246 -18 178 46 q 422 -83 313 -83 q 665 3 557 -83 q 781 225 781 94 q 682 340 781 340 q 617 319 644 340 q 586 260 586 297 q 582 236 586 236 q 571 260 571 236 q 572 273 571 265 q 578 290 574 281 q 697 357 606 357 q 797 318 760 357 q 832 214 832 279 q 683 -24 832 71 q 400 -104 551 -104 m 635 474 q 678 492 678 474 q 615 515 678 515 q 576 514 596 515 q 536 510 556 513 q 635 474 579 474 m 708 913 q 675 943 675 913 q 688 974 675 961 q 719 988 701 988 q 753 957 753 988 q 738 926 753 939 q 708 913 724 913 z "},"Ẹ":{"ha":768,"x_min":97,"x_max":868,"o":"m 400 -104 q 189 -37 272 -104 q 97 160 97 36 q 106 231 97 197 q 250 439 143 361 q 492 528 351 513 q 449 631 449 571 q 535 779 449 722 q 707 829 610 829 q 868 719 868 829 q 835 642 868 675 q 757 608 801 608 q 715 618 735 608 q 693 651 693 631 q 696 664 693 660 q 701 672 696 672 q 706 667 706 672 q 704 660 706 663 q 701 650 701 651 q 728 624 701 624 q 804 650 772 624 q 840 718 840 678 q 803 790 840 764 q 722 814 768 814 q 564 757 629 814 q 496 606 496 699 q 517 529 496 561 q 535 531 526 531 q 551 531 543 531 q 706 489 706 531 q 656 460 706 460 q 515 506 576 460 q 188 229 247 457 q 178 154 178 196 q 246 -18 178 46 q 422 -83 313 -83 q 665 3 557 -83 q 781 225 781 94 q 682 340 781 340 q 617 319 644 340 q 586 260 586 297 q 582 236 586 236 q 571 260 571 236 q 572 273 571 265 q 578 290 574 281 q 697 357 606 357 q 797 318 760 357 q 832 214 832 279 q 683 -24 832 71 q 400 -104 551 -104 m 635 474 q 678 492 678 474 q 615 515 678 515 q 576 514 596 515 q 536 510 556 513 q 635 474 579 474 m 331 -264 q 299 -235 299 -264 q 311 -205 299 -218 q 340 -192 324 -192 q 372 -221 372 -192 q 359 -251 372 -237 q 331 -264 346 -264 z "},"È":{"ha":768,"x_min":97,"x_max":868,"o":"m 400 -104 q 189 -37 272 -104 q 97 160 97 36 q 106 231 97 197 q 250 439 143 361 q 492 528 351 513 q 449 631 449 571 q 535 779 449 722 q 707 829 610 829 q 868 719 868 829 q 835 642 868 675 q 757 608 801 608 q 715 618 735 608 q 693 651 693 631 q 696 664 693 660 q 701 672 696 672 q 706 667 706 672 q 704 660 706 663 q 701 650 701 651 q 728 624 701 624 q 804 650 772 624 q 840 718 840 678 q 803 790 840 764 q 722 814 768 814 q 564 757 629 814 q 496 606 496 699 q 517 529 496 561 q 535 531 526 531 q 551 531 543 531 q 706 489 706 531 q 656 460 706 460 q 515 506 576 460 q 188 229 247 457 q 178 154 178 196 q 246 -18 178 46 q 422 -83 313 -83 q 665 3 557 -83 q 781 225 781 94 q 682 340 781 340 q 617 319 644 340 q 586 260 586 297 q 582 236 586 236 q 571 260 571 236 q 572 273 571 265 q 578 290 574 281 q 697 357 606 357 q 797 318 760 357 q 832 214 832 279 q 683 -24 832 71 q 400 -104 551 -104 m 635 474 q 678 492 678 474 q 615 515 678 515 q 576 514 596 515 q 536 510 556 513 q 635 474 579 474 m 764 917 q 750 919 764 913 q 673 958 717 936 q 594 999 629 979 q 549 1024 558 1018 q 551 1040 543 1028 q 567 1051 558 1051 q 608 1028 575 1051 q 683 978 642 1006 q 714 957 694 971 q 749 931 733 943 q 764 917 764 919 z "},"Ẻ":{"ha":768,"x_min":97,"x_max":868,"o":"m 400 -104 q 189 -37 272 -104 q 97 160 97 36 q 106 231 97 197 q 250 439 143 361 q 492 528 351 513 q 449 631 449 571 q 535 779 449 722 q 707 829 610 829 q 868 719 868 829 q 835 642 868 675 q 757 608 801 608 q 715 618 735 608 q 693 651 693 631 q 696 664 693 660 q 701 672 696 672 q 706 667 706 672 q 704 660 706 663 q 701 650 701 651 q 728 624 701 624 q 804 650 772 624 q 840 718 840 678 q 803 790 840 764 q 722 814 768 814 q 564 757 629 814 q 496 606 496 699 q 517 529 496 561 q 535 531 526 531 q 551 531 543 531 q 706 489 706 531 q 656 460 706 460 q 515 506 576 460 q 188 229 247 457 q 178 154 178 196 q 246 -18 178 46 q 422 -83 313 -83 q 665 3 557 -83 q 781 225 781 94 q 682 340 781 340 q 617 319 644 340 q 586 260 586 297 q 582 236 586 236 q 571 260 571 236 q 572 273 571 265 q 578 290 574 281 q 697 357 606 357 q 797 318 760 357 q 832 214 832 279 q 683 -24 832 71 q 400 -104 551 -104 m 635 474 q 678 492 678 474 q 615 515 678 515 q 576 514 596 515 q 536 510 556 513 q 635 474 579 474 m 715 908 q 714 913 714 908 q 721 922 714 917 q 749 948 738 939 q 769 968 760 957 q 785 1000 778 979 q 783 1021 789 1011 q 763 1031 778 1031 q 738 1022 753 1031 q 707 1006 722 1014 q 706 1005 706 1006 q 704 1004 706 1004 q 702 1010 701 1004 q 707 1019 703 1017 q 745 1049 726 1038 q 793 1060 764 1060 q 828 1044 821 1060 q 829 1006 836 1028 q 797 967 819 981 q 731 922 774 954 q 722 913 725 918 q 715 908 719 908 z "},"Ȇ":{"ha":768,"x_min":97,"x_max":868,"o":"m 768 1031 q 828 1010 801 1031 q 856 951 856 990 q 854 931 856 936 q 846 918 853 925 q 831 917 831 906 q 816 967 831 943 q 750 992 801 992 q 685 985 717 992 q 615 929 653 978 q 606 917 608 919 q 599 915 603 915 q 596 921 593 915 q 599 926 597 924 q 604 933 600 928 q 634 969 613 946 q 689 1011 656 992 q 768 1031 722 1031 m 400 -104 q 189 -37 272 -104 q 97 160 97 36 q 106 231 97 197 q 250 439 143 361 q 492 528 351 513 q 449 631 449 571 q 535 779 449 722 q 707 829 610 829 q 868 719 868 829 q 835 642 868 675 q 757 608 801 608 q 715 618 735 608 q 693 651 693 631 q 696 664 693 660 q 701 672 696 672 q 706 667 706 672 q 704 660 706 663 q 701 650 701 651 q 728 624 701 624 q 804 650 772 624 q 840 718 840 678 q 803 790 840 764 q 722 814 768 814 q 564 757 629 814 q 496 606 496 699 q 517 529 496 561 q 535 531 526 531 q 551 531 543 531 q 706 489 706 531 q 656 460 706 460 q 515 506 576 460 q 188 229 247 457 q 178 154 178 196 q 246 -18 178 46 q 422 -83 313 -83 q 665 3 557 -83 q 781 225 781 94 q 682 340 781 340 q 617 319 644 340 q 586 260 586 297 q 582 236 586 236 q 571 260 571 236 q 572 273 571 265 q 578 290 574 281 q 697 357 606 357 q 797 318 760 357 q 832 214 832 279 q 683 -24 832 71 q 400 -104 551 -104 m 635 474 q 678 492 678 474 q 615 515 678 515 q 576 514 596 515 q 536 510 556 513 q 635 474 579 474 z "},"Ē":{"ha":768,"x_min":97,"x_max":869,"o":"m 400 -104 q 189 -37 272 -104 q 97 160 97 36 q 106 231 97 197 q 250 439 143 361 q 492 528 351 513 q 449 631 449 571 q 535 779 449 722 q 707 829 610 829 q 868 719 868 829 q 835 642 868 675 q 757 608 801 608 q 715 618 735 608 q 693 651 693 631 q 696 664 693 660 q 701 672 696 672 q 706 667 706 672 q 704 660 706 663 q 701 650 701 651 q 728 624 701 624 q 804 650 772 624 q 840 718 840 678 q 803 790 840 764 q 722 814 768 814 q 564 757 629 814 q 496 606 496 699 q 517 529 496 561 q 535 531 526 531 q 551 531 543 531 q 706 489 706 531 q 656 460 706 460 q 515 506 576 460 q 188 229 247 457 q 178 154 178 196 q 246 -18 178 46 q 422 -83 313 -83 q 665 3 557 -83 q 781 225 781 94 q 682 340 781 340 q 617 319 644 340 q 586 260 586 297 q 582 236 586 236 q 571 260 571 236 q 572 273 571 265 q 578 290 574 281 q 697 357 606 357 q 797 318 760 357 q 832 214 832 279 q 683 -24 832 71 q 400 -104 551 -104 m 635 474 q 678 492 678 474 q 615 515 678 515 q 576 514 596 515 q 536 510 556 513 q 635 474 579 474 m 565 914 q 561 919 561 914 q 569 935 561 926 q 586 943 576 943 l 867 943 q 869 939 869 943 q 865 922 869 931 q 849 914 860 914 l 565 914 z "},"Ŋ":{"ha":908,"x_min":-151,"x_max":1325,"o":"m 232 -519 q 116 -492 168 -519 q 39 -408 64 -465 q 18 -296 18 -360 q 35 -201 18 -237 q 71 -149 51 -164 q 99 -144 90 -133 q 71 -194 81 -164 q 61 -258 61 -224 q 83 -372 61 -314 q 157 -467 111 -437 q 258 -497 203 -497 q 405 -453 331 -497 q 532 -337 479 -410 q 615 -191 576 -276 q 693 0 654 -106 q 676 160 682 79 q 669 317 669 240 q 683 509 669 418 q 726 671 696 600 q 807 783 757 742 q 674 722 740 783 q 545 557 607 660 q 428 328 483 454 q 361 188 397 258 q 278 60 325 118 q 169 -34 231 1 q 25 -69 107 -69 q -110 -36 -68 -69 q -151 33 -151 -3 q -144 69 -151 51 q -114 92 -136 86 q -118 68 -118 79 q -98 13 -118 39 q -44 -31 -78 -14 q 25 -47 -11 -47 q 142 -11 88 -47 q 241 83 196 25 q 326 211 286 142 q 399 346 365 281 q 465 475 429 406 q 546 610 501 544 q 644 722 590 675 q 767 783 699 769 q 677 784 728 783 q 574 788 626 785 q 479 796 522 792 q 402 803 440 801 q 328 806 364 806 q 152 783 229 806 q 53 700 75 760 q 47 668 47 685 q 82 593 47 624 q 102 580 92 586 q 118 574 113 574 q 104 568 114 568 q 80 573 93 568 q 58 583 67 578 q 0 645 19 610 q -19 708 -19 681 q -15 733 -19 724 q 239 842 25 842 q 345 838 288 842 q 471 824 403 833 q 611 808 540 814 q 740 803 682 803 q 844 810 803 803 q 892 831 886 817 q 908 817 908 831 q 897 794 911 799 q 867 782 882 789 q 808 716 832 769 q 768 585 783 663 q 744 419 753 507 q 731 248 735 331 q 728 103 728 165 q 853 426 797 282 q 965 674 910 571 q 1089 833 1021 778 q 1250 889 1157 889 q 1278 888 1264 889 q 1307 883 1293 886 q 1325 875 1325 882 q 1311 869 1325 869 q 1269 874 1290 874 q 1129 825 1192 874 q 1015 692 1067 776 q 917 502 963 608 q 830 279 872 396 q 744 49 788 163 q 651 -183 696 -82 q 554 -354 607 -283 q 463 -443 517 -406 q 349 -500 410 -481 q 232 -519 289 -519 z "},"Ę":{"ha":768,"x_min":97,"x_max":868,"o":"m 400 -104 q 189 -37 272 -104 q 97 160 97 36 q 106 231 97 197 q 250 439 143 361 q 492 528 351 513 q 449 631 449 571 q 535 779 449 722 q 707 829 610 829 q 868 719 868 829 q 835 642 868 675 q 757 608 801 608 q 715 618 735 608 q 693 651 693 631 q 696 664 693 660 q 701 672 696 672 q 706 667 706 672 q 704 660 706 663 q 701 650 701 651 q 728 624 701 624 q 804 650 772 624 q 840 718 840 678 q 803 790 840 764 q 722 814 768 814 q 564 757 629 814 q 496 606 496 699 q 517 529 496 561 q 535 531 526 531 q 551 531 543 531 q 706 489 706 531 q 656 460 706 460 q 515 506 576 460 q 188 229 247 457 q 178 154 178 196 q 246 -18 178 46 q 422 -83 313 -83 q 665 3 557 -83 q 781 225 781 94 q 682 340 781 340 q 617 319 644 340 q 586 260 586 297 q 582 236 586 236 q 571 260 571 236 q 572 273 571 265 q 578 290 574 281 q 697 357 606 357 q 797 318 760 357 q 832 214 832 279 q 683 -24 832 71 q 400 -104 551 -104 m 635 474 q 678 492 678 474 q 615 515 678 515 q 576 514 596 515 q 536 510 556 513 q 635 474 579 474 m 631 -231 q 576 -215 597 -231 q 554 -168 554 -199 q 581 -103 554 -140 q 647 -29 607 -65 q 658 -22 651 -26 q 668 -17 664 -17 q 675 -17 671 -17 q 679 -19 679 -17 q 630 -86 650 -47 q 610 -157 610 -125 q 622 -190 610 -181 q 653 -199 635 -199 q 696 -190 674 -199 q 731 -172 718 -182 q 739 -168 735 -168 q 746 -178 746 -168 q 735 -194 746 -187 q 681 -222 708 -212 q 631 -231 654 -231 z "},"Ð":{"ha":1081,"x_min":19,"x_max":1135,"o":"m 142 -44 q 19 24 19 -44 q 54 72 19 56 q 118 86 82 86 q 311 28 168 86 q 439 181 381 82 q 478 253 456 208 q 531 361 501 299 q 385 303 381 303 q 369 318 369 303 q 385 339 369 331 q 452 367 411 351 q 549 399 493 382 q 821 774 675 664 q 575 826 700 826 q 315 779 426 826 q 117 608 181 722 q 78 464 78 539 q 217 293 78 318 q 231 286 231 290 q 211 278 231 278 q 190 282 201 278 q 68 353 114 300 q 21 485 21 411 q 26 533 21 508 q 39 583 31 558 q 240 792 92 725 q 533 846 364 846 q 844 789 697 846 q 1029 853 939 853 q 1044 847 1043 853 q 1035 844 1044 847 q 973 833 996 838 q 943 826 950 829 q 899 810 921 821 q 858 783 878 799 q 1135 435 1135 667 q 1132 391 1135 413 q 1124 347 1129 369 q 914 54 1078 153 q 556 -32 769 -32 q 333 3 424 -32 q 142 -44 244 -44 m 533 -21 q 897 94 749 -21 q 1058 429 1058 218 l 1060 429 q 838 765 1060 657 q 725 606 775 707 q 693 534 711 579 q 650 424 675 489 q 722 434 688 431 q 788 438 757 438 q 804 428 804 438 q 789 418 804 418 q 640 397 739 414 q 350 13 528 117 q 533 -21 440 -21 m 146 -33 q 296 17 225 -33 q 121 63 178 63 q 44 13 44 63 q 146 -33 44 -33 z "},"Ẽ":{"ha":768,"x_min":97,"x_max":868,"o":"m 400 -104 q 189 -37 272 -104 q 97 160 97 36 q 106 231 97 197 q 250 439 143 361 q 492 528 351 513 q 449 631 449 571 q 535 779 449 722 q 707 829 610 829 q 868 719 868 829 q 835 642 868 675 q 757 608 801 608 q 715 618 735 608 q 693 651 693 631 q 696 664 693 660 q 701 672 696 672 q 706 667 706 672 q 704 660 706 663 q 701 650 701 651 q 728 624 701 624 q 804 650 772 624 q 840 718 840 678 q 803 790 840 764 q 722 814 768 814 q 564 757 629 814 q 496 606 496 699 q 517 529 496 561 q 535 531 526 531 q 551 531 543 531 q 706 489 706 531 q 656 460 706 460 q 515 506 576 460 q 188 229 247 457 q 178 154 178 196 q 246 -18 178 46 q 422 -83 313 -83 q 665 3 557 -83 q 781 225 781 94 q 682 340 781 340 q 617 319 644 340 q 586 260 586 297 q 582 236 586 236 q 571 260 571 236 q 572 273 571 265 q 578 290 574 281 q 697 357 606 357 q 797 318 760 357 q 832 214 832 279 q 683 -24 832 71 q 400 -104 551 -104 m 635 474 q 678 492 678 474 q 615 515 678 515 q 576 514 596 515 q 536 510 556 513 q 635 474 579 474 m 558 913 q 557 922 556 913 q 578 973 564 950 q 624 996 593 996 q 688 985 656 996 q 751 963 721 974 q 803 951 781 951 q 836 964 826 951 q 850 988 846 976 q 858 1000 854 1000 q 860 994 861 1000 q 858 986 860 989 q 830 934 851 956 q 789 913 808 913 q 739 924 768 913 q 678 946 710 935 q 615 957 647 957 q 581 946 592 957 q 567 924 571 935 q 558 913 563 913 z "},"F":{"ha":829,"x_min":-14,"x_max":1189,"o":"m 242 -49 q 65 17 142 -49 q -14 185 -14 86 q 56 365 -14 285 q 225 461 125 440 q 219 508 219 482 q 251 643 219 575 q 338 750 285 715 q 574 818 440 818 q 783 783 669 818 q 852 762 801 779 q 986 714 903 744 q 1126 767 1063 767 q 1189 719 1189 767 q 1106 672 1189 672 q 996 696 1063 672 q 839 421 914 610 l 913 421 l 915 418 l 915 410 l 913 408 l 835 408 q 633 108 751 211 l 633 110 q 547 42 590 71 q 461 -4 504 14 q 258 -47 378 -39 q 250 -48 254 -47 q 242 -49 246 -49 m 260 -28 q 488 64 375 -28 q 650 256 579 139 q 688 319 665 282 q 742 408 711 357 l 618 408 l 617 410 l 617 418 l 618 421 l 749 421 q 971 703 883 638 q 582 778 736 778 q 349 704 426 778 q 261 496 261 619 q 261 481 261 489 q 263 467 261 474 q 274 467 269 467 q 285 468 279 468 q 446 356 417 468 q 544 429 500 379 q 596 538 596 485 q 601 546 596 546 q 607 540 607 546 q 606 536 607 539 q 606 531 606 533 q 449 343 575 393 q 453 307 453 326 q 392 171 453 229 q 253 115 332 115 q 244 122 244 115 q 258 133 244 132 q 277 136 265 135 q 303 142 289 138 q 432 271 408 167 q 436 294 435 282 q 438 315 438 306 q 437 327 438 321 q 436 339 436 333 q 376 329 407 329 q 283 361 321 329 q 229 444 244 393 q 88 335 142 411 q 32 164 32 257 q 100 18 32 68 q 260 -28 161 -28 m 1107 683 q 1176 719 1176 683 q 1122 758 1176 758 q 1007 707 1060 758 q 1107 683 1074 683 m 381 342 q 433 351 408 342 q 381 428 421 400 q 290 456 340 456 q 278 456 285 456 q 265 454 272 456 q 280 413 269 432 q 304 376 290 393 q 381 342 338 342 z "},"G":{"ha":990,"x_min":214,"x_max":1118,"o":"m 340 -426 q 217 -340 217 -426 q 357 -129 217 -229 q 517 -44 433 -76 q 693 -4 600 -12 l 724 56 q 622 26 672 36 q 524 15 572 15 q 299 93 383 15 q 214 314 214 174 q 389 704 214 529 q 314 832 314 765 q 353 921 314 881 q 518 968 396 968 q 642 942 594 968 q 650 935 650 942 q 639 928 650 928 q 613 933 629 928 q 513 950 571 950 q 371 906 400 950 q 346 826 346 868 q 401 718 346 768 q 883 913 604 913 q 1118 801 1118 913 q 1113 760 1118 781 q 1064 696 1101 726 q 733 601 950 601 q 450 664 569 601 q 332 474 376 581 q 279 256 279 353 q 524 42 279 42 q 738 82 636 42 q 814 231 782 171 q 865 322 846 292 q 1035 504 974 504 q 1083 450 1083 504 q 985 244 1083 376 q 914 169 956 206 q 815 100 872 132 l 782 -3 q 888 -57 888 -14 q 881 -67 888 -67 q 861 -57 875 -67 q 775 -24 828 -31 q 672 -247 722 -179 q 340 -426 542 -426 m 735 614 q 805 617 771 614 q 869 628 839 621 q 1000 674 942 642 q 1088 771 1082 718 q 1089 779 1089 775 q 1089 788 1089 783 q 946 894 1089 894 q 681 836 808 894 q 461 675 553 779 q 735 614 572 614 m 824 126 q 903 188 865 154 q 972 261 940 221 q 1053 439 1053 358 q 1029 479 1053 479 q 1018 476 1024 479 q 1006 469 1013 474 q 824 126 911 404 m 332 -406 q 586 -200 449 -406 q 626 -133 601 -176 q 682 -26 650 -89 q 372 -146 503 -50 q 244 -326 244 -239 q 269 -385 244 -364 q 332 -406 294 -406 z "},"Ğ":{"ha":990,"x_min":214,"x_max":1118,"o":"m 340 -426 q 217 -340 217 -426 q 357 -129 217 -229 q 517 -44 433 -76 q 693 -4 600 -12 l 724 56 q 622 26 672 36 q 524 15 572 15 q 299 93 383 15 q 214 314 214 174 q 389 704 214 529 q 314 832 314 765 q 353 921 314 881 q 518 968 396 968 q 642 942 594 968 q 650 935 650 942 q 639 928 650 928 q 613 933 629 928 q 513 950 571 950 q 371 906 400 950 q 346 826 346 868 q 401 718 346 768 q 883 913 604 913 q 1118 801 1118 913 q 1113 760 1118 781 q 1064 696 1101 726 q 733 601 950 601 q 450 664 569 601 q 332 474 376 581 q 279 256 279 353 q 524 42 279 42 q 738 82 636 42 q 814 231 782 171 q 865 322 846 292 q 1035 504 974 504 q 1083 450 1083 504 q 985 244 1083 376 q 914 169 956 206 q 815 100 872 132 l 782 -3 q 888 -57 888 -14 q 881 -67 888 -67 q 861 -57 875 -67 q 775 -24 828 -31 q 672 -247 722 -179 q 340 -426 542 -426 m 735 614 q 805 617 771 614 q 869 628 839 621 q 1000 674 942 642 q 1088 771 1082 718 q 1089 779 1089 775 q 1089 788 1089 783 q 946 894 1089 894 q 681 836 808 894 q 461 675 553 779 q 735 614 572 614 m 824 126 q 903 188 865 154 q 972 261 940 221 q 1053 439 1053 358 q 1029 479 1053 479 q 1018 476 1024 479 q 1006 469 1013 474 q 824 126 911 404 m 332 -406 q 586 -200 449 -406 q 626 -133 601 -176 q 682 -26 650 -89 q 372 -146 503 -50 q 244 -326 244 -239 q 269 -385 244 -364 q 332 -406 294 -406 m 911 989 q 831 1008 861 989 q 801 1078 801 1026 q 803 1090 801 1085 q 811 1101 804 1096 q 826 1103 826 1114 q 833 1066 826 1083 q 863 1038 840 1049 q 932 1028 886 1028 q 1005 1042 960 1028 q 1081 1090 1050 1056 q 1090 1101 1088 1097 q 1099 1104 1092 1104 q 1100 1100 1100 1104 q 1092 1086 1100 1097 q 1017 1020 1065 1051 q 911 989 968 989 z "},"Ǧ":{"ha":990,"x_min":214,"x_max":1118,"o":"m 807 1107 q 858 1082 818 1107 q 943 1026 897 1057 q 996 1058 965 1040 q 1053 1088 1026 1075 q 1093 1104 1081 1101 q 1101 1103 1103 1107 q 1085 1090 1101 1101 q 1048 1067 1068 1079 q 1015 1046 1028 1054 q 963 1009 985 1025 q 931 990 940 993 q 919 990 925 989 q 896 1007 914 993 q 847 1046 878 1021 q 826 1067 839 1054 q 805 1090 814 1079 q 796 1103 796 1101 q 807 1107 799 1107 m 340 -426 q 217 -340 217 -426 q 357 -129 217 -229 q 517 -44 433 -76 q 693 -4 600 -12 l 724 56 q 622 26 672 36 q 524 15 572 15 q 299 93 383 15 q 214 314 214 174 q 389 704 214 529 q 314 832 314 765 q 353 921 314 881 q 518 968 396 968 q 642 942 594 968 q 650 935 650 942 q 639 928 650 928 q 613 933 629 928 q 513 950 571 950 q 371 906 400 950 q 346 826 346 868 q 401 718 346 768 q 883 913 604 913 q 1118 801 1118 913 q 1113 760 1118 781 q 1064 696 1101 726 q 733 601 950 601 q 450 664 569 601 q 332 474 376 581 q 279 256 279 353 q 524 42 279 42 q 738 82 636 42 q 814 231 782 171 q 865 322 846 292 q 1035 504 974 504 q 1083 450 1083 504 q 985 244 1083 376 q 914 169 956 206 q 815 100 872 132 l 782 -3 q 888 -57 888 -14 q 881 -67 888 -67 q 861 -57 875 -67 q 775 -24 828 -31 q 672 -247 722 -179 q 340 -426 542 -426 m 735 614 q 805 617 771 614 q 869 628 839 621 q 1000 674 942 642 q 1088 771 1082 718 q 1089 779 1089 775 q 1089 788 1089 783 q 946 894 1089 894 q 681 836 808 894 q 461 675 553 779 q 735 614 572 614 m 824 126 q 903 188 865 154 q 972 261 940 221 q 1053 439 1053 358 q 1029 479 1053 479 q 1018 476 1024 479 q 1006 469 1013 474 q 824 126 911 404 m 332 -406 q 586 -200 449 -406 q 626 -133 601 -176 q 682 -26 650 -89 q 372 -146 503 -50 q 244 -326 244 -239 q 269 -385 244 -364 q 332 -406 294 -406 z "},"Ĝ":{"ha":990,"x_min":214,"x_max":1118,"o":"m 340 -426 q 217 -340 217 -426 q 357 -129 217 -229 q 517 -44 433 -76 q 693 -4 600 -12 l 724 56 q 622 26 672 36 q 524 15 572 15 q 299 93 383 15 q 214 314 214 174 q 389 704 214 529 q 314 832 314 765 q 353 921 314 881 q 518 968 396 968 q 642 942 594 968 q 650 935 650 942 q 639 928 650 928 q 613 933 629 928 q 513 950 571 950 q 371 906 400 950 q 346 826 346 868 q 401 718 346 768 q 883 913 604 913 q 1118 801 1118 913 q 1113 760 1118 781 q 1064 696 1101 726 q 733 601 950 601 q 450 664 569 601 q 332 474 376 581 q 279 256 279 353 q 524 42 279 42 q 738 82 636 42 q 814 231 782 171 q 865 322 846 292 q 1035 504 974 504 q 1083 450 1083 504 q 985 244 1083 376 q 914 169 956 206 q 815 100 872 132 l 782 -3 q 888 -57 888 -14 q 881 -67 888 -67 q 861 -57 875 -67 q 775 -24 828 -31 q 672 -247 722 -179 q 340 -426 542 -426 m 735 614 q 805 617 771 614 q 869 628 839 621 q 1000 674 942 642 q 1088 771 1082 718 q 1089 779 1089 775 q 1089 788 1089 783 q 946 894 1089 894 q 681 836 808 894 q 461 675 553 779 q 735 614 572 614 m 824 126 q 903 188 865 154 q 972 261 940 221 q 1053 439 1053 358 q 1029 479 1053 479 q 1018 476 1024 479 q 1006 469 1013 474 q 824 126 911 404 m 332 -406 q 586 -200 449 -406 q 626 -133 601 -176 q 682 -26 650 -89 q 372 -146 503 -50 q 244 -326 244 -239 q 269 -385 244 -364 q 332 -406 294 -406 m 1074 990 q 1024 1015 1064 990 q 938 1071 983 1040 q 885 1040 915 1057 q 827 1009 854 1022 q 788 993 800 996 q 779 994 778 990 q 797 1008 781 997 q 833 1031 813 1018 q 865 1051 853 1043 q 919 1089 897 1072 q 950 1107 940 1106 q 961 1107 956 1108 q 985 1091 968 1106 q 1033 1051 1003 1076 q 1055 1031 1043 1044 q 1076 1008 1067 1018 q 1085 994 1086 997 q 1074 990 1083 990 z "},"Ģ":{"ha":990,"x_min":214,"x_max":1118,"o":"m 340 -426 q 217 -340 217 -426 q 357 -129 217 -229 q 517 -44 433 -76 q 693 -4 600 -12 l 724 56 q 622 26 672 36 q 524 15 572 15 q 299 93 383 15 q 214 314 214 174 q 389 704 214 529 q 314 832 314 765 q 353 921 314 881 q 518 968 396 968 q 642 942 594 968 q 650 935 650 942 q 639 928 650 928 q 613 933 629 928 q 513 950 571 950 q 371 906 400 950 q 346 826 346 868 q 401 718 346 768 q 883 913 604 913 q 1118 801 1118 913 q 1113 760 1118 781 q 1064 696 1101 726 q 733 601 950 601 q 450 664 569 601 q 332 474 376 581 q 279 256 279 353 q 524 42 279 42 q 738 82 636 42 q 814 231 782 171 q 865 322 846 292 q 1035 504 974 504 q 1083 450 1083 504 q 985 244 1083 376 q 914 169 956 206 q 815 100 872 132 l 782 -3 q 888 -57 888 -14 q 881 -67 888 -67 q 861 -57 875 -67 q 775 -24 828 -31 q 672 -247 722 -179 q 340 -426 542 -426 m 735 614 q 805 617 771 614 q 869 628 839 621 q 1000 674 942 642 q 1088 771 1082 718 q 1089 779 1089 775 q 1089 788 1089 783 q 946 894 1089 894 q 681 836 808 894 q 461 675 553 779 q 735 614 572 614 m 824 126 q 903 188 865 154 q 972 261 940 221 q 1053 439 1053 358 q 1029 479 1053 479 q 1018 476 1024 479 q 1006 469 1013 474 q 824 126 911 404 m 332 -406 q 586 -200 449 -406 q 626 -133 601 -176 q 682 -26 650 -89 q 372 -146 503 -50 q 244 -326 244 -239 q 269 -385 244 -364 q 332 -406 294 -406 m 236 -728 q 221 -721 221 -728 q 231 -717 221 -718 q 296 -687 265 -711 q 347 -630 326 -662 q 371 -568 367 -597 q 325 -590 349 -590 q 297 -577 306 -590 q 289 -542 288 -564 q 310 -509 292 -522 q 346 -496 328 -496 q 382 -509 368 -496 q 396 -549 396 -522 q 381 -608 396 -576 q 345 -667 367 -640 q 300 -707 324 -693 q 258 -725 274 -722 q 236 -728 242 -728 z "},"Ġ":{"ha":990,"x_min":214,"x_max":1118,"o":"m 340 -426 q 217 -340 217 -426 q 357 -129 217 -229 q 517 -44 433 -76 q 693 -4 600 -12 l 724 56 q 622 26 672 36 q 524 15 572 15 q 299 93 383 15 q 214 314 214 174 q 389 704 214 529 q 314 832 314 765 q 353 921 314 881 q 518 968 396 968 q 642 942 594 968 q 650 935 650 942 q 639 928 650 928 q 613 933 629 928 q 513 950 571 950 q 371 906 400 950 q 346 826 346 868 q 401 718 346 768 q 883 913 604 913 q 1118 801 1118 913 q 1113 760 1118 781 q 1064 696 1101 726 q 733 601 950 601 q 450 664 569 601 q 332 474 376 581 q 279 256 279 353 q 524 42 279 42 q 738 82 636 42 q 814 231 782 171 q 865 322 846 292 q 1035 504 974 504 q 1083 450 1083 504 q 985 244 1083 376 q 914 169 956 206 q 815 100 872 132 l 782 -3 q 888 -57 888 -14 q 881 -67 888 -67 q 861 -57 875 -67 q 775 -24 828 -31 q 672 -247 722 -179 q 340 -426 542 -426 m 735 614 q 805 617 771 614 q 869 628 839 621 q 1000 674 942 642 q 1088 771 1082 718 q 1089 779 1089 775 q 1089 788 1089 783 q 946 894 1089 894 q 681 836 808 894 q 461 675 553 779 q 735 614 572 614 m 824 126 q 903 188 865 154 q 972 261 940 221 q 1053 439 1053 358 q 1029 479 1053 479 q 1018 476 1024 479 q 1006 469 1013 474 q 824 126 911 404 m 332 -406 q 586 -200 449 -406 q 626 -133 601 -176 q 682 -26 650 -89 q 372 -146 503 -50 q 244 -326 244 -239 q 269 -385 244 -364 q 332 -406 294 -406 m 922 994 q 889 1025 889 994 q 902 1056 889 1043 q 933 1069 915 1069 q 967 1039 967 1069 q 952 1008 967 1021 q 922 994 938 994 z "},"ẞ":{"ha":763,"x_min":-387,"x_max":832,"o":"m -256 -297 q -351 -269 -315 -297 q -387 -201 -387 -242 q -376 -171 -387 -171 q -366 -179 -371 -171 q -361 -203 -361 -187 q -331 -256 -361 -237 q -254 -275 -300 -275 q -145 -251 -204 -275 q -37 -175 -86 -226 q 33 -82 -6 -140 q 112 48 71 -24 q 192 194 153 119 q 264 338 231 269 q 322 456 297 406 q 391 590 357 524 q 466 709 425 656 q 559 794 507 763 q 682 826 611 826 q 794 786 757 828 q 832 689 832 744 q 798 585 832 638 q 696 504 764 532 q 656 491 678 497 q 608 482 635 485 q 599 479 599 482 q 653 450 599 465 q 769 382 733 425 q 806 288 806 339 q 769 176 806 233 q 670 72 733 119 q 526 -6 607 24 q 353 -35 444 -35 q 250 -19 282 -35 q 218 22 218 -4 q 248 81 218 51 q 322 135 278 110 q 411 174 367 160 q 486 189 456 189 q 499 183 499 189 q 482 176 499 179 q 383 145 431 167 q 306 94 336 124 q 276 32 276 65 q 298 5 276 14 q 379 -4 319 -4 q 513 22 451 -4 q 619 91 574 49 q 690 184 665 133 q 715 283 715 235 q 692 365 715 328 q 619 425 669 403 q 585 438 606 432 q 551 447 565 443 q 536 456 536 451 q 597 500 536 478 q 690 558 650 519 q 753 640 731 596 q 775 724 775 685 q 753 783 775 760 q 682 807 731 807 q 592 774 633 807 q 517 688 551 742 q 452 571 482 635 q 394 444 422 507 q 337 322 371 390 q 266 185 303 253 q 198 63 229 117 q 150 -17 167 8 q 3 -182 76 -121 q -136 -270 -69 -243 q -256 -297 -203 -297 z "},"H":{"ha":1425,"x_min":33,"x_max":1840,"o":"m 349 -44 q 129 26 217 -44 q 33 232 33 104 q 107 425 33 357 q 306 493 179 493 q 435 446 382 493 q 492 324 492 397 q 446 213 492 258 q 335 167 403 167 q 269 183 269 167 q 271 188 269 185 q 278 190 274 190 q 283 189 278 190 q 300 183 289 188 q 338 176 325 176 q 435 224 396 176 q 475 325 475 268 q 414 444 475 400 q 282 482 363 482 q 114 411 179 482 q 51 238 51 343 q 132 43 51 118 q 331 -28 211 -28 q 701 144 538 -28 q 804 279 744 192 q 939 496 864 367 q 1211 810 1065 710 q 999 874 1003 874 q 782 908 874 908 q 571 843 656 908 q 467 635 467 760 q 519 496 467 551 q 657 443 575 443 q 817 504 751 443 q 888 657 883 564 q 896 675 890 675 q 904 656 904 675 q 826 490 904 557 q 651 428 751 428 q 486 489 556 428 q 414 649 414 553 q 449 774 414 714 q 540 867 483 833 q 776 924 643 924 q 1007 890 878 924 q 1090 867 1035 883 q 1231 822 1146 850 q 1417 881 1325 881 q 1526 824 1526 881 q 1482 779 1526 794 q 1413 768 1449 768 q 1240 801 1351 768 q 999 443 1094 696 l 1336 443 q 1451 607 1392 533 q 1628 792 1550 729 q 1767 854 1707 854 l 1772 854 q 1822 832 1804 854 q 1840 779 1840 810 q 1811 693 1840 739 l 1811 694 q 1807 692 1811 700 q 1796 685 1803 685 q 1794 688 1794 685 q 1801 699 1794 693 q 1829 781 1829 746 q 1774 843 1829 843 q 1561 671 1690 843 q 1353 319 1447 519 q 1260 36 1260 121 q 1283 -4 1260 -4 q 1301 1 1290 -4 q 1457 144 1382 33 l 1457 143 q 1460 145 1457 138 q 1469 154 1464 153 q 1472 149 1472 153 q 1469 140 1472 143 q 1428 86 1446 108 q 1399 53 1411 64 q 1355 15 1378 31 q 1308 -12 1332 -1 q 1285 -21 1296 -18 q 1264 -24 1274 -24 q 1203 78 1203 -24 q 1326 428 1203 221 l 993 428 q 778 103 908 210 q 595 -3 697 39 q 369 -44 493 -44 l 349 -44 m 1414 781 q 1471 790 1443 781 q 1511 824 1511 803 q 1431 865 1511 865 q 1258 814 1339 865 q 1414 781 1365 781 z "},"Ħ":{"ha":1425,"x_min":33,"x_max":1840,"o":"m 349 -44 q 129 26 217 -44 q 33 232 33 104 q 107 425 33 357 q 306 493 179 493 q 435 446 382 493 q 492 324 492 397 q 446 213 492 258 q 335 167 403 167 q 269 183 269 167 q 271 188 269 185 q 278 190 274 190 q 283 189 278 190 q 300 183 289 188 q 338 176 325 176 q 435 224 396 176 q 475 325 475 268 q 414 444 475 400 q 282 482 363 482 q 114 411 179 482 q 51 238 51 343 q 132 43 51 118 q 331 -28 211 -28 q 701 144 538 -28 q 804 279 744 192 q 939 496 864 367 q 1211 810 1065 710 q 999 874 1003 874 q 782 908 874 908 q 571 843 656 908 q 467 635 467 760 q 519 496 467 551 q 657 443 575 443 q 817 504 751 443 q 888 657 883 564 q 896 675 890 675 q 904 656 904 675 q 826 490 904 557 q 651 428 751 428 q 486 489 556 428 q 414 649 414 553 q 449 774 414 714 q 540 867 483 833 q 776 924 643 924 q 1007 890 878 924 q 1090 867 1035 883 q 1231 822 1146 850 q 1417 881 1325 881 q 1526 824 1526 881 q 1482 779 1526 794 q 1413 768 1449 768 q 1240 801 1351 768 q 999 443 1094 696 l 1336 443 q 1451 607 1392 533 q 1628 792 1550 729 q 1767 854 1707 854 l 1772 854 q 1822 832 1804 854 q 1840 779 1840 810 q 1811 693 1840 739 l 1811 694 q 1807 692 1811 700 q 1796 685 1803 685 q 1794 688 1794 685 q 1801 699 1794 693 q 1829 781 1829 746 q 1774 843 1829 843 q 1561 671 1690 843 q 1353 319 1447 519 q 1260 36 1260 121 q 1283 -4 1260 -4 q 1301 1 1290 -4 q 1457 144 1382 33 l 1457 143 q 1460 145 1457 138 q 1469 154 1464 153 q 1472 149 1472 153 q 1469 140 1472 143 q 1428 86 1446 108 q 1399 53 1411 64 q 1355 15 1378 31 q 1308 -12 1332 -1 q 1285 -21 1296 -18 q 1264 -24 1274 -24 q 1203 78 1203 -24 q 1326 428 1203 221 l 993 428 q 778 103 908 210 q 595 -3 697 39 q 369 -44 493 -44 l 349 -44 m 1414 781 q 1471 790 1443 781 q 1511 824 1511 803 q 1431 865 1511 865 q 1258 814 1339 865 q 1414 781 1365 781 m 1644 640 l 919 642 l 919 671 l 921 672 l 1646 671 l 1646 642 l 1644 640 z "},"Ĥ":{"ha":1425,"x_min":33,"x_max":1840,"o":"m 349 -44 q 129 26 217 -44 q 33 232 33 104 q 107 425 33 357 q 306 493 179 493 q 435 446 382 493 q 492 324 492 397 q 446 213 492 258 q 335 167 403 167 q 269 183 269 167 q 271 188 269 185 q 278 190 274 190 q 283 189 278 190 q 300 183 289 188 q 338 176 325 176 q 435 224 396 176 q 475 325 475 268 q 414 444 475 400 q 282 482 363 482 q 114 411 179 482 q 51 238 51 343 q 132 43 51 118 q 331 -28 211 -28 q 701 144 538 -28 q 804 279 744 192 q 939 496 864 367 q 1211 810 1065 710 q 999 874 1003 874 q 782 908 874 908 q 571 843 656 908 q 467 635 467 760 q 519 496 467 551 q 657 443 575 443 q 817 504 751 443 q 888 657 883 564 q 896 675 890 675 q 904 656 904 675 q 826 490 904 557 q 651 428 751 428 q 486 489 556 428 q 414 649 414 553 q 449 774 414 714 q 540 867 483 833 q 776 924 643 924 q 1007 890 878 924 q 1090 867 1035 883 q 1231 822 1146 850 q 1417 881 1325 881 q 1526 824 1526 881 q 1482 779 1526 794 q 1413 768 1449 768 q 1240 801 1351 768 q 999 443 1094 696 l 1336 443 q 1451 607 1392 533 q 1628 792 1550 729 q 1767 854 1707 854 l 1772 854 q 1822 832 1804 854 q 1840 779 1840 810 q 1811 693 1840 739 l 1811 694 q 1807 692 1811 700 q 1796 685 1803 685 q 1794 688 1794 685 q 1801 699 1794 693 q 1829 781 1829 746 q 1774 843 1829 843 q 1561 671 1690 843 q 1353 319 1447 519 q 1260 36 1260 121 q 1283 -4 1260 -4 q 1301 1 1290 -4 q 1457 144 1382 33 l 1457 143 q 1460 145 1457 138 q 1469 154 1464 153 q 1472 149 1472 153 q 1469 140 1472 143 q 1428 86 1446 108 q 1399 53 1411 64 q 1355 15 1378 31 q 1308 -12 1332 -1 q 1285 -21 1296 -18 q 1264 -24 1274 -24 q 1203 78 1203 -24 q 1326 428 1203 221 l 993 428 q 778 103 908 210 q 595 -3 697 39 q 369 -44 493 -44 l 349 -44 m 1414 781 q 1471 790 1443 781 q 1511 824 1511 803 q 1431 865 1511 865 q 1258 814 1339 865 q 1414 781 1365 781 m 1693 940 q 1665 954 1686 940 q 1618 987 1643 968 q 1575 1021 1593 1006 q 1502 973 1540 999 q 1444 943 1464 947 q 1436 944 1435 940 q 1452 957 1438 947 q 1486 980 1467 967 q 1517 1001 1506 993 q 1568 1040 1549 1025 q 1597 1057 1588 1056 q 1608 1057 1603 1058 q 1626 1040 1615 1056 q 1657 1001 1638 1025 q 1676 981 1664 993 q 1697 958 1688 968 q 1704 944 1706 947 q 1693 940 1703 940 z "},"I":{"ha":818,"x_min":40,"x_max":1199,"o":"m 299 -65 q 119 -3 194 -65 q 40 167 40 67 q 144 389 40 300 q 378 475 246 475 q 494 439 447 475 q 546 331 546 399 q 476 200 546 250 q 331 153 413 153 q 263 176 290 153 q 235 242 235 201 q 247 296 235 267 l 247 294 q 250 299 247 288 q 258 310 253 310 q 263 306 263 308 q 254 279 263 300 q 247 244 247 258 q 274 185 247 207 q 338 164 301 164 q 465 213 413 164 q 519 336 519 263 q 483 428 519 396 q 389 461 449 461 q 168 365 256 461 q 82 138 82 274 q 143 -3 82 46 q 293 -47 200 -47 q 324 -46 310 -47 q 350 -42 339 -44 q 608 115 508 0 q 754 383 692 211 q 738 382 746 382 q 724 382 731 382 q 574 432 632 382 q 508 574 508 485 q 711 811 508 733 q 1050 867 856 867 q 1135 863 1099 867 q 1199 851 1172 860 l 1197 849 l 1192 849 q 1150 840 1169 849 q 1140 834 1147 839 q 1121 822 1132 829 q 1033 753 1074 792 q 961 665 993 714 q 999 586 999 635 q 949 471 999 525 q 842 400 903 421 q 346 -61 731 6 q 299 -65 321 -65 m 749 396 l 758 396 q 826 546 786 476 q 914 675 865 615 q 878 679 896 679 q 801 657 839 679 q 761 593 761 631 q 767 572 761 579 q 772 560 772 565 q 768 557 772 557 q 747 592 747 568 q 790 667 747 636 q 874 694 829 694 q 924 686 899 694 q 1142 849 1032 814 l 1139 849 q 1119 849 1131 849 q 1092 850 1107 849 q 1065 853 1076 853 q 1044 853 1053 853 q 908 842 974 853 q 782 808 843 832 q 583 643 632 753 q 563 550 563 596 q 621 433 563 478 q 681 405 649 414 q 749 396 713 396 m 847 417 q 940 483 903 442 q 985 588 985 532 q 954 654 985 629 q 847 417 889 554 z "},"Í":{"ha":818,"x_min":40,"x_max":1289,"o":"m 299 -65 q 119 -3 194 -65 q 40 167 40 67 q 144 389 40 300 q 378 475 246 475 q 494 439 447 475 q 546 331 546 399 q 476 200 546 250 q 331 153 413 153 q 263 176 290 153 q 235 242 235 201 q 247 296 235 267 l 247 294 q 250 299 247 288 q 258 310 253 310 q 263 306 263 308 q 254 279 263 300 q 247 244 247 258 q 274 185 247 207 q 338 164 301 164 q 465 213 413 164 q 519 336 519 263 q 483 428 519 396 q 389 461 449 461 q 168 365 256 461 q 82 138 82 274 q 143 -3 82 46 q 293 -47 200 -47 q 324 -46 310 -47 q 350 -42 339 -44 q 608 115 508 0 q 754 383 692 211 q 738 382 746 382 q 724 382 731 382 q 574 432 632 382 q 508 574 508 485 q 711 811 508 733 q 1050 867 856 867 q 1135 863 1099 867 q 1199 851 1172 860 l 1197 849 l 1192 849 q 1150 840 1169 849 q 1140 834 1147 839 q 1121 822 1132 829 q 1033 753 1074 792 q 961 665 993 714 q 999 586 999 635 q 949 471 999 525 q 842 400 903 421 q 346 -61 731 6 q 299 -65 321 -65 m 749 396 l 758 396 q 826 546 786 476 q 914 675 865 615 q 878 679 896 679 q 801 657 839 679 q 761 593 761 631 q 767 572 761 579 q 772 560 772 565 q 768 557 772 557 q 747 592 747 568 q 790 667 747 636 q 874 694 829 694 q 924 686 899 694 q 1142 849 1032 814 l 1139 849 q 1119 849 1131 849 q 1092 850 1107 849 q 1065 853 1076 853 q 1044 853 1053 853 q 908 842 974 853 q 782 808 843 832 q 583 643 632 753 q 563 550 563 596 q 621 433 563 478 q 681 405 649 414 q 749 396 713 396 m 847 417 q 940 483 903 442 q 985 588 985 532 q 954 654 985 629 q 847 417 889 554 m 1067 949 q 1082 963 1067 951 q 1117 989 1097 975 q 1147 1010 1136 1003 q 1222 1060 1189 1038 q 1264 1083 1256 1083 q 1281 1072 1272 1083 q 1282 1056 1289 1060 q 1238 1031 1274 1050 q 1158 990 1201 1011 q 1081 951 1114 968 q 1067 949 1067 944 z "},"Ĭ":{"ha":818,"x_min":40,"x_max":1344,"o":"m 299 -65 q 119 -3 194 -65 q 40 167 40 67 q 144 389 40 300 q 378 475 246 475 q 494 439 447 475 q 546 331 546 399 q 476 200 546 250 q 331 153 413 153 q 263 176 290 153 q 235 242 235 201 q 247 296 235 267 l 247 294 q 250 299 247 288 q 258 310 253 310 q 263 306 263 308 q 254 279 263 300 q 247 244 247 258 q 274 185 247 207 q 338 164 301 164 q 465 213 413 164 q 519 336 519 263 q 483 428 519 396 q 389 461 449 461 q 168 365 256 461 q 82 138 82 274 q 143 -3 82 46 q 293 -47 200 -47 q 324 -46 310 -47 q 350 -42 339 -44 q 608 115 508 0 q 754 383 692 211 q 738 382 746 382 q 724 382 731 382 q 574 432 632 382 q 508 574 508 485 q 711 811 508 733 q 1050 867 856 867 q 1135 863 1099 867 q 1199 851 1172 860 l 1197 849 l 1192 849 q 1150 840 1169 849 q 1140 834 1147 839 q 1121 822 1132 829 q 1033 753 1074 792 q 961 665 993 714 q 999 586 999 635 q 949 471 999 525 q 842 400 903 421 q 346 -61 731 6 q 299 -65 321 -65 m 749 396 l 758 396 q 826 546 786 476 q 914 675 865 615 q 878 679 896 679 q 801 657 839 679 q 761 593 761 631 q 767 572 761 579 q 772 560 772 565 q 768 557 772 557 q 747 592 747 568 q 790 667 747 636 q 874 694 829 694 q 924 686 899 694 q 1142 849 1032 814 l 1139 849 q 1119 849 1131 849 q 1092 850 1107 849 q 1065 853 1076 853 q 1044 853 1053 853 q 908 842 974 853 q 782 808 843 832 q 583 643 632 753 q 563 550 563 596 q 621 433 563 478 q 681 405 649 414 q 749 396 713 396 m 847 417 q 940 483 903 442 q 985 588 985 532 q 954 654 985 629 q 847 417 889 554 m 1156 939 q 1076 958 1106 939 q 1046 1028 1046 976 q 1047 1040 1046 1035 q 1056 1051 1049 1046 q 1071 1053 1071 1064 q 1078 1016 1071 1033 q 1108 988 1085 999 q 1176 978 1131 978 q 1249 992 1204 978 q 1325 1040 1294 1006 q 1334 1051 1332 1047 q 1343 1054 1336 1054 q 1344 1050 1344 1054 q 1336 1036 1344 1047 q 1261 970 1310 1001 q 1156 939 1213 939 z "},"Ǐ":{"ha":818,"x_min":40,"x_max":1347,"o":"m 1051 1057 q 1102 1032 1063 1057 q 1188 976 1142 1007 q 1240 1008 1210 990 q 1298 1038 1271 1025 q 1338 1054 1325 1051 q 1346 1053 1347 1057 q 1329 1040 1346 1051 q 1292 1017 1313 1029 q 1260 996 1272 1004 q 1207 959 1229 975 q 1175 940 1185 943 q 1164 940 1169 939 q 1140 957 1158 943 q 1092 996 1122 971 q 1071 1017 1083 1004 q 1049 1040 1058 1029 q 1040 1053 1040 1051 q 1051 1057 1043 1057 m 299 -65 q 119 -3 194 -65 q 40 167 40 67 q 144 389 40 300 q 378 475 246 475 q 494 439 447 475 q 546 331 546 399 q 476 200 546 250 q 331 153 413 153 q 263 176 290 153 q 235 242 235 201 q 247 296 235 267 l 247 294 q 250 299 247 288 q 258 310 253 310 q 263 306 263 308 q 254 279 263 300 q 247 244 247 258 q 274 185 247 207 q 338 164 301 164 q 465 213 413 164 q 519 336 519 263 q 483 428 519 396 q 389 461 449 461 q 168 365 256 461 q 82 138 82 274 q 143 -3 82 46 q 293 -47 200 -47 q 324 -46 310 -47 q 350 -42 339 -44 q 608 115 508 0 q 754 383 692 211 q 738 382 746 382 q 724 382 731 382 q 574 432 632 382 q 508 574 508 485 q 711 811 508 733 q 1050 867 856 867 q 1135 863 1099 867 q 1199 851 1172 860 l 1197 849 l 1192 849 q 1150 840 1169 849 q 1140 834 1147 839 q 1121 822 1132 829 q 1033 753 1074 792 q 961 665 993 714 q 999 586 999 635 q 949 471 999 525 q 842 400 903 421 q 346 -61 731 6 q 299 -65 321 -65 m 749 396 l 758 396 q 826 546 786 476 q 914 675 865 615 q 878 679 896 679 q 801 657 839 679 q 761 593 761 631 q 767 572 761 579 q 772 560 772 565 q 768 557 772 557 q 747 592 747 568 q 790 667 747 636 q 874 694 829 694 q 924 686 899 694 q 1142 849 1032 814 l 1139 849 q 1119 849 1131 849 q 1092 850 1107 849 q 1065 853 1076 853 q 1044 853 1053 853 q 908 842 974 853 q 782 808 843 832 q 583 643 632 753 q 563 550 563 596 q 621 433 563 478 q 681 405 649 414 q 749 396 713 396 m 847 417 q 940 483 903 442 q 985 588 985 532 q 954 654 985 629 q 847 417 889 554 z "},"Î":{"ha":818,"x_min":40,"x_max":1331,"o":"m 299 -65 q 119 -3 194 -65 q 40 167 40 67 q 144 389 40 300 q 378 475 246 475 q 494 439 447 475 q 546 331 546 399 q 476 200 546 250 q 331 153 413 153 q 263 176 290 153 q 235 242 235 201 q 247 296 235 267 l 247 294 q 250 299 247 288 q 258 310 253 310 q 263 306 263 308 q 254 279 263 300 q 247 244 247 258 q 274 185 247 207 q 338 164 301 164 q 465 213 413 164 q 519 336 519 263 q 483 428 519 396 q 389 461 449 461 q 168 365 256 461 q 82 138 82 274 q 143 -3 82 46 q 293 -47 200 -47 q 324 -46 310 -47 q 350 -42 339 -44 q 608 115 508 0 q 754 383 692 211 q 738 382 746 382 q 724 382 731 382 q 574 432 632 382 q 508 574 508 485 q 711 811 508 733 q 1050 867 856 867 q 1135 863 1099 867 q 1199 851 1172 860 l 1197 849 l 1192 849 q 1150 840 1169 849 q 1140 834 1147 839 q 1121 822 1132 829 q 1033 753 1074 792 q 961 665 993 714 q 999 586 999 635 q 949 471 999 525 q 842 400 903 421 q 346 -61 731 6 q 299 -65 321 -65 m 749 396 l 758 396 q 826 546 786 476 q 914 675 865 615 q 878 679 896 679 q 801 657 839 679 q 761 593 761 631 q 767 572 761 579 q 772 560 772 565 q 768 557 772 557 q 747 592 747 568 q 790 667 747 636 q 874 694 829 694 q 924 686 899 694 q 1142 849 1032 814 l 1139 849 q 1119 849 1131 849 q 1092 850 1107 849 q 1065 853 1076 853 q 1044 853 1053 853 q 908 842 974 853 q 782 808 843 832 q 583 643 632 753 q 563 550 563 596 q 621 433 563 478 q 681 405 649 414 q 749 396 713 396 m 847 417 q 940 483 903 442 q 985 588 985 532 q 954 654 985 629 q 847 417 889 554 m 1318 940 q 1268 965 1308 940 q 1182 1021 1228 990 q 1129 990 1160 1007 q 1072 959 1099 972 q 1032 943 1044 946 q 1024 944 1022 940 q 1041 958 1025 947 q 1077 981 1057 968 q 1110 1001 1097 993 q 1163 1039 1142 1022 q 1194 1057 1185 1056 q 1206 1057 1200 1058 q 1230 1041 1213 1056 q 1278 1001 1247 1026 q 1299 981 1288 994 q 1321 958 1311 968 q 1329 944 1331 947 q 1318 940 1328 940 z "},"Ȉ":{"ha":818,"x_min":40,"x_max":1231,"o":"m 1231 944 q 1217 950 1229 940 q 1150 994 1186 969 q 1085 1040 1114 1019 q 1050 1067 1057 1060 q 1053 1083 1044 1072 q 1071 1092 1063 1093 q 1107 1065 1079 1090 q 1158 1017 1135 1039 q 1185 991 1168 1007 q 1217 961 1203 975 q 1231 944 1231 947 m 1136 949 q 1122 951 1136 944 q 1050 987 1089 968 q 981 1022 1011 1006 q 940 1044 950 1039 q 942 1060 935 1049 q 958 1072 950 1072 q 998 1051 967 1072 q 1056 1010 1029 1029 q 1085 989 1067 1003 q 1120 963 1104 975 q 1136 949 1136 951 m 299 -65 q 119 -3 194 -65 q 40 167 40 67 q 144 389 40 300 q 378 475 246 475 q 494 439 447 475 q 546 331 546 399 q 476 200 546 250 q 331 153 413 153 q 263 176 290 153 q 235 242 235 201 q 247 296 235 267 l 247 294 q 250 299 247 288 q 258 310 253 310 q 263 306 263 308 q 254 279 263 300 q 247 244 247 258 q 274 185 247 207 q 338 164 301 164 q 465 213 413 164 q 519 336 519 263 q 483 428 519 396 q 389 461 449 461 q 168 365 256 461 q 82 138 82 274 q 143 -3 82 46 q 293 -47 200 -47 q 324 -46 310 -47 q 350 -42 339 -44 q 608 115 508 0 q 754 383 692 211 q 738 382 746 382 q 724 382 731 382 q 574 432 632 382 q 508 574 508 485 q 711 811 508 733 q 1050 867 856 867 q 1135 863 1099 867 q 1199 851 1172 860 l 1197 849 l 1192 849 q 1150 840 1169 849 q 1140 834 1147 839 q 1121 822 1132 829 q 1033 753 1074 792 q 961 665 993 714 q 999 586 999 635 q 949 471 999 525 q 842 400 903 421 q 346 -61 731 6 q 299 -65 321 -65 m 749 396 l 758 396 q 826 546 786 476 q 914 675 865 615 q 878 679 896 679 q 801 657 839 679 q 761 593 761 631 q 767 572 761 579 q 772 560 772 565 q 768 557 772 557 q 747 592 747 568 q 790 667 747 636 q 874 694 829 694 q 924 686 899 694 q 1142 849 1032 814 l 1139 849 q 1119 849 1131 849 q 1092 850 1107 849 q 1065 853 1076 853 q 1044 853 1053 853 q 908 842 974 853 q 782 808 843 832 q 583 643 632 753 q 563 550 563 596 q 621 433 563 478 q 681 405 649 414 q 749 396 713 396 m 847 417 q 940 483 903 442 q 985 588 985 532 q 954 654 985 629 q 847 417 889 554 z "},"Ï":{"ha":818,"x_min":40,"x_max":1272,"o":"m 299 -65 q 119 -3 194 -65 q 40 167 40 67 q 144 389 40 300 q 378 475 246 475 q 494 439 447 475 q 546 331 546 399 q 476 200 546 250 q 331 153 413 153 q 263 176 290 153 q 235 242 235 201 q 247 296 235 267 l 247 294 q 250 299 247 288 q 258 310 253 310 q 263 306 263 308 q 254 279 263 300 q 247 244 247 258 q 274 185 247 207 q 338 164 301 164 q 465 213 413 164 q 519 336 519 263 q 483 428 519 396 q 389 461 449 461 q 168 365 256 461 q 82 138 82 274 q 143 -3 82 46 q 293 -47 200 -47 q 324 -46 310 -47 q 350 -42 339 -44 q 608 115 508 0 q 754 383 692 211 q 738 382 746 382 q 724 382 731 382 q 574 432 632 382 q 508 574 508 485 q 711 811 508 733 q 1050 867 856 867 q 1135 863 1099 867 q 1199 851 1172 860 l 1197 849 l 1192 849 q 1150 840 1169 849 q 1140 834 1147 839 q 1121 822 1132 829 q 1033 753 1074 792 q 961 665 993 714 q 999 586 999 635 q 949 471 999 525 q 842 400 903 421 q 346 -61 731 6 q 299 -65 321 -65 m 749 396 l 758 396 q 826 546 786 476 q 914 675 865 615 q 878 679 896 679 q 801 657 839 679 q 761 593 761 631 q 767 572 761 579 q 772 560 772 565 q 768 557 772 557 q 747 592 747 568 q 790 667 747 636 q 874 694 829 694 q 924 686 899 694 q 1142 849 1032 814 l 1139 849 q 1119 849 1131 849 q 1092 850 1107 849 q 1065 853 1076 853 q 1044 853 1053 853 q 908 842 974 853 q 782 808 843 832 q 583 643 632 753 q 563 550 563 596 q 621 433 563 478 q 681 405 649 414 q 749 396 713 396 m 847 417 q 940 483 903 442 q 985 588 985 532 q 954 654 985 629 q 847 417 889 554 m 1228 944 q 1194 975 1194 944 q 1208 1006 1194 993 q 1239 1019 1221 1019 q 1272 989 1272 1019 q 1258 958 1272 971 q 1228 944 1243 944 m 1078 944 q 1044 975 1044 944 q 1058 1006 1044 993 q 1089 1019 1071 1019 q 1122 989 1122 1019 q 1108 958 1122 971 q 1078 944 1093 944 z "},"İ":{"ha":818,"x_min":40,"x_max":1211,"o":"m 299 -65 q 119 -3 194 -65 q 40 167 40 67 q 144 389 40 300 q 378 475 246 475 q 494 439 447 475 q 546 331 546 399 q 476 200 546 250 q 331 153 413 153 q 263 176 290 153 q 235 242 235 201 q 247 296 235 267 l 247 294 q 250 299 247 288 q 258 310 253 310 q 263 306 263 308 q 254 279 263 300 q 247 244 247 258 q 274 185 247 207 q 338 164 301 164 q 465 213 413 164 q 519 336 519 263 q 483 428 519 396 q 389 461 449 461 q 168 365 256 461 q 82 138 82 274 q 143 -3 82 46 q 293 -47 200 -47 q 324 -46 310 -47 q 350 -42 339 -44 q 608 115 508 0 q 754 383 692 211 q 738 382 746 382 q 724 382 731 382 q 574 432 632 382 q 508 574 508 485 q 711 811 508 733 q 1050 867 856 867 q 1135 863 1099 867 q 1199 851 1172 860 l 1197 849 l 1192 849 q 1150 840 1169 849 q 1140 834 1147 839 q 1121 822 1132 829 q 1033 753 1074 792 q 961 665 993 714 q 999 586 999 635 q 949 471 999 525 q 842 400 903 421 q 346 -61 731 6 q 299 -65 321 -65 m 749 396 l 758 396 q 826 546 786 476 q 914 675 865 615 q 878 679 896 679 q 801 657 839 679 q 761 593 761 631 q 767 572 761 579 q 772 560 772 565 q 768 557 772 557 q 747 592 747 568 q 790 667 747 636 q 874 694 829 694 q 924 686 899 694 q 1142 849 1032 814 l 1139 849 q 1119 849 1131 849 q 1092 850 1107 849 q 1065 853 1076 853 q 1044 853 1053 853 q 908 842 974 853 q 782 808 843 832 q 583 643 632 753 q 563 550 563 596 q 621 433 563 478 q 681 405 649 414 q 749 396 713 396 m 847 417 q 940 483 903 442 q 985 588 985 532 q 954 654 985 629 q 847 417 889 554 m 1167 944 q 1133 975 1133 944 q 1147 1006 1133 993 q 1178 1019 1160 1019 q 1211 989 1211 1019 q 1197 958 1211 971 q 1167 944 1182 944 z "},"Ị":{"ha":818,"x_min":40,"x_max":1199,"o":"m 299 -65 q 119 -3 194 -65 q 40 167 40 67 q 144 389 40 300 q 378 475 246 475 q 494 439 447 475 q 546 331 546 399 q 476 200 546 250 q 331 153 413 153 q 263 176 290 153 q 235 242 235 201 q 247 296 235 267 l 247 294 q 250 299 247 288 q 258 310 253 310 q 263 306 263 308 q 254 279 263 300 q 247 244 247 258 q 274 185 247 207 q 338 164 301 164 q 465 213 413 164 q 519 336 519 263 q 483 428 519 396 q 389 461 449 461 q 168 365 256 461 q 82 138 82 274 q 143 -3 82 46 q 293 -47 200 -47 q 324 -46 310 -47 q 350 -42 339 -44 q 608 115 508 0 q 754 383 692 211 q 738 382 746 382 q 724 382 731 382 q 574 432 632 382 q 508 574 508 485 q 711 811 508 733 q 1050 867 856 867 q 1135 863 1099 867 q 1199 851 1172 860 l 1197 849 l 1192 849 q 1150 840 1169 849 q 1140 834 1147 839 q 1121 822 1132 829 q 1033 753 1074 792 q 961 665 993 714 q 999 586 999 635 q 949 471 999 525 q 842 400 903 421 q 346 -61 731 6 q 299 -65 321 -65 m 749 396 l 758 396 q 826 546 786 476 q 914 675 865 615 q 878 679 896 679 q 801 657 839 679 q 761 593 761 631 q 767 572 761 579 q 772 560 772 565 q 768 557 772 557 q 747 592 747 568 q 790 667 747 636 q 874 694 829 694 q 924 686 899 694 q 1142 849 1032 814 l 1139 849 q 1119 849 1131 849 q 1092 850 1107 849 q 1065 853 1076 853 q 1044 853 1053 853 q 908 842 974 853 q 782 808 843 832 q 583 643 632 753 q 563 550 563 596 q 621 433 563 478 q 681 405 649 414 q 749 396 713 396 m 847 417 q 940 483 903 442 q 985 588 985 532 q 954 654 985 629 q 847 417 889 554 m 185 -225 q 153 -196 153 -225 q 165 -166 153 -179 q 194 -153 178 -153 q 226 -182 226 -153 q 213 -212 226 -199 q 185 -225 200 -225 z "},"Ì":{"ha":818,"x_min":40,"x_max":1222,"o":"m 299 -65 q 119 -3 194 -65 q 40 167 40 67 q 144 389 40 300 q 378 475 246 475 q 494 439 447 475 q 546 331 546 399 q 476 200 546 250 q 331 153 413 153 q 263 176 290 153 q 235 242 235 201 q 247 296 235 267 l 247 294 q 250 299 247 288 q 258 310 253 310 q 263 306 263 308 q 254 279 263 300 q 247 244 247 258 q 274 185 247 207 q 338 164 301 164 q 465 213 413 164 q 519 336 519 263 q 483 428 519 396 q 389 461 449 461 q 168 365 256 461 q 82 138 82 274 q 143 -3 82 46 q 293 -47 200 -47 q 324 -46 310 -47 q 350 -42 339 -44 q 608 115 508 0 q 754 383 692 211 q 738 382 746 382 q 724 382 731 382 q 574 432 632 382 q 508 574 508 485 q 711 811 508 733 q 1050 867 856 867 q 1135 863 1099 867 q 1199 851 1172 860 l 1197 849 l 1192 849 q 1150 840 1169 849 q 1140 834 1147 839 q 1121 822 1132 829 q 1033 753 1074 792 q 961 665 993 714 q 999 586 999 635 q 949 471 999 525 q 842 400 903 421 q 346 -61 731 6 q 299 -65 321 -65 m 749 396 l 758 396 q 826 546 786 476 q 914 675 865 615 q 878 679 896 679 q 801 657 839 679 q 761 593 761 631 q 767 572 761 579 q 772 560 772 565 q 768 557 772 557 q 747 592 747 568 q 790 667 747 636 q 874 694 829 694 q 924 686 899 694 q 1142 849 1032 814 l 1139 849 q 1119 849 1131 849 q 1092 850 1107 849 q 1065 853 1076 853 q 1044 853 1053 853 q 908 842 974 853 q 782 808 843 832 q 583 643 632 753 q 563 550 563 596 q 621 433 563 478 q 681 405 649 414 q 749 396 713 396 m 847 417 q 940 483 903 442 q 985 588 985 532 q 954 654 985 629 q 847 417 889 554 m 1222 949 q 1208 951 1222 944 q 1131 990 1175 968 q 1052 1031 1088 1011 q 1007 1056 1017 1050 q 1009 1072 1001 1060 q 1025 1083 1017 1083 q 1067 1060 1033 1083 q 1142 1010 1100 1038 q 1172 989 1153 1003 q 1207 963 1192 975 q 1222 949 1222 951 z "},"Ỉ":{"ha":818,"x_min":40,"x_max":1294,"o":"m 299 -65 q 119 -3 194 -65 q 40 167 40 67 q 144 389 40 300 q 378 475 246 475 q 494 439 447 475 q 546 331 546 399 q 476 200 546 250 q 331 153 413 153 q 263 176 290 153 q 235 242 235 201 q 247 296 235 267 l 247 294 q 250 299 247 288 q 258 310 253 310 q 263 306 263 308 q 254 279 263 300 q 247 244 247 258 q 274 185 247 207 q 338 164 301 164 q 465 213 413 164 q 519 336 519 263 q 483 428 519 396 q 389 461 449 461 q 168 365 256 461 q 82 138 82 274 q 143 -3 82 46 q 293 -47 200 -47 q 324 -46 310 -47 q 350 -42 339 -44 q 608 115 508 0 q 754 383 692 211 q 738 382 746 382 q 724 382 731 382 q 574 432 632 382 q 508 574 508 485 q 711 811 508 733 q 1050 867 856 867 q 1135 863 1099 867 q 1199 851 1172 860 l 1197 849 l 1192 849 q 1150 840 1169 849 q 1140 834 1147 839 q 1121 822 1132 829 q 1033 753 1074 792 q 961 665 993 714 q 999 586 999 635 q 949 471 999 525 q 842 400 903 421 q 346 -61 731 6 q 299 -65 321 -65 m 749 396 l 758 396 q 826 546 786 476 q 914 675 865 615 q 878 679 896 679 q 801 657 839 679 q 761 593 761 631 q 767 572 761 579 q 772 560 772 565 q 768 557 772 557 q 747 592 747 568 q 790 667 747 636 q 874 694 829 694 q 924 686 899 694 q 1142 849 1032 814 l 1139 849 q 1119 849 1131 849 q 1092 850 1107 849 q 1065 853 1076 853 q 1044 853 1053 853 q 908 842 974 853 q 782 808 843 832 q 583 643 632 753 q 563 550 563 596 q 621 433 563 478 q 681 405 649 414 q 749 396 713 396 m 847 417 q 940 483 903 442 q 985 588 985 532 q 954 654 985 629 q 847 417 889 554 m 1174 940 q 1172 944 1172 940 q 1179 954 1172 949 q 1207 980 1196 971 q 1227 1000 1218 989 q 1243 1032 1236 1011 q 1242 1053 1247 1043 q 1221 1063 1236 1063 q 1196 1054 1211 1063 q 1165 1038 1181 1046 q 1164 1037 1164 1038 q 1163 1036 1164 1036 q 1160 1042 1160 1036 q 1165 1051 1161 1049 q 1203 1081 1185 1069 q 1251 1092 1222 1092 q 1287 1076 1279 1092 q 1288 1038 1294 1060 q 1255 999 1278 1013 q 1189 954 1232 986 q 1181 945 1183 950 q 1174 940 1178 940 z "},"Ȋ":{"ha":818,"x_min":40,"x_max":1314,"o":"m 1226 1063 q 1287 1042 1260 1063 q 1314 983 1314 1022 q 1313 963 1314 968 q 1304 950 1311 957 q 1289 949 1289 938 q 1274 999 1289 975 q 1208 1024 1260 1024 q 1143 1017 1175 1024 q 1074 961 1111 1010 q 1064 949 1067 951 q 1057 947 1061 947 q 1054 953 1051 947 q 1057 958 1056 956 q 1063 965 1058 960 q 1092 1001 1071 978 q 1147 1043 1114 1024 q 1226 1063 1181 1063 m 299 -65 q 119 -3 194 -65 q 40 167 40 67 q 144 389 40 300 q 378 475 246 475 q 494 439 447 475 q 546 331 546 399 q 476 200 546 250 q 331 153 413 153 q 263 176 290 153 q 235 242 235 201 q 247 296 235 267 l 247 294 q 250 299 247 288 q 258 310 253 310 q 263 306 263 308 q 254 279 263 300 q 247 244 247 258 q 274 185 247 207 q 338 164 301 164 q 465 213 413 164 q 519 336 519 263 q 483 428 519 396 q 389 461 449 461 q 168 365 256 461 q 82 138 82 274 q 143 -3 82 46 q 293 -47 200 -47 q 324 -46 310 -47 q 350 -42 339 -44 q 608 115 508 0 q 754 383 692 211 q 738 382 746 382 q 724 382 731 382 q 574 432 632 382 q 508 574 508 485 q 711 811 508 733 q 1050 867 856 867 q 1135 863 1099 867 q 1199 851 1172 860 l 1197 849 l 1192 849 q 1150 840 1169 849 q 1140 834 1147 839 q 1121 822 1132 829 q 1033 753 1074 792 q 961 665 993 714 q 999 586 999 635 q 949 471 999 525 q 842 400 903 421 q 346 -61 731 6 q 299 -65 321 -65 m 749 396 l 758 396 q 826 546 786 476 q 914 675 865 615 q 878 679 896 679 q 801 657 839 679 q 761 593 761 631 q 767 572 761 579 q 772 560 772 565 q 768 557 772 557 q 747 592 747 568 q 790 667 747 636 q 874 694 829 694 q 924 686 899 694 q 1142 849 1032 814 l 1139 849 q 1119 849 1131 849 q 1092 850 1107 849 q 1065 853 1076 853 q 1044 853 1053 853 q 908 842 974 853 q 782 808 843 832 q 583 643 632 753 q 563 550 563 596 q 621 433 563 478 q 681 405 649 414 q 749 396 713 396 m 847 417 q 940 483 903 442 q 985 588 985 532 q 954 654 985 629 q 847 417 889 554 z "},"Ī":{"ha":818,"x_min":40,"x_max":1328,"o":"m 299 -65 q 119 -3 194 -65 q 40 167 40 67 q 144 389 40 300 q 378 475 246 475 q 494 439 447 475 q 546 331 546 399 q 476 200 546 250 q 331 153 413 153 q 263 176 290 153 q 235 242 235 201 q 247 296 235 267 l 247 294 q 250 299 247 288 q 258 310 253 310 q 263 306 263 308 q 254 279 263 300 q 247 244 247 258 q 274 185 247 207 q 338 164 301 164 q 465 213 413 164 q 519 336 519 263 q 483 428 519 396 q 389 461 449 461 q 168 365 256 461 q 82 138 82 274 q 143 -3 82 46 q 293 -47 200 -47 q 324 -46 310 -47 q 350 -42 339 -44 q 608 115 508 0 q 754 383 692 211 q 738 382 746 382 q 724 382 731 382 q 574 432 632 382 q 508 574 508 485 q 711 811 508 733 q 1050 867 856 867 q 1135 863 1099 867 q 1199 851 1172 860 l 1197 849 l 1192 849 q 1150 840 1169 849 q 1140 834 1147 839 q 1121 822 1132 829 q 1033 753 1074 792 q 961 665 993 714 q 999 586 999 635 q 949 471 999 525 q 842 400 903 421 q 346 -61 731 6 q 299 -65 321 -65 m 749 396 l 758 396 q 826 546 786 476 q 914 675 865 615 q 878 679 896 679 q 801 657 839 679 q 761 593 761 631 q 767 572 761 579 q 772 560 772 565 q 768 557 772 557 q 747 592 747 568 q 790 667 747 636 q 874 694 829 694 q 924 686 899 694 q 1142 849 1032 814 l 1139 849 q 1119 849 1131 849 q 1092 850 1107 849 q 1065 853 1076 853 q 1044 853 1053 853 q 908 842 974 853 q 782 808 843 832 q 583 643 632 753 q 563 550 563 596 q 621 433 563 478 q 681 405 649 414 q 749 396 713 396 m 847 417 q 940 483 903 442 q 985 588 985 532 q 954 654 985 629 q 847 417 889 554 m 1024 946 q 1019 951 1019 946 q 1027 967 1019 958 q 1044 975 1035 975 l 1325 975 q 1328 971 1328 975 q 1323 954 1328 963 q 1307 946 1318 946 l 1024 946 z "},"Į":{"ha":818,"x_min":40,"x_max":1199,"o":"m 299 -65 q 119 -3 194 -65 q 40 167 40 67 q 144 389 40 300 q 378 475 246 475 q 494 439 447 475 q 546 331 546 399 q 476 200 546 250 q 331 153 413 153 q 263 176 290 153 q 235 242 235 201 q 247 296 235 267 l 247 294 q 250 299 247 288 q 258 310 253 310 q 263 306 263 308 q 254 279 263 300 q 247 244 247 258 q 274 185 247 207 q 338 164 301 164 q 465 213 413 164 q 519 336 519 263 q 483 428 519 396 q 389 461 449 461 q 168 365 256 461 q 82 138 82 274 q 143 -3 82 46 q 293 -47 200 -47 q 324 -46 310 -47 q 350 -42 339 -44 q 608 115 508 0 q 754 383 692 211 q 738 382 746 382 q 724 382 731 382 q 574 432 632 382 q 508 574 508 485 q 711 811 508 733 q 1050 867 856 867 q 1135 863 1099 867 q 1199 851 1172 860 l 1197 849 l 1192 849 q 1150 840 1169 849 q 1140 834 1147 839 q 1121 822 1132 829 q 1033 753 1074 792 q 961 665 993 714 q 999 586 999 635 q 949 471 999 525 q 842 400 903 421 q 346 -61 731 6 q 299 -65 321 -65 m 749 396 l 758 396 q 826 546 786 476 q 914 675 865 615 q 878 679 896 679 q 801 657 839 679 q 761 593 761 631 q 767 572 761 579 q 772 560 772 565 q 768 557 772 557 q 747 592 747 568 q 790 667 747 636 q 874 694 829 694 q 924 686 899 694 q 1142 849 1032 814 l 1139 849 q 1119 849 1131 849 q 1092 850 1107 849 q 1065 853 1076 853 q 1044 853 1053 853 q 908 842 974 853 q 782 808 843 832 q 583 643 632 753 q 563 550 563 596 q 621 433 563 478 q 681 405 649 414 q 749 396 713 396 m 847 417 q 940 483 903 442 q 985 588 985 532 q 954 654 985 629 q 847 417 889 554 m 274 -267 q 219 -251 240 -267 q 197 -204 197 -235 q 224 -139 197 -176 q 290 -65 250 -101 q 301 -58 294 -62 q 311 -53 307 -53 q 318 -53 314 -53 q 322 -56 322 -53 q 273 -122 293 -83 q 253 -193 253 -161 q 265 -226 253 -217 q 296 -235 278 -235 q 339 -226 317 -235 q 374 -208 361 -218 q 382 -204 378 -204 q 389 -214 389 -204 q 378 -231 389 -224 q 324 -258 351 -249 q 274 -267 297 -267 z "},"Ĩ":{"ha":818,"x_min":40,"x_max":1319,"o":"m 299 -65 q 119 -3 194 -65 q 40 167 40 67 q 144 389 40 300 q 378 475 246 475 q 494 439 447 475 q 546 331 546 399 q 476 200 546 250 q 331 153 413 153 q 263 176 290 153 q 235 242 235 201 q 247 296 235 267 l 247 294 q 250 299 247 288 q 258 310 253 310 q 263 306 263 308 q 254 279 263 300 q 247 244 247 258 q 274 185 247 207 q 338 164 301 164 q 465 213 413 164 q 519 336 519 263 q 483 428 519 396 q 389 461 449 461 q 168 365 256 461 q 82 138 82 274 q 143 -3 82 46 q 293 -47 200 -47 q 324 -46 310 -47 q 350 -42 339 -44 q 608 115 508 0 q 754 383 692 211 q 738 382 746 382 q 724 382 731 382 q 574 432 632 382 q 508 574 508 485 q 711 811 508 733 q 1050 867 856 867 q 1135 863 1099 867 q 1199 851 1172 860 l 1197 849 l 1192 849 q 1150 840 1169 849 q 1140 834 1147 839 q 1121 822 1132 829 q 1033 753 1074 792 q 961 665 993 714 q 999 586 999 635 q 949 471 999 525 q 842 400 903 421 q 346 -61 731 6 q 299 -65 321 -65 m 749 396 l 758 396 q 826 546 786 476 q 914 675 865 615 q 878 679 896 679 q 801 657 839 679 q 761 593 761 631 q 767 572 761 579 q 772 560 772 565 q 768 557 772 557 q 747 592 747 568 q 790 667 747 636 q 874 694 829 694 q 924 686 899 694 q 1142 849 1032 814 l 1139 849 q 1119 849 1131 849 q 1092 850 1107 849 q 1065 853 1076 853 q 1044 853 1053 853 q 908 842 974 853 q 782 808 843 832 q 583 643 632 753 q 563 550 563 596 q 621 433 563 478 q 681 405 649 414 q 749 396 713 396 m 847 417 q 940 483 903 442 q 985 588 985 532 q 954 654 985 629 q 847 417 889 554 m 1017 944 q 1015 954 1014 944 q 1037 1005 1022 982 q 1082 1028 1051 1028 q 1147 1017 1114 1028 q 1209 994 1179 1006 q 1261 983 1239 983 q 1294 996 1285 983 q 1308 1020 1304 1008 q 1317 1032 1313 1032 q 1319 1026 1319 1032 q 1317 1018 1318 1021 q 1288 966 1310 988 q 1247 944 1267 944 q 1197 956 1226 944 q 1137 978 1168 967 q 1074 989 1106 989 q 1040 978 1050 989 q 1025 956 1029 967 q 1017 944 1021 944 z "},"J":{"ha":851,"x_min":-3,"x_max":1147,"o":"m 271 -319 q 79 -242 161 -319 q -3 -51 -3 -162 q 83 147 -3 64 q 285 233 172 233 q 424 181 371 233 q 474 40 474 129 q 415 -79 474 -25 q 293 -132 358 -132 q 199 -107 239 -132 q 151 -25 151 -78 q 165 24 151 0 q 203 53 181 53 q 208 49 208 53 q 196 36 208 47 q 179 15 183 24 q 171 -24 171 -3 q 203 -94 171 -67 q 276 -122 235 -122 q 392 -64 346 -122 q 435 61 435 -11 q 394 176 435 135 q 282 221 354 221 q 106 143 174 221 q 42 -40 42 71 q 190 -275 42 -206 q 288 -297 240 -297 l 303 -297 q 355 -285 331 -293 q 399 -267 379 -276 q 528 -154 467 -231 q 644 38 589 -78 q 790 417 693 140 q 913 647 835 540 q 1104 817 1003 769 q 817 779 924 817 q 618 589 663 726 q 613 550 613 571 q 633 493 613 517 q 689 469 654 469 q 783 557 757 469 q 789 581 789 572 l 789 592 q 788 600 788 596 q 792 603 789 603 q 797 585 797 603 q 767 496 797 532 q 683 457 733 457 q 611 488 638 457 q 585 561 585 515 q 585 577 585 569 q 588 590 586 585 q 783 789 615 726 q 1076 833 908 833 q 1147 829 1143 833 q 1130 822 1142 828 q 1100 800 1118 815 q 883 450 953 683 q 696 -10 794 156 q 328 -314 542 -267 q 300 -317 314 -315 q 271 -319 286 -319 z "},"Ĵ":{"ha":851,"x_min":-3,"x_max":1219,"o":"m 271 -319 q 79 -242 161 -319 q -3 -51 -3 -162 q 83 147 -3 64 q 285 233 172 233 q 424 181 371 233 q 474 40 474 129 q 415 -79 474 -25 q 293 -132 358 -132 q 199 -107 239 -132 q 151 -25 151 -78 q 165 24 151 0 q 203 53 181 53 q 208 49 208 53 q 196 36 208 47 q 179 15 183 24 q 171 -24 171 -3 q 203 -94 171 -67 q 276 -122 235 -122 q 392 -64 346 -122 q 435 61 435 -11 q 394 176 435 135 q 282 221 354 221 q 106 143 174 221 q 42 -40 42 71 q 190 -275 42 -206 q 288 -297 240 -297 l 303 -297 q 355 -285 331 -293 q 399 -267 379 -276 q 528 -154 467 -231 q 644 38 589 -78 q 790 417 693 140 q 913 647 835 540 q 1104 817 1003 769 q 817 779 924 817 q 618 589 663 726 q 613 550 613 571 q 633 493 613 517 q 689 469 654 469 q 783 557 757 469 q 789 581 789 572 l 789 592 q 788 600 788 596 q 792 603 789 603 q 797 585 797 603 q 767 496 797 532 q 683 457 733 457 q 611 488 638 457 q 585 561 585 515 q 585 577 585 569 q 588 590 586 585 q 783 789 615 726 q 1076 833 908 833 q 1147 829 1143 833 q 1130 822 1142 828 q 1100 800 1118 815 q 883 450 953 683 q 696 -10 794 156 q 328 -314 542 -267 q 300 -317 314 -315 q 271 -319 286 -319 m 1207 940 q 1178 954 1200 940 q 1132 987 1157 968 q 1089 1021 1107 1006 q 1016 973 1054 999 q 958 943 978 947 q 950 944 949 940 q 966 957 951 947 q 1000 980 981 967 q 1031 1001 1019 993 q 1082 1040 1063 1025 q 1111 1057 1101 1056 q 1122 1057 1117 1058 q 1140 1040 1129 1056 q 1171 1001 1151 1025 q 1190 981 1178 993 q 1210 958 1201 968 q 1218 944 1219 947 q 1207 940 1217 940 z "},"K":{"ha":1161,"x_min":18,"x_max":1624,"o":"m 286 -76 q 100 -12 176 -76 q 18 161 18 54 q 107 350 18 272 q 306 424 190 424 q 442 379 392 424 q 496 249 496 333 q 436 138 496 186 q 314 92 381 92 q 222 114 261 92 q 172 189 172 139 q 188 235 172 211 q 225 261 201 261 q 231 257 231 261 q 218 244 231 256 q 208 234 213 239 q 201 226 203 229 q 192 190 192 207 q 225 125 192 150 q 297 101 257 101 q 411 151 365 101 q 457 268 457 200 q 414 375 457 336 q 303 414 371 414 q 124 331 197 414 q 56 142 56 253 q 135 -12 56 46 q 306 -65 204 -65 l 325 -65 q 522 44 443 -49 q 578 131 551 81 q 631 249 606 181 q 668 358 650 303 q 707 467 686 413 q 760 578 729 526 q 828 676 790 631 q 1014 826 917 786 q 872 815 940 825 q 740 785 803 806 q 535 624 571 731 q 529 590 529 608 q 550 536 529 557 q 606 515 574 515 q 700 594 674 515 q 706 617 706 610 q 704 626 706 622 l 704 635 q 707 638 704 635 q 714 619 714 638 q 679 538 714 571 q 597 503 644 503 q 528 528 556 503 q 500 594 500 553 q 708 792 500 724 q 866 827 786 817 q 1026 838 946 838 l 1050 838 l 1050 836 l 1051 836 q 1022 817 1038 829 q 986 789 1006 806 q 792 490 853 676 q 715 276 749 361 q 657 149 682 190 q 372 -67 554 -24 q 330 -74 351 -72 q 286 -76 308 -76 m 1276 -165 q 1082 -78 1168 -165 q 1017 4 1049 -44 q 954 117 985 53 q 908 219 931 168 q 863 322 886 271 q 819 317 842 317 q 781 326 796 317 q 758 357 758 336 q 771 393 758 376 q 803 408 783 408 q 890 347 846 408 q 978 410 922 363 q 1117 536 1035 458 q 1198 613 1163 581 q 1257 667 1233 646 q 1560 831 1451 831 q 1599 822 1578 831 q 1624 794 1624 813 q 1614 786 1624 786 q 1607 789 1610 786 q 1571 803 1594 803 q 1408 736 1513 803 q 1333 685 1369 711 q 1263 626 1296 658 q 1177 547 1219 588 q 1090 465 1135 506 q 989 381 1036 414 q 901 333 942 349 q 981 206 942 269 q 1063 79 1021 142 q 1170 -58 1119 -8 q 1260 -124 1221 -108 q 1285 -131 1272 -128 q 1310 -133 1299 -133 q 1408 -35 1393 -133 q 1414 -29 1408 -29 q 1429 -42 1429 -29 q 1426 -62 1429 -51 q 1419 -83 1424 -72 q 1276 -165 1383 -165 m 832 333 l 838 333 q 847 333 842 333 q 857 335 851 333 q 806 385 832 385 q 779 358 779 385 q 796 335 779 339 q 807 334 799 335 q 832 333 815 333 z "},"Ķ":{"ha":1161,"x_min":18,"x_max":1624,"o":"m 286 -76 q 100 -12 176 -76 q 18 161 18 54 q 107 350 18 272 q 306 424 190 424 q 442 379 392 424 q 496 249 496 333 q 436 138 496 186 q 314 92 381 92 q 222 114 261 92 q 172 189 172 139 q 188 235 172 211 q 225 261 201 261 q 231 257 231 261 q 218 244 231 256 q 208 234 213 239 q 201 226 203 229 q 192 190 192 207 q 225 125 192 150 q 297 101 257 101 q 411 151 365 101 q 457 268 457 200 q 414 375 457 336 q 303 414 371 414 q 124 331 197 414 q 56 142 56 253 q 135 -12 56 46 q 306 -65 204 -65 l 325 -65 q 522 44 443 -49 q 578 131 551 81 q 631 249 606 181 q 668 358 650 303 q 707 467 686 413 q 760 578 729 526 q 828 676 790 631 q 1014 826 917 786 q 872 815 940 825 q 740 785 803 806 q 535 624 571 731 q 529 590 529 608 q 550 536 529 557 q 606 515 574 515 q 700 594 674 515 q 706 617 706 610 q 704 626 706 622 l 704 635 q 707 638 704 635 q 714 619 714 638 q 679 538 714 571 q 597 503 644 503 q 528 528 556 503 q 500 594 500 553 q 708 792 500 724 q 866 827 786 817 q 1026 838 946 838 l 1050 838 l 1050 836 l 1051 836 q 1022 817 1038 829 q 986 789 1006 806 q 792 490 853 676 q 715 276 749 361 q 657 149 682 190 q 372 -67 554 -24 q 330 -74 351 -72 q 286 -76 308 -76 m 1276 -165 q 1082 -78 1168 -165 q 1017 4 1049 -44 q 954 117 985 53 q 908 219 931 168 q 863 322 886 271 q 819 317 842 317 q 781 326 796 317 q 758 357 758 336 q 771 393 758 376 q 803 408 783 408 q 890 347 846 408 q 978 410 922 363 q 1117 536 1035 458 q 1198 613 1163 581 q 1257 667 1233 646 q 1560 831 1451 831 q 1599 822 1578 831 q 1624 794 1624 813 q 1614 786 1624 786 q 1607 789 1610 786 q 1571 803 1594 803 q 1408 736 1513 803 q 1333 685 1369 711 q 1263 626 1296 658 q 1177 547 1219 588 q 1090 465 1135 506 q 989 381 1036 414 q 901 333 942 349 q 981 206 942 269 q 1063 79 1021 142 q 1170 -58 1119 -8 q 1260 -124 1221 -108 q 1285 -131 1272 -128 q 1310 -133 1299 -133 q 1408 -35 1393 -133 q 1414 -29 1408 -29 q 1429 -42 1429 -29 q 1426 -62 1429 -51 q 1419 -83 1424 -72 q 1276 -165 1383 -165 m 832 333 l 838 333 q 847 333 842 333 q 857 335 851 333 q 806 385 832 385 q 779 358 779 385 q 796 335 779 339 q 807 334 799 335 q 832 333 815 333 m 647 -311 q 632 -304 632 -311 q 642 -300 632 -301 q 707 -270 676 -294 q 758 -213 738 -246 q 782 -151 778 -181 q 736 -174 760 -174 q 708 -160 717 -174 q 700 -125 699 -147 q 721 -92 703 -106 q 757 -79 739 -79 q 793 -92 779 -79 q 807 -132 807 -106 q 792 -192 807 -160 q 756 -250 778 -224 q 711 -290 735 -276 q 669 -308 685 -306 q 647 -311 653 -311 z "},"L":{"ha":796,"x_min":-61,"x_max":1136,"o":"m 628 -90 q 344 -8 488 -90 q 178 -49 257 -49 q 28 -15 101 -49 q -61 96 -61 28 q -24 172 -61 143 q 60 199 11 199 q 276 108 176 199 q 321 68 301 85 q 354 40 340 51 q 485 201 421 94 q 536 293 511 247 q 586 385 561 339 q 371 444 464 393 q 251 617 251 510 q 310 758 251 700 q 451 817 368 817 q 543 790 504 817 q 586 708 586 758 q 574 689 586 689 q 568 711 568 689 q 567 719 568 714 q 563 733 565 725 q 453 804 538 804 q 332 744 383 804 q 282 617 282 686 q 393 456 282 517 q 594 400 481 407 q 685 542 639 478 q 779 660 732 607 q 1036 815 921 815 q 1104 797 1076 815 q 1136 739 1136 776 q 1072 606 1136 685 q 1021 550 1049 576 q 961 500 993 524 q 906 463 935 479 q 847 431 878 446 q 696 389 781 399 q 574 175 638 256 q 388 15 497 78 q 636 -76 517 -76 q 747 -51 700 -76 q 806 39 806 -19 q 811 47 806 47 q 817 38 817 47 l 817 33 q 766 -59 817 -28 q 628 -90 715 -90 m 704 407 q 772 421 739 413 q 838 442 806 429 q 892 468 865 453 q 944 503 918 483 q 1053 608 1004 547 q 1117 739 1117 685 q 1071 783 1117 783 q 982 757 1033 783 q 835 635 900 714 q 719 442 769 556 l 704 407 m 164 -31 q 314 10 247 -31 q 242 57 278 33 q 169 103 206 81 q 18 167 67 167 q -44 110 -44 167 q 17 13 -44 54 q 128 -29 68 -22 q 147 -31 138 -31 q 164 -31 156 -31 z "},"Ǉ":{"ha":1647,"x_min":-61,"x_max":1943,"o":"m 628 -90 q 344 -8 488 -90 q 178 -49 257 -49 q 28 -15 101 -49 q -61 96 -61 28 q -24 172 -61 143 q 60 199 11 199 q 276 108 176 199 q 321 68 301 85 q 354 40 340 51 q 485 201 421 94 q 536 293 511 247 q 586 385 561 339 q 371 444 464 393 q 251 617 251 510 q 310 758 251 700 q 451 817 368 817 q 543 790 504 817 q 586 708 586 758 q 574 689 586 689 q 568 711 568 689 q 567 719 568 714 q 563 733 565 725 q 453 804 538 804 q 332 744 383 804 q 282 617 282 686 q 393 456 282 517 q 594 400 481 407 q 685 542 639 478 q 779 660 732 607 q 1036 815 921 815 q 1104 797 1076 815 q 1136 739 1136 776 q 1072 606 1136 685 q 1021 550 1049 576 q 961 500 993 524 q 906 463 935 479 q 847 431 878 446 q 696 389 781 399 q 574 175 638 256 q 388 15 497 78 q 636 -76 517 -76 q 747 -51 700 -76 q 806 39 806 -19 q 811 47 806 47 q 817 38 817 47 l 817 33 q 766 -59 817 -28 q 628 -90 715 -90 m 704 407 q 772 421 739 413 q 838 442 806 429 q 892 468 865 453 q 944 503 918 483 q 1053 608 1004 547 q 1117 739 1117 685 q 1071 783 1117 783 q 982 757 1033 783 q 835 635 900 714 q 719 442 769 556 l 704 407 m 164 -31 q 314 10 247 -31 q 242 57 278 33 q 169 103 206 81 q 18 167 67 167 q -44 110 -44 167 q 17 13 -44 54 q 128 -29 68 -22 q 147 -31 138 -31 q 164 -31 156 -31 m 1067 -319 q 875 -242 957 -319 q 793 -51 793 -162 q 879 147 793 64 q 1081 233 968 233 q 1219 181 1167 233 q 1269 40 1269 129 q 1211 -79 1269 -25 q 1089 -132 1154 -132 q 994 -107 1035 -132 q 947 -25 947 -78 q 961 24 947 0 q 999 53 976 53 q 1004 49 1004 53 q 992 36 1004 47 q 975 15 979 24 q 967 -24 967 -3 q 999 -94 967 -67 q 1072 -122 1031 -122 q 1188 -64 1142 -122 q 1231 61 1231 -11 q 1190 176 1231 135 q 1078 221 1150 221 q 901 143 969 221 q 838 -40 838 71 q 986 -275 838 -206 q 1083 -297 1036 -297 l 1099 -297 q 1151 -285 1126 -293 q 1194 -267 1175 -276 q 1324 -154 1263 -231 q 1440 38 1385 -78 q 1586 417 1489 140 q 1708 647 1631 540 q 1900 817 1799 769 q 1613 779 1719 817 q 1414 589 1458 726 q 1408 550 1408 571 q 1429 493 1408 517 q 1485 469 1450 469 q 1579 557 1553 469 q 1585 581 1585 572 l 1585 592 q 1583 600 1583 596 q 1588 603 1585 603 q 1593 585 1593 603 q 1563 496 1593 532 q 1479 457 1529 457 q 1407 488 1433 457 q 1381 561 1381 515 q 1381 577 1381 569 q 1383 590 1382 585 q 1579 789 1411 726 q 1872 833 1704 833 q 1943 829 1939 833 q 1926 822 1938 828 q 1896 800 1914 815 q 1679 450 1749 683 q 1492 -10 1590 156 q 1124 -314 1338 -267 q 1096 -317 1110 -315 q 1067 -319 1082 -319 z "},"Ĺ":{"ha":796,"x_min":-61,"x_max":1136,"o":"m 628 -90 q 344 -8 488 -90 q 178 -49 257 -49 q 28 -15 101 -49 q -61 96 -61 28 q -24 172 -61 143 q 60 199 11 199 q 276 108 176 199 q 321 68 301 85 q 354 40 340 51 q 485 201 421 94 q 536 293 511 247 q 586 385 561 339 q 371 444 464 393 q 251 617 251 510 q 310 758 251 700 q 451 817 368 817 q 543 790 504 817 q 586 708 586 758 q 574 689 586 689 q 568 711 568 689 q 567 719 568 714 q 563 733 565 725 q 453 804 538 804 q 332 744 383 804 q 282 617 282 686 q 393 456 282 517 q 594 400 481 407 q 685 542 639 478 q 779 660 732 607 q 1036 815 921 815 q 1104 797 1076 815 q 1136 739 1136 776 q 1072 606 1136 685 q 1021 550 1049 576 q 961 500 993 524 q 906 463 935 479 q 847 431 878 446 q 696 389 781 399 q 574 175 638 256 q 388 15 497 78 q 636 -76 517 -76 q 747 -51 700 -76 q 806 39 806 -19 q 811 47 806 47 q 817 38 817 47 l 817 33 q 766 -59 817 -28 q 628 -90 715 -90 m 704 407 q 772 421 739 413 q 838 442 806 429 q 892 468 865 453 q 944 503 918 483 q 1053 608 1004 547 q 1117 739 1117 685 q 1071 783 1117 783 q 982 757 1033 783 q 835 635 900 714 q 719 442 769 556 l 704 407 m 164 -31 q 314 10 247 -31 q 242 57 278 33 q 169 103 206 81 q 18 167 67 167 q -44 110 -44 167 q 17 13 -44 54 q 128 -29 68 -22 q 147 -31 138 -31 q 164 -31 156 -31 m 903 904 q 918 919 903 907 q 953 944 933 931 q 983 965 972 958 q 1058 1016 1025 993 q 1100 1039 1092 1039 q 1117 1027 1108 1039 q 1118 1011 1125 1015 q 1074 986 1110 1006 q 994 945 1038 967 q 917 907 950 924 q 903 904 903 900 z "},"Ľ":{"ha":796,"x_min":-61,"x_max":1351,"o":"m 628 -90 q 344 -8 488 -90 q 178 -49 257 -49 q 28 -15 101 -49 q -61 96 -61 28 q -24 172 -61 143 q 60 199 11 199 q 276 108 176 199 q 321 68 301 85 q 354 40 340 51 q 485 201 421 94 q 536 293 511 247 q 586 385 561 339 q 371 444 464 393 q 251 617 251 510 q 310 758 251 700 q 451 817 368 817 q 543 790 504 817 q 586 708 586 758 q 574 689 586 689 q 568 711 568 689 q 567 719 568 714 q 563 733 565 725 q 453 804 538 804 q 332 744 383 804 q 282 617 282 686 q 393 456 282 517 q 594 400 481 407 q 685 542 639 478 q 779 660 732 607 q 1036 815 921 815 q 1104 797 1076 815 q 1136 739 1136 776 q 1072 606 1136 685 q 1021 550 1049 576 q 961 500 993 524 q 906 463 935 479 q 847 431 878 446 q 696 389 781 399 q 574 175 638 256 q 388 15 497 78 q 636 -76 517 -76 q 747 -51 700 -76 q 806 39 806 -19 q 811 47 806 47 q 817 38 817 47 l 817 33 q 766 -59 817 -28 q 628 -90 715 -90 m 704 407 q 772 421 739 413 q 838 442 806 429 q 892 468 865 453 q 944 503 918 483 q 1053 608 1004 547 q 1117 739 1117 685 q 1071 783 1117 783 q 982 757 1033 783 q 835 635 900 714 q 719 442 769 556 l 704 407 m 164 -31 q 314 10 247 -31 q 242 57 278 33 q 169 103 206 81 q 18 167 67 167 q -44 110 -44 167 q 17 13 -44 54 q 128 -29 68 -22 q 147 -31 138 -31 q 164 -31 156 -31 m 1244 615 q 1231 622 1233 615 q 1244 631 1231 631 q 1305 679 1289 647 q 1325 732 1321 711 q 1303 724 1317 724 q 1277 733 1289 724 q 1265 763 1265 743 q 1280 794 1265 782 q 1308 807 1294 807 q 1339 797 1326 807 q 1351 765 1351 788 q 1343 713 1351 744 q 1313 655 1335 682 q 1249 615 1290 628 l 1244 615 z "},"Ļ":{"ha":796,"x_min":-61,"x_max":1136,"o":"m 628 -90 q 344 -8 488 -90 q 178 -49 257 -49 q 28 -15 101 -49 q -61 96 -61 28 q -24 172 -61 143 q 60 199 11 199 q 276 108 176 199 q 321 68 301 85 q 354 40 340 51 q 485 201 421 94 q 536 293 511 247 q 586 385 561 339 q 371 444 464 393 q 251 617 251 510 q 310 758 251 700 q 451 817 368 817 q 543 790 504 817 q 586 708 586 758 q 574 689 586 689 q 568 711 568 689 q 567 719 568 714 q 563 733 565 725 q 453 804 538 804 q 332 744 383 804 q 282 617 282 686 q 393 456 282 517 q 594 400 481 407 q 685 542 639 478 q 779 660 732 607 q 1036 815 921 815 q 1104 797 1076 815 q 1136 739 1136 776 q 1072 606 1136 685 q 1021 550 1049 576 q 961 500 993 524 q 906 463 935 479 q 847 431 878 446 q 696 389 781 399 q 574 175 638 256 q 388 15 497 78 q 636 -76 517 -76 q 747 -51 700 -76 q 806 39 806 -19 q 811 47 806 47 q 817 38 817 47 l 817 33 q 766 -59 817 -28 q 628 -90 715 -90 m 704 407 q 772 421 739 413 q 838 442 806 429 q 892 468 865 453 q 944 503 918 483 q 1053 608 1004 547 q 1117 739 1117 685 q 1071 783 1117 783 q 982 757 1033 783 q 835 635 900 714 q 719 442 769 556 l 704 407 m 164 -31 q 314 10 247 -31 q 242 57 278 33 q 169 103 206 81 q 18 167 67 167 q -44 110 -44 167 q 17 13 -44 54 q 128 -29 68 -22 q 147 -31 138 -31 q 164 -31 156 -31 m 369 -387 q 354 -381 354 -387 q 364 -376 354 -378 q 429 -347 399 -371 q 480 -290 460 -322 q 504 -228 500 -257 q 458 -250 482 -250 q 430 -237 439 -250 q 422 -201 421 -224 q 443 -169 425 -182 q 479 -156 461 -156 q 515 -169 501 -156 q 529 -208 529 -182 q 515 -268 529 -236 q 478 -326 500 -300 q 433 -367 457 -353 q 391 -385 407 -382 q 369 -387 375 -387 z "},"Ŀ":{"ha":796,"x_min":-61,"x_max":1136,"o":"m 628 -90 q 344 -8 488 -90 q 178 -49 257 -49 q 28 -15 101 -49 q -61 96 -61 28 q -24 172 -61 143 q 60 199 11 199 q 276 108 176 199 q 321 68 301 85 q 354 40 340 51 q 485 201 421 94 q 536 293 511 247 q 586 385 561 339 q 371 444 464 393 q 251 617 251 510 q 310 758 251 700 q 451 817 368 817 q 543 790 504 817 q 586 708 586 758 q 574 689 586 689 q 568 711 568 689 q 567 719 568 714 q 563 733 565 725 q 453 804 538 804 q 332 744 383 804 q 282 617 282 686 q 393 456 282 517 q 594 400 481 407 q 685 542 639 478 q 779 660 732 607 q 1036 815 921 815 q 1104 797 1076 815 q 1136 739 1136 776 q 1072 606 1136 685 q 1021 550 1049 576 q 961 500 993 524 q 906 463 935 479 q 847 431 878 446 q 696 389 781 399 q 574 175 638 256 q 388 15 497 78 q 636 -76 517 -76 q 747 -51 700 -76 q 806 39 806 -19 q 811 47 806 47 q 817 38 817 47 l 817 33 q 766 -59 817 -28 q 628 -90 715 -90 m 704 407 q 772 421 739 413 q 838 442 806 429 q 892 468 865 453 q 944 503 918 483 q 1053 608 1004 547 q 1117 739 1117 685 q 1071 783 1117 783 q 982 757 1033 783 q 835 635 900 714 q 719 442 769 556 l 704 407 m 164 -31 q 314 10 247 -31 q 242 57 278 33 q 169 103 206 81 q 18 167 67 167 q -44 110 -44 167 q 17 13 -44 54 q 128 -29 68 -22 q 147 -31 138 -31 q 164 -31 156 -31 m 878 153 q 832 197 832 153 q 882 247 832 247 q 928 201 928 247 q 878 153 928 153 z "},"ǈ":{"ha":1038,"x_min":-61,"x_max":1164,"o":"m 628 -90 q 344 -8 488 -90 q 178 -49 257 -49 q 28 -15 101 -49 q -61 96 -61 28 q -24 172 -61 143 q 60 199 11 199 q 276 108 176 199 q 321 68 301 85 q 354 40 340 51 q 485 201 421 94 q 536 293 511 247 q 586 385 561 339 q 371 444 464 393 q 251 617 251 510 q 310 758 251 700 q 451 817 368 817 q 543 790 504 817 q 586 708 586 758 q 574 689 586 689 q 568 711 568 689 q 567 719 568 714 q 563 733 565 725 q 453 804 538 804 q 332 744 383 804 q 282 617 282 686 q 393 456 282 517 q 594 400 481 407 q 685 542 639 478 q 779 660 732 607 q 1036 815 921 815 q 1104 797 1076 815 q 1136 739 1136 776 q 1072 606 1136 685 q 1021 550 1049 576 q 961 500 993 524 q 906 463 935 479 q 847 431 878 446 q 696 389 781 399 q 574 175 638 256 q 388 15 497 78 q 636 -76 517 -76 q 747 -51 700 -76 q 806 39 806 -19 q 811 47 806 47 q 817 38 817 47 l 817 33 q 766 -59 817 -28 q 628 -90 715 -90 m 704 407 q 772 421 739 413 q 838 442 806 429 q 892 468 865 453 q 944 503 918 483 q 1053 608 1004 547 q 1117 739 1117 685 q 1071 783 1117 783 q 982 757 1033 783 q 835 635 900 714 q 719 442 769 556 l 704 407 m 164 -31 q 314 10 247 -31 q 242 57 278 33 q 169 103 206 81 q 18 167 67 167 q -44 110 -44 167 q 17 13 -44 54 q 128 -29 68 -22 q 147 -31 138 -31 q 164 -31 156 -31 m 1097 540 q 1051 581 1051 540 q 1068 619 1051 606 q 1107 636 1085 636 q 1153 596 1153 636 q 1136 557 1153 574 q 1097 540 1119 540 m 508 -372 q 426 -324 426 -372 q 524 -196 426 -275 q 793 -69 594 -137 q 890 157 838 28 q 1006 446 943 286 l 1008 447 q 1019 446 1011 446 q 1096 465 1049 446 l 1099 463 l 878 -37 q 1150 228 1061 44 q 1157 235 1154 235 q 1160 224 1164 235 q 871 -56 1067 29 q 858 -84 865 -67 q 840 -125 850 -101 q 738 -269 811 -200 q 586 -361 663 -340 q 508 -372 544 -372 m 490 -360 q 633 -300 557 -360 q 739 -181 700 -250 q 760 -141 749 -164 q 785 -87 771 -118 q 560 -194 664 -128 q 440 -328 440 -269 q 490 -360 440 -360 z "},"Ł":{"ha":796,"x_min":-61,"x_max":1136,"o":"m 418 229 q 413 235 414 229 q 419 251 413 242 q 435 261 425 260 l 525 274 q 556 329 540 301 q 586 385 571 357 q 371 444 464 393 q 251 617 251 510 q 310 758 251 700 q 451 817 368 817 q 543 790 504 817 q 586 708 586 758 q 574 689 586 689 q 568 711 568 689 q 567 719 568 714 q 563 733 565 725 q 453 804 538 804 q 332 744 383 804 q 282 617 282 686 q 393 456 282 517 q 594 400 481 407 q 685 542 639 478 q 779 660 732 607 q 1036 815 921 815 q 1104 797 1076 815 q 1136 739 1136 776 q 1072 606 1136 685 q 1021 550 1049 576 q 961 500 993 524 q 906 463 935 479 q 847 431 878 446 q 696 389 781 399 q 649 292 672 336 l 757 307 q 761 303 760 307 q 758 286 763 294 q 743 276 754 278 l 632 260 q 574 175 603 213 q 388 15 497 78 q 636 -76 517 -76 q 747 -51 700 -76 q 806 39 806 -19 q 811 47 806 47 q 817 38 817 47 l 817 33 q 766 -59 817 -28 q 628 -90 715 -90 q 344 -8 488 -90 q 178 -49 257 -49 q 28 -15 101 -49 q -61 96 -61 28 q -24 172 -61 143 q 60 199 11 199 q 276 108 176 199 q 321 68 301 85 q 354 40 340 51 q 485 201 421 94 q 508 243 496 221 l 418 229 m 704 407 q 772 421 739 413 q 838 442 806 429 q 892 468 865 453 q 944 503 918 483 q 1053 608 1004 547 q 1117 739 1117 685 q 1071 783 1117 783 q 982 757 1033 783 q 835 635 900 714 q 719 442 769 556 l 704 407 m 164 -31 q 314 10 247 -31 q 242 57 278 33 q 169 103 206 81 q 18 167 67 167 q -44 110 -44 167 q 17 13 -44 54 q 128 -29 68 -22 q 147 -31 138 -31 q 164 -31 156 -31 z "},"M":{"ha":1647,"x_min":72,"x_max":2213,"o":"m 363 -79 q 160 -14 240 -79 q 72 175 72 57 q 119 336 72 263 q 247 442 167 410 q 238 521 238 476 q 306 735 238 638 q 485 872 376 838 q 707 911 596 911 q 851 893 775 911 q 1013 835 928 875 q 1156 766 1085 801 q 1299 694 1226 731 q 1436 740 1372 740 q 1551 665 1551 740 q 1496 615 1551 615 q 1360 657 1460 615 q 1242 408 1289 568 q 1228 365 1236 390 q 1210 306 1221 340 q 1131 136 1174 204 q 1044 33 1089 68 q 1417 378 1199 119 q 2081 868 1829 868 q 2213 792 2213 868 q 2197 740 2213 771 q 2161 708 2178 708 q 2154 713 2154 708 q 2159 718 2154 713 q 2172 733 2164 724 q 2190 779 2190 754 q 2121 829 2190 829 q 1938 781 2039 829 q 1415 340 1714 672 q 1203 119 1261 172 q 942 -12 1054 -12 q 904 -8 924 -12 l 903 -7 q 949 17 903 -4 q 969 28 958 22 q 989 42 979 35 q 1071 174 1014 61 q 1108 250 1090 213 q 1144 325 1126 288 q 1191 414 1168 369 q 1238 501 1214 458 q 1294 595 1267 554 q 1343 664 1321 636 l 1306 681 q 978 350 1147 585 q 363 -79 668 -79 m 364 -64 q 624 22 497 -64 q 719 100 668 53 q 828 213 769 147 q 890 282 853 240 q 976 379 926 324 q 1049 463 1013 421 q 1124 544 1086 504 q 1210 628 1168 593 q 1289 689 1251 664 q 1115 765 1186 735 q 1006 808 1044 794 q 849 851 924 836 q 707 865 775 865 q 500 826 594 865 q 336 703 401 788 q 268 510 268 614 q 270 480 268 494 q 275 451 272 465 q 342 460 308 460 q 370 458 357 460 q 397 454 383 457 q 501 388 463 442 q 538 268 542 332 q 742 335 650 269 q 842 515 842 408 q 785 653 842 596 q 649 710 732 710 q 533 669 586 710 q 479 563 479 624 q 528 482 479 507 l 528 481 q 538 467 538 479 q 537 466 538 467 q 535 465 536 465 q 519 472 531 465 q 465 568 465 508 q 525 685 465 638 q 651 729 578 729 q 801 669 740 729 q 865 524 865 608 q 758 324 865 401 q 536 253 663 251 q 458 132 526 183 q 393 98 428 110 q 319 86 358 86 q 288 94 288 86 q 317 100 288 100 q 337 101 325 100 q 363 106 349 103 q 506 254 476 131 q 253 424 306 271 q 135 329 179 397 q 94 182 94 264 q 97 141 94 161 q 106 100 100 121 q 206 -24 126 22 q 364 -64 279 -64 m 1504 -65 q 1444 38 1444 -65 q 1507 290 1444 161 q 1585 410 1532 340 q 1629 463 1606 436 q 1681 521 1653 490 q 1722 566 1696 539 q 1785 631 1749 593 q 1889 725 1879 725 q 1885 717 1892 725 q 1877 707 1883 714 q 1860 689 1871 700 q 1743 539 1800 625 q 1669 417 1706 483 q 1597 275 1633 351 q 1531 109 1554 179 q 1508 -7 1508 39 q 1532 -46 1508 -46 q 1583 -22 1544 -46 q 1631 15 1619 1 q 1642 21 1635 21 q 1644 17 1644 18 q 1642 13 1644 15 q 1504 -65 1567 -65 m 1485 632 q 1519 667 1519 632 q 1492 713 1519 696 q 1436 725 1467 725 q 1317 688 1383 725 q 1335 680 1326 683 q 1351 674 1343 676 q 1400 706 1382 706 q 1403 704 1403 706 q 1388 687 1396 696 q 1368 667 1379 678 q 1444 641 1415 650 q 1485 632 1474 632 m 508 269 q 510 288 510 275 q 483 379 510 335 q 407 433 454 422 q 375 438 392 436 q 343 440 358 440 q 281 432 310 440 q 368 317 304 360 q 508 269 428 276 z "},"N":{"ha":1475,"x_min":118,"x_max":2083,"o":"m 411 -135 q 203 -61 285 -135 q 118 142 118 15 q 183 328 118 251 q 363 408 251 408 q 377 408 369 408 q 390 407 385 407 q 501 342 457 399 q 547 219 547 286 q 486 88 547 144 q 350 33 426 33 q 335 39 335 33 q 360 47 335 43 q 426 67 397 51 q 478 106 456 82 q 519 229 519 154 q 486 332 519 286 q 394 388 447 382 q 381 388 389 388 q 365 389 374 389 q 199 321 264 389 q 138 151 138 253 q 208 -40 138 33 q 399 -114 282 -114 q 412 -113 406 -114 q 422 -112 418 -112 q 644 3 546 -100 q 792 213 701 63 q 844 301 813 249 q 919 421 875 353 q 1060 601 988 524 q 1207 729 1132 678 q 1011 825 1049 811 q 801 874 893 874 q 733 867 767 874 q 669 847 700 860 q 551 751 597 818 q 504 608 504 685 q 558 478 504 528 q 693 428 613 428 q 839 479 772 428 q 906 615 906 533 q 869 715 906 672 q 774 760 832 760 q 692 728 728 760 q 654 649 654 694 q 674 601 654 618 q 693 578 693 583 q 692 576 693 576 q 692 575 692 575 q 679 581 688 575 q 642 651 642 608 q 683 739 642 704 q 776 774 722 774 q 885 729 838 774 q 929 619 929 682 q 853 468 929 531 q 690 407 779 407 q 538 468 596 407 q 478 622 478 526 q 524 781 478 708 q 650 885 574 858 q 797 911 721 911 q 906 898 850 911 q 1021 854 963 885 q 1122 799 1072 828 q 1224 742 1172 769 q 1383 801 1315 801 q 1443 785 1414 801 q 1478 736 1478 764 q 1443 686 1478 704 q 1381 669 1414 669 q 1321 681 1357 669 q 1288 610 1303 651 q 1267 513 1274 568 q 1259 441 1263 486 q 1253 332 1256 396 q 1175 0 1240 78 q 1233 26 1200 3 q 1478 417 1361 117 q 1942 951 1688 951 q 2038 929 2001 951 q 2083 847 2083 903 q 2081 832 2083 842 q 2074 811 2078 822 q 2054 783 2065 783 q 2050 792 2050 783 l 2049 792 q 2059 816 2056 804 q 2063 839 2063 828 q 2031 897 2063 874 q 1964 918 2001 918 q 1807 857 1885 918 q 1710 763 1756 818 q 1622 639 1664 708 q 1563 530 1594 594 q 1493 381 1531 465 q 1429 246 1458 304 q 1375 150 1400 188 q 1186 -18 1290 24 q 1144 -31 1164 -26 q 1110 -36 1125 -36 q 1092 -33 1097 -36 l 1089 -32 q 1111 -21 1089 -29 q 1171 25 1147 -8 q 1182 92 1182 40 q 1181 134 1182 108 q 1176 194 1179 160 q 1172 256 1174 231 q 1171 299 1171 281 q 1199 506 1171 401 q 1294 689 1232 631 q 1260 705 1279 696 q 1218 724 1240 714 q 1065 579 1143 669 q 997 491 1028 535 q 946 404 967 447 q 919 348 935 382 q 881 269 904 314 q 439 -133 692 -101 q 426 -135 433 -135 q 411 -135 419 -135 m 1383 679 q 1447 722 1447 679 q 1417 767 1447 747 q 1361 782 1389 782 q 1235 735 1307 782 q 1272 716 1254 725 q 1307 700 1290 707 q 1353 725 1336 725 q 1361 719 1361 725 q 1356 715 1361 715 q 1329 692 1342 706 q 1383 679 1363 679 z "}}}
